<?xml version="1.0" encoding="utf-8"?>
<!-- Generator: Adobe Illustrator 15.1.0, SVG Export Plug-In . SVG Version: 6.00 Build 0)  -->
<!DOCTYPE svg PUBLIC "-//W3C//DTD SVG 1.1//EN" "http://www.w3.org/Graphics/SVG/1.1/DTD/svg11.dtd">
<svg version="1.1" id="Layer_1" xmlns="http://www.w3.org/2000/svg" xmlns:xlink="http://www.w3.org/1999/xlink" x="0px" y="0px"
	 width="18.279px" height="17.753px" viewBox="0 0 18.279 17.753" enable-background="new 0 0 18.279 17.753" xml:space="preserve">
<g>
	<g>
		<g>
			<line fill="#FFFFFF" x1="0.381" y1="8.232" x2="9.412" y2="17.264"/>
		</g>
		<g>
			
				<rect x="-1.49" y="12.248" transform="matrix(-0.7071 -0.7071 0.7071 -0.7071 -0.6555 25.2236)" fill="#FFFFFF" width="12.772" height="1"/>
		</g>
	</g>
	<g>
		<g>
			<line fill="#FFFFFF" x1="17.898" y1="8.232" x2="8.867" y2="17.264"/>
		</g>
		<g>
			
				<rect x="12.883" y="6.362" transform="matrix(-0.7071 -0.7071 0.7071 -0.7071 13.8322 31.2251)" fill="#FFFFFF" width="1" height="12.771"/>
		</g>
	</g>
</g>
<g>
	<g>
		<g>
			<line fill="#FFFFFF" x1="0.381" y1="0.574" x2="9.412" y2="9.605"/>
		</g>
		<g>
			
				<rect x="-1.49" y="4.589" transform="matrix(-0.7071 -0.7071 0.7071 -0.7071 4.7597 12.1502)" fill="#FFFFFF" width="12.772" height="1"/>
		</g>
	</g>
	<g>
		<g>
			<line fill="#FFFFFF" x1="17.898" y1="0.574" x2="8.867" y2="9.605"/>
		</g>
		<g>
			
				<rect x="12.883" y="-1.296" transform="matrix(-0.7071 -0.7071 0.7071 -0.7071 19.2466 18.1514)" fill="#FFFFFF" width="1" height="12.772"/>
		</g>
	</g>
</g>
</svg>
