<?xml version="1.0" encoding="utf-8"?>
<!-- Generator: Adobe Illustrator 23.0.6, SVG Export Plug-In . SVG Version: 6.00 Build 0)  -->
<svg version="1.0" id="Layer_1" xmlns="http://www.w3.org/2000/svg" xmlns:xlink="http://www.w3.org/1999/xlink" x="0px" y="0px"
	 width="220px" height="112px" viewBox="0 0 220 112" style="enable-background:new 0 0 220 112;" xml:space="preserve">
<style type="text/css">
	.st0{fill-rule:evenodd;clip-rule:evenodd;fill:#ECB02A;}
	.st1{fill-rule:evenodd;clip-rule:evenodd;fill:#E7821C;}
	.st2{fill-rule:evenodd;clip-rule:evenodd;fill:#F4DA34;}
	.st3{fill-rule:evenodd;clip-rule:evenodd;fill:#E66D1C;}
	.st4{fill-rule:evenodd;clip-rule:evenodd;fill:#F3C72D;}
</style>
<g id="Layer_1">
	<g id="svgg">
		<path id="path0" class="st0" d="M84,15.9v2.4l-1.3,0c-1.9,0.1-5,0.5-6.3,0.9c-0.1,0-0.7,0.2-1.2,0.4C74.7,19.8,74.1,20,74,20
			c-0.6,0.2-1,0.4-1,0.4c0,0-0.1,0-0.1,0.1c0,0.1,0,0.1-0.1,0c0,0-0.1,0-0.2,0c-0.1,0.1-0.2,9.7,0,9.7c0,0,0.1-0.1,0.1-0.2
			c0-0.1,0-0.1,0.1-0.1c0.1,0,0.7-0.9,0.7-1c0,0,0.1-0.1,0.1-0.2c0.1-0.1,0.3-0.3,0.4-0.6c0.1-0.2,0.3-0.5,0.4-0.6
			c0.1-0.1,0.4-0.4,0.6-0.7c1-1.2,3.8-3.5,4.3-3.5c0,0-0.1,0.4-0.3,0.9c-0.9,2.6-1.9,6.7-2.2,9.4l-0.1,0.9l-0.2,0
			c-0.1,0-0.5-0.1-0.8-0.1c-0.8-0.1-1.1-0.1-1.6-0.2c-0.2,0-0.5-0.1-0.6-0.1c-0.1,0-0.2,0-0.2-0.1c0,0,0-0.1-0.1-0.1s-0.1,0-0.1,0.1
			c0,0.1,0,0.1-0.1,0c0-0.1-0.1-0.1-0.3-0.1l-0.2,0l0,1.7l0,1.7l-0.3,0l-0.3,0l0.2,0.1c0.2,0,0.3,0,0.3,0c0.1-0.1,0.1-0.1,0.1,0
			c0,0,0.2,0.1,0.4,0.1c0.5,0,2.4,0.3,2.9,0.3c0.3,0,0.3,0,0.3,0.3c0,0.1-0.1,1-0.2,1.9c-0.1,0.9-0.1,1.9-0.2,2.2
			c0,0.3-0.1,0.9-0.1,1.4c0,0.5-0.1,1.2-0.1,1.7c0,0.4,0,1,0,1.3l0,0.5l-1.7,0c-0.9,0-1.5,0-1.4,0.1l0.3,0.1l-0.3,0l-0.3,0v1.5v1.5
			l0.3,0c0.1,0-0.2,0-0.7,0.1c-0.6,0-0.2,0,1.4,0l2.4,0l0.1,1.6c0,0.9,0.1,1.7,0.1,2c0.1,1.7,0.4,6.3,0.5,6.3c0,0-0.2,0.1-0.4,0.1
			c-0.5,0-0.8,0-1.7,0.2c-0.4,0-0.8,0.1-0.9,0.1c-0.2,0-0.4,0.1-0.5,0.2c-0.1,0.1-0.2,0.1-0.2,0c-0.2-0.3-0.2,0.1-0.2,1.6
			c0,0.9,0,1.7,0,1.6c0,0-0.1,0-0.2,0c-0.1,0.1-0.1,0.1,0,0.1c0.2,0,0.4-0.1,0.3-0.2c0,0,0-0.1,0.1-0.1s0.1,0,0.2,0.1
			c0,0.1,0.4,0,0.4-0.1c0,0,0.2-0.1,0.4-0.1c0.4,0,0.6,0,2.3-0.2l0.8-0.1l0.1,0.7c0.3,2.2,0.9,4.8,1.6,7.2c0.3,1.1,0.7,2.2,0.9,2.5
			c0.7,1.1-3.9-2.6-4.7-3.8c0-0.1-0.2-0.2-0.3-0.4c-0.1-0.1-0.3-0.4-0.5-0.6c-0.1-0.2-0.3-0.4-0.3-0.4c0-0.1-0.1-0.1,0-0.1
			c0,0,0,0,0,0c0,0-0.2-0.2-0.3-0.4c-0.1-0.2-0.3-0.4-0.3-0.5c-0.1-0.1-0.1-0.2-0.1-0.2c0,0,0-0.1-0.1-0.1c-0.1,0-0.1,0-0.1-0.1
			c0-0.1,0-0.1-0.1-0.1c-0.1,0-0.1,1.6-0.1,4.8c0,2.7,0,4.8,0.1,4.8c0,0,0.2,0,0.4,0.1c0.2,0.1,0.4,0.2,0.4,0.2c0,0,0.2,0.1,0.3,0.1
			c1.2,0.5,4,1.3,5.2,1.4c0.3,0,0.8,0.1,1,0.2c0.6,0.1,2.5,0.2,3.3,0.2H84v2.4v2.4l1.9-0.1c1,0,2-0.1,2.2-0.1l0.4,0l0-0.6
			c0-0.3-0.1-0.9-0.1-1.3c0-0.4-0.1-1-0.1-1.3c0-0.3-0.1-0.9-0.1-1.4c0-0.8,0-0.8,0.1-0.8c0.1,0,0.1,0,0.1-0.1c0,0,0.1-0.1,0.2,0
			c0.1,0,0.3,0,0.3,0s0.2,0,0.3,0c0.2,0,0.3,0,0.2,0c-0.1,0-0.1-0.5-0.1-1.9c0-1.8,0-1.9-0.2-1.9c-0.1,0-0.2,0-0.2,0s-0.1,0-0.3,0
			c-0.2,0-0.3,0-0.3,0s-0.1,0.1-0.3,0.1c-0.2,0-0.5,0-0.7,0l-0.4,0l0-1.6l0-1.6l0.7-0.7c0.4-0.4,0.7-0.7,0.7-0.8c0,0,0,0,0.1,0
			c0.1,0,0.1,0,0.1-0.1c0,0,0-0.1,0-0.1c0,0,0.2-0.1,0.3-0.2c0.1-0.1,0.2-0.2,0.2-0.2c0,0,0-0.1,0.1-0.2c0.2-0.2,0.3-3.8,0.1-3.8
			c-0.1,0-0.1,0,0-0.1c0.1,0,0.1-0.1,0-0.1c-0.1,0-0.4,0.5-0.4,0.6c0,0,0,0.1-0.1,0.1s-0.1,0-0.1,0.1c0,0,0,0.1-0.1,0.2
			c-0.2,0.3,0,1.7,0.1,1.5c0-0.1,0.1,0,0.1,0.1c0,0.1,0,0.1,0,0.1c0,0-0.1,0-0.1,0c0,0,0.1,0.1,0.1,0.1s0.1,0,0.1,0.1
			c0,0.1-0.2,0.3-0.3,0.3c0,0-0.7,0.6-1.4,1.4L86,70.9v1.9v1.9h-1.3c-1.5,0-1.3,0.1-1.8-1c-0.7-1.5-1.3-3.2-1.9-5.7
			c-0.3-1.3-0.9-4.8-0.9-4.8c0,0,2.8-0.1,3.4-0.1l0.7,0v-1.6v-1.6L82,59.8l-2.3,0.1l0-0.4c-0.2-1.8-0.4-5.7-0.5-7.7l0-1.5l2.4,0
			c1.3,0,2.4,0,2.5,0c0.1,0,0.1-0.3,0.1-1.7l0-1.7h-2.5l-2.5,0l0-1.4c0-1.3,0.2-4.4,0.2-4.9c0-0.3,0.2-2.3,0.2-2.6
			c0-0.2,0-0.2,0.3-0.1c0.2,0,1.2,0.1,2.3,0.1l2,0.1v-1.6c0-0.9,0-1.6,0-1.6c0,0-0.6,0-1.4,0c-2.5-0.1-2.8-0.1-2.8-0.3
			c0-0.1,0.1-0.5,0.1-0.8c0.1-0.7,0.3-1.7,0.6-3.3c0.1-0.5,0.2-1.1,0.2-1.2c0-0.1,0.1-0.4,0.1-0.6c0.1-0.2,0.2-0.5,0.2-0.8
			c0.3-1.5,1.5-4.4,2-5.1c0.1-0.1,2.5-0.1,3.3,0c0.1,0,0.5,0.1,0.7,0.1c0.3,0,0.6,0.1,0.9,0.1c0.2,0,0.4,0.1,0.5,0
			c0.1,0,0.1,0,0.1,0c0,0.1,0.1,0,0.1,0c0.1-0.1,0.1-0.1,0.1,0c-0.1,0.1,0.3,0.2,0.4,0.1c0.1-0.1,0.1-0.1,0,0
			c-0.1,0-0.1-0.3-0.1-1.9c0-1.9,0-2-0.1-2c-0.2,0-0.2,0-0.7-0.1c-0.3-0.1-0.3-0.1-0.3-0.2c0-0.1,0.1-0.6,0.1-1.1
			c0-0.5,0.1-1.1,0.1-1.3c0-0.2,0.1-0.8,0.1-1.2c0-0.5,0.1-1,0.1-1.2c0-0.3,0-0.3-0.2-0.3c-0.3,0-0.6,0-1.1-0.1
			c-0.2,0-1.1-0.1-1.9-0.1l-1.5,0V15.9 M89,35.1c-0.7,0.2-1.1,0.5-1.5,1.1c-0.5,0.6-0.4,2,0.2,2.7c0.1,0.1,0.1,0.2,0.1,0.2
			c0,0,0.1,0.1,0.3,0.2c0.3,0.2,0.3,0.2,0.5,0.2c0.1,0,0.1,0,0.1,0.1c0,0.1,0,0.1,0.1,0c0.1,0,0.1,0,0.1,0c0,0,0.1,0.1,0.2,0.1
			c0.1,0,0.1,0,0.1-0.1c0-0.1,0-0.1,0.1,0c0.1,0.1,0.4,0.1,0.4,0c0,0,0-0.1-0.1-0.1l-0.2,0v-2.3c0-2.1,0-2.3,0.1-2.2
			c0.2,0,0.2,0,0-0.1C89.5,35,89.3,35,89,35.1 M89.2,46.1c-0.1,0.1-0.1,0.1,0,0.1c0.1,0,0.1,0,0,0.1c-0.1,0-0.1,0.1,0,0.3
			c0,0.1,0.1,0.2,0,0.2c0,0-0.1,0.1,0,0.2c0,0.1,0,0.2,0,0.3c0,0.1,0.1,0.1,0.1,0.1c0.1,0,0.1,0,0.1-0.1c0-0.1,0-0.4,0-0.7
			C89.3,46,89.3,45.9,89.2,46.1 M86.2,52.5c-2,0.6-2.2,3.5-0.3,4.4c0.6,0.3,1.9,0.2,2.1-0.1c0.1-0.1,0.3,0,0.8,0.5
			c0.2,0.2,0.4,0.4,0.4,0.3c0,0,0,0,0.1,0.1c0.1,0.1,0.1-0.1,0.1-0.5c0-0.3,0-0.6-0.1-0.6c0,0-0.1-0.1,0-0.1c0,0,0-0.1,0-0.1
			c-0.2,0-0.3,0-0.2-0.1c0,0,0-0.1-0.1-0.1c-0.1,0-0.1-0.1,0-0.2c0.1-0.1,0.1-0.1,0-0.1s0,0,0.1-0.1c0.2-0.1,0.3-0.6,0.2-0.5
			c-0.1,0-0.1,0-0.1-0.1c0-0.1,0.1-0.1,0.1-0.1c0,0,0.1-0.4,0-1c0-0.1-0.1-0.3-0.2-0.4c-0.1-0.1-0.1-0.2-0.1-0.2
			c0.1,0-0.3-0.5-0.6-0.7c-0.2-0.1-0.4-0.3-0.4-0.3c0,0-0.1,0-0.1,0c0,0-0.1,0-0.1,0C87.5,52.4,86.6,52.4,86.2,52.5 M95.4,62.2
			c0.9,0,2.4,0,3.3,0c0.9,0,0.1,0-1.7,0C95.2,62.2,94.5,62.2,95.4,62.2"/>
		<path id="path1" class="st1" d="M97.6,16.5c-0.1,0.1-0.6,1.2-1.1,2.3c-0.6,1.2-1,2.1-1.1,2.1c0,0-0.9-0.3-1.1-0.4
			c-0.3-0.1-2.1-0.7-2.5-0.8c-0.2-0.1-0.6-0.1-0.8-0.2c-0.2-0.1-0.4-0.1-0.5-0.1c-0.1,0-0.3,0-0.4,0c-0.2,0-0.4-0.1-0.5-0.1
			c-0.1,0-0.2,0-0.2-0.1c0,0,0,0-0.1,0.1c-0.1,0.2-0.1,3.8,0,3.8c0,0,0.1,0,0.2-0.1c0.1-0.1,0.1-0.1,0.1,0c-0.1,0.1,0,0.2,0.3,0.2
			c0.1,0,0.2,0,0.2,0.1c0,0,0,0.1,0.1,0c0.1,0,0.2,0,0.2,0c0,0,0.2,0.1,0.4,0.1c0.3,0.1,2,0.6,2.5,0.8c0.1,0.1,0.4,0.2,0.6,0.3
			c0.2,0.1,0.5,0.2,0.7,0.3l0.3,0.1v3v3l-0.5,0.5c-0.3,0.3-1.3,1.2-2.1,2.1c-0.9,0.9-1.6,1.6-1.7,1.6c0,0-0.1,0-0.2-0.1
			c-0.3-0.2-1.4-0.4-1.2-0.2c0,0,0.1,0.9,0.1,2.3v2.3l0.2,0c0.1,0,0.2,0,0.1,0.1c-0.1,0.1,0.5,0,0.6-0.1c0.1,0,0.1-0.1,0.3-0.1
			c0.2,0,0.8-0.8,1-1.1c0.3-0.6,0.3-1.4,0-1.9L91.4,36l0.3-0.3c0.2-0.2,1.2-1.2,2.3-2.3l2-2l0-3l0-3l0.6,0.3c1.4,0.8,3.2,2,4.1,2.8
			c1.4,1.2,2.3,2.1,2.3,2.2c0,0,0,0.1,0.1,0c0,0,0.1,0,0.2,0.1c0.1,0.1,0.1,0.1,0,0.1c-0.1,0-0.1,0-0.1,0c0.2,0.3,0.2-0.1,0.2-2.5
			c0-2.8-0.1-3.1-0.4-2.9c0,0-0.1,0,0,0c0-0.1,0-0.1-0.5-0.5c-0.1-0.1-0.1-0.1,0.1-0.4c0.1-0.1,0.2-0.3,0.2-0.3c0,0,0-0.1,0.1-0.1
			c0.1,0,0.1-0.1,0.1-0.2c0-0.1,0-0.1,0.1-0.1c0,0,0.1-0.2,0.3-0.3l0.2-0.3l0-2.1c0-1.7-0.1-2.1-0.2-2.2c-0.1-0.1-0.1-0.1,0,0
			c0.1,0.1,0,0.1-0.1,0c-0.1-0.1-0.2-0.1-0.2,0c0,0,0,0,0,0c0,0-0.1-0.2-0.2-0.3c-0.2-0.1-0.3-0.2-0.3-0.3c0,0-0.2-0.1-0.3-0.2
			c-0.2-0.1-0.3-0.2-0.4-0.2c-0.1-0.1-0.3-0.2-0.5-0.3c-0.2-0.1-0.4-0.2-0.5-0.3c-0.1-0.1-0.1-0.1-0.2-0.1c0,0-0.1,0-0.1,0
			c0,0,0-0.1-0.1,0s-0.1,0-0.1,0s-0.4-0.2-0.8-0.4c-0.4-0.2-0.9-0.5-1.1-0.6C97.9,16.2,97.7,16.2,97.6,16.5 M103.8,22.9
			c-0.1,0.2-0.2,0.4-0.1,0.3c0,0,0.1-0.1,0.1-0.2c0-0.1,0.1-0.1,0.1-0.2c0.1,0,0.1-0.1,0-0.1C103.9,22.8,103.8,22.9,103.8,22.9
			 M95.5,41.9l-2.7,2.7l-0.3-0.2c-0.3-0.2-1.4-0.3-1.6-0.1c-0.1,0-0.1,0.1-0.2,0.1c-0.3,0-1,0.7-0.9,0.8c0,0,0,0.1-0.1,0.1
			c-0.1,0-0.1,0.1-0.1,0.2c0,0.1,0,0.1-0.1,0.1c-0.1,0-0.1,0.1-0.1,0.3c0,0.1,0,0.1-0.1,0.1c0,0-0.1,0.1-0.1,0.1
			c0,0.1,0,0.1,0.1,0.1c0.1-0.1,0.1,1,0,1.2c-0.1,0.1-0.1,0.1,0,0.1c0.1,0,0.1,0,0.1,0c0,0,0,0.1-0.1,0.1c-0.1,0-0.1,0,0,0.1
			c0.1,0,0.1,0.1,0.1,0.1s-0.1,0-0.1,0.1c0,0,0.1,0.1,0.1,0c0,0,0.1,0,0,0.1c0,0.1,0,0.1,0.1,0.1c0.1,0,0.1,0,0.1,0
			c0,0,0.1,0.2,0.3,0.4c1.4,1.4,3.8,0.5,4-1.4c0-0.5-0.2-1.4-0.3-1.4c0,0,1.1-1.2,2.6-2.6l2.6-2.6l4.4,0c2.4,0,3.5,0,2.4,0l-1.9,0
			v-0.4c0-0.4,0-0.4,0.3-0.4c0.1,0-1,0-2.6,0l-2.9,0L95.5,41.9 M98.3,47.6c-1.7,0.5-2.2,2.7-0.9,4c0.6,0.6,1.6,0.7,2.5,0.4l0.4-0.1
			l1.4,1.4c1.6,1.7,1.8,1.7,1.8,1c0-0.3,0-0.5-0.1-0.6c-0.1-0.1-0.1-0.1-0.1-0.1c0,0-0.1-0.1-0.3-0.2c-0.1-0.2-0.7-0.7-1.2-1.2
			c-0.5-0.5-0.9-0.9-0.9-0.9c0,0,0.1-0.3,0.2-0.6C101.7,48.8,100.1,47.1,98.3,47.6 M89.1,55.1c-0.1,0.2-0.1,0.2,0,0.2
			c0.1,0,0.1-0.1,0.1-0.2C89.2,54.9,89.2,54.9,89.1,55.1 M88.8,56c0,0,0,0.1,0.1,0.1c0.1,0,0.1,0.1,0.1,0.1s0,0.1,0.1,0.2
			c0.2,0.1,0.2,0.2,0.2,0.7c0,0.4,0,0.5-0.1,0.5c0-0.1-0.1-0.1-0.1,0c0,0-0.1,0-0.1-0.1c-0.1-0.2-0.1-0.2,0,0
			c0.1,0.2,0.4,0.4,0.5,0.4c0,0,0.1,0,0.1,0.1c0,0,0.9,1,2.1,2.1l2.1,2.1l5.2,0c2.8,0,5,0,4.9-0.1c-0.3,0-0.3,0-0.3-0.4
			c0-0.4,0-0.4,0.3-0.4c0.3,0-0.9,0-6.2-0.1l-3.5,0L91.9,59c-1.2-1.2-2.3-2.2-2.3-2.2c-0.1,0-0.1,0-0.1-0.1c0-0.1,0-0.2-0.1-0.2
			c-0.1-0.1-0.2-0.2-0.3-0.3C88.9,56.1,88.8,56,88.8,56 M90.6,64.3c-0.1,0-0.2,0.1-0.2,0.1c-0.2,0.1-0.2,0.1-0.3,0.1
			c-0.1,0-0.2,0.1-0.3,0.2c-0.1,0.1-0.2,0.2-0.3,0.2c-0.1,0.1-0.2,0.1-0.1,0.2c0,0,0,0.1-0.1,0.1c-0.1,0-0.1,0,0,0.1
			c0.1,0.1,0.1,0.5,0.1,1.9c0,1.4,0,1.8,0.1,1.7c0-0.1,0.1-0.1,0.1-0.1c0.1,0.1,0.1-0.1,0.1-0.3c0,0,0.1,0,0.2,0.1
			c0.9,0.8,2.7,0.3,3.4-0.9c0.3-0.5,0.2-1.7,0-2.2c-0.3-0.4-0.7-0.9-0.9-0.9c-0.1,0-0.1,0-0.1-0.1C92,64.4,90.9,64.2,90.6,64.3
			 M103.4,66.1c0,0.1-0.1,0.2,0,0.2c0,0,0,0-0.1,0c0,0-0.4,0.3-0.9,0.7c-1.2,1.2-3.1,2.8-3.9,3.2c-0.1,0.1-0.3,0.2-0.3,0.2
			c-0.2,0.2-1.6,1-2.3,1.4c-0.4,0.2-0.9,0.4-1,0.5c-0.1,0.1-0.4,0.2-0.6,0.2c-0.2,0.1-0.6,0.2-0.8,0.3c-0.4,0.2-3,1-3.5,1.1
			c-0.1,0-0.2,0-0.3,0.1c-0.1,0-0.2,0.1-0.3,0.1c-0.2,0-0.2,0.1-0.2,1.9c0,1.4,0,1.9-0.1,2c-0.1,0,0,0.1,0.1,0
			c0.1,0,0.3-0.1,0.5-0.1c0.4-0.1,1.8-0.4,2.5-0.6c0.8-0.2,1.5-0.5,1.7-0.5c0.1-0.1,0.4-0.2,0.7-0.2c0.3-0.1,0.5-0.1,0.6-0.2
			c0.1,0,2.2,4,2.2,4.2c0,0.1,0,0.1,0.1,0.1c0,0,0.1,0.1,0.1,0.1c0,0.2,0.2,0.2,0.4,0.1c0.1-0.1,0.4-0.2,0.7-0.3
			c0.3-0.1,0.7-0.3,1-0.4c1.3-0.7,1.9-1,2-1.1c0,0,0.2-0.2,0.5-0.3c0.2-0.1,0.6-0.3,0.7-0.5c0.1-0.1,0.3-0.2,0.3-0.2
			c0,0,0.2-0.1,0.4-0.2c0.2-0.2,0.3-0.3,0.2-0.2c-0.1,0-0.1-0.3-0.1-1.8c0-1.4,0-1.8,0.1-1.8c0.1,0,0.1,0,0-0.1
			c-0.1,0-0.1-0.1,0-0.1c0,0,0-0.1,0-0.1c-0.1-0.1-0.1-0.1-0.2-0.1c0,0-0.1-0.1-0.1-0.1c0-0.1,0-0.1,0.1,0c0,0.1,0.1,0.1,0.1,0
			c0-0.2-0.2-0.3-0.3-0.2c0,0.1,0,0,0-0.1c0-0.2-0.2-0.5-0.3-0.6c0,0-0.1-0.1-0.2-0.3l-0.1-0.2l0.4-0.3c0.8-0.7,0.7-0.3,0.7-3.3
			C103.5,66,103.5,65.9,103.4,66.1 M88.8,67.4C88.8,67.5,88.8,67.5,88.8,67.4c-0.1,0-0.2,0-0.2,0c0,0,0.1,0.1,0.2,0.1
			c0.1,0.1,0.1,0.1,0.1-0.1C88.9,67.3,88.8,67.3,88.8,67.4 M87,72.9c0,0.9,0,1.2,0,0.8c0-0.4,0-1.1,0-1.6C87,71.7,87,72.1,87,72.9
			 M104.1,77.5c-0.1,0-0.2,0.1-0.2,0.2c0,0.1,0.3-0.1,0.4-0.2c0,0,0-0.1,0-0.1C104.3,77.4,104.2,77.4,104.1,77.5"/>
		<path id="path2" class="st2" d="M62.8,27.1c-0.1,0.1-0.1,0.2-0.1,0.2c0,0,0,0.1-0.1,0.1c-0.1,0-0.2,0.1-0.2,0.1
			c0,0.1,0,0.1-0.1,0.1c0,0-0.2,0.1-0.3,0.3c-0.1,0.2-0.5,0.5-0.7,0.8c-0.3,0.3-0.5,0.5-0.5,0.5c0,0-0.1,0.2-0.2,0.3
			c-0.1,0.1-0.3,0.3-0.4,0.5c-0.1,0.1-0.4,0.6-0.8,1c-0.3,0.4-0.7,0.9-0.8,1.1c-0.1,0.2-0.3,0.5-0.5,0.8c-0.8,1.3-1.5,2.7-1.9,3.6
			c-0.1,0.3-0.3,0.8-0.4,1.1c-0.5,1.1-1.2,3.2-1.2,3.8c0,0.1,0,0.2,0,0.2s0,0.1,0,0.2c0,0.1-0.1,0.3-0.1,0.5c-0.2,1-0.3,1.8-0.4,2.3
			c0,0.3-0.1,0.6-0.1,0.6c-0.1,0.1-0.1,6.9,0,7.1c0,0.1,0.1,0.7,0.2,1.3c0.2,1.5,0.3,2.1,0.4,2.2c0,0.1,0.1,0.2,0.1,0.2
			c0,0.3,0.9,3,1,3.1c0,0,0.1,0.3,0.2,0.5c0.1,0.2,0.2,0.5,0.2,0.5c0,0,0.1,0.3,0.2,0.5c0.2,0.6,0.5,1.1,0.6,1.3
			c0,0.1,0.2,0.3,0.3,0.6c0.4,0.9,0.7,1.3,0.8,1.4c0.1,0.1,0.2,0.3,0.3,0.5c0.2,0.4,0.8,1.3,1,1.5c0.1,0.1,0.5,0.6,0.9,1.2
			c0.4,0.6,1.1,1.4,1.4,1.7c0.3,0.4,0.7,0.7,0.7,0.8c0.1,0.1,0.2,0.2,0.2,0.1c0,0,0.1,0,0.1,0c0,0,0.1,0.1,0.1,0.1
			c0.1,0,0.1,0,0.1,0.1c0,0,0,0.1,0.1,0.1c0.1,0,0.1,0.1,0.1,0.1c0,0,0,0.1,0.1,0.2c0.1,0.1,0.1,0.1,0.2,0c0,0,0-0.1,0-0.1
			c-0.1,0-0.1,0-0.1-0.1c0-0.1,0-0.1-0.1-0.2c-0.1-0.1-0.1-7.2,0-7.2c0.1,0,0.1,0,0,0c0-0.1-0.1-0.1-0.3-0.1c-0.3,0.1-0.5,0-0.4-0.1
			c0,0,0-0.1-0.1-0.1c-0.1,0-0.1,0-0.1-0.1c0-0.2,0-0.4-0.1-0.3c0,0-0.1,0-0.2-0.2c-0.3-0.6-0.5-1-0.6-1.1c0,0-0.1-0.2-0.2-0.5
			c-0.1-0.3-0.2-0.5-0.3-0.5c0,0-0.1,0-0.1-0.1c0,0-0.1-0.3-0.2-0.5c-0.1-0.3-0.3-0.6-0.3-0.7c0-0.1-0.1-0.3-0.2-0.4
			c-0.2-0.4-0.6-1.5-0.8-2.3c-0.1-0.4-0.2-0.8-0.3-1c-0.1-0.2-0.2-0.7-0.2-1.1c-0.1-0.4-0.1-0.8-0.2-1c-0.1-0.4-0.1-0.6-0.2-1.9
			c0-0.2-0.1-0.5-0.1-0.7l0-0.2l0.6,0c0.4,0,1.4,0,2.3-0.1l1.7,0v-1.6v-1.6l0.3,0c0.8,0-1.1-0.1-2.8-0.1l-2.1,0l0-0.3
			c0-0.6,0.1-1.5,0.2-2.1c0.2-1.4,0.4-2.2,0.5-2.6c0.6-2,0.8-2.6,1-2.9c0.1-0.2,0.1-0.3,0.1-0.4c0,0,0-0.1,0-0.1s0.1,0,0-0.1
			c0,0,0-0.1,0-0.1c0,0,0.1-0.1,0-0.1c0,0,0-0.1,0-0.1c0.1,0,0.4-0.7,0.4-0.9c0,0,0-0.1,0.1-0.1c0.1,0,0.1,0,0,0c0,0,0-0.2,0.1-0.3
			c0.1-0.2,0.2-0.3,0.2-0.3c0,0,0.1-0.3,0.3-0.6c0.2-0.3,0.3-0.6,0.3-0.6c0,0,0-0.1,0.1-0.1c0,0,0.2-0.2,0.3-0.4
			c0.2-0.3,0.2-0.4,0.3-0.2c0.1,0.1,0.1,0.1,0.1,0.1c0,0,0,0,0.1,0c0,0,0.1,0,0.2,0c0.1,0,0.2,0.1,0.3,0.1c0.1,0.1,0.4,0.2,0.3,0.1
			c0,0-0.1-0.1-0.2-0.1l-0.2-0.1l0-3.8c0-2.6,0-3.9,0.1-4C63.1,26.9,63,26.9,62.8,27.1 M76.1,60.2c0.1,0,0.2,0,0.3,0
			c0.1,0,0,0-0.1,0C76,60.1,76,60.1,76.1,60.2"/>
		<path id="path3" class="st3" d="M103.4,19.3C103.4,19.4,103.4,19.4,103.4,19.3c0.1,0,0.1,0.8,0.1,2.1c0,1.9,0,2.3,0.2,2
			c0-0.1,0-0.1,0-0.1c0,0-0.1,0,0-0.1c0-0.1,0.1-0.2,0.2-0.3c0.1,0,0.2-0.2,0.3-0.4c0.1-0.2,0.2-0.3,0.2-0.4c0,0,0.2-0.2,0.3-0.4
			c0.1-0.2,0.3-0.4,0.3-0.5c0.4-0.5,0.4-0.6-0.2-1c-0.2-0.1-0.3-0.2-0.4-0.3c-0.1-0.1-0.2-0.1-0.2-0.1s-0.1,0-0.1-0.1
			c0,0-0.1-0.1-0.1-0.1c-0.1,0-0.1,0-0.1-0.1C103.9,19.4,103.4,19.2,103.4,19.3 M103.5,28.6l0,2.7l0.2,0.1c0.1,0,0.1,0.1,0.1,0.1
			c-0.1,0,0,0.1,0.1,0.2c0.1,0.1,0.3,0.3,0.4,0.5c0.3,0.4,0.4,0.6,0.6,0.7c0.1,0.1,0.1,0.2,0.1,0.2c0,0,0.2,0.3,0.4,0.5
			c0.2,0.3,0.4,0.5,0.4,0.5c0,0,0.1,0.1,0.1,0.2c0.1,0.1,0.2,0.2,0.2,0.3c0.1,0.1,0.3,0.5,0.5,0.9c0.2,0.3,0.5,0.8,0.5,1
			c0.1,0.2,0.2,0.4,0.2,0.4c0,0,0,0.1,0,0.1c0,0,0,0.1,0,0.1c0.1,0.1,0.2,0.4,0.3,0.6c0.1,0.3,0.2,0.5,0.3,0.5c0,0,0.1,0.1,0.1,0.1
			c0,0.1,0.1,0.2,0.1,0.4c0.1,0.1,0.1,0.3,0.1,0.3c0,0-0.9,0.1-1.9,0.1c-1.1,0-2.1,0-2.4,0.1l-0.5,0v0.4V40l1.8,0c1,0,2.2,0,2.6,0.1
			l0.8,0.1l0.1,0.4c0.1,0.2,0.2,0.7,0.3,1.1c0.1,0.4,0.3,1.2,0.4,1.7c0.1,0.5,0.2,1.1,0.2,1.2c0.1,0.4,0.2,1.4,0.2,2.1
			c0,0.6,0.1,3.4,0,3.9c-0.1,0.7-0.1,1.4-0.2,1.7c0,0.2-0.1,0.4-0.1,0.6c0,0.1-0.1,0.4-0.1,0.7c0,0.2-0.1,0.4-0.1,0.5c0,0-1.4,0-3,0
			h-3v0.4c0,0.2,0,0.4-0.1,0.4c0,0-0.1,0-0.2,0s1.3,0.1,3,0.1c1.7,0,3.1,0,3.2,0c0.1,0.1-1,3.2-1.3,3.9c-0.2,0.4-0.3,0.7-0.3,0.7
			c0,0-0.2,0.4-0.4,0.9l-0.4,0.9h-1.3c-0.7,0-1.5,0-1.7,0.1l-0.4,0.1v0.4c0,0.4,0,0.4,0.3,0.4c0.1,0-0.6,0-1.7,0.1
			c-1.8,0-1.8,0,1.1,0.1l3,0l-0.2,0.4c-0.4,0.7-1.2,1.7-1.5,2.1c-0.1,0.1-0.1,0.1-0.1,0.2c0,0,0,0.1-0.1,0.1c0,0-0.2,0.2-0.4,0.5
			l-0.4,0.5v2.6c0,1.7,0,2.6-0.1,2.7c0,0-0.1,0.1,0,0.1c0.1,0.1,0.5-0.3,0.4-0.4c0,0,0,0,0,0c0.1,0,0.1,0,0-0.1c0-0.1,0-0.1,0,0
			c0.1,0,0.2,0,0.3-0.1c0.1-0.1,0.5-0.5,0.9-0.9c0.7-0.7,1.7-1.8,1.9-2.1c0.1-0.1,0.2-0.2,0.3-0.3c0.1-0.1,0.2-0.2,0.2-0.3
			c0.1-0.1,0.1-0.1,0.7,0.3c0.8,0.5,1.1,0.8,1.9,1.3c0.3,0.2,0.8,0.6,1.2,0.8c0.7,0.5,0.7,0.5,1.3-0.3c1.7-2.3,4-6.5,3.8-6.9
			c0-0.1-4.1-2.1-4.1-2.1c0,0-0.1,0-0.1-0.1c0,0,0-0.1-0.1,0c-0.1,0.1-0.4-0.2-0.3-0.4c0-0.1,0.1-0.2,0.1-0.4
			c0.5-1.1,1.4-4.3,1.6-6.1c0-0.3,0.1-0.6,0.1-0.6c0,0,0.9,0,2,0.1c1.1,0.1,2.2,0.2,2.6,0.2l0.7,0l0.1-0.7c0.1-0.8,0.1-7.7,0-8
			l-0.1-0.2l-1,0.1c-1.2,0.1-2.3,0.1-2.7,0.2c-0.2,0-0.6,0.1-0.9,0.1l-0.6,0.1l-0.1-0.5c0-0.3-0.1-0.6-0.1-0.6c-0.5-2.2-0.8-3.5-1-4
			c-0.1-0.1-0.1-0.4-0.2-0.6c-0.1-0.2-0.2-0.6-0.3-0.9l-0.2-0.5l1.7-0.8c0.9-0.5,2-1,2.3-1.2c0.9-0.4,0.9-0.3,0.3-1.5
			c-0.1-0.3-0.2-0.5-0.2-0.5c0,0,0,0,0-0.1c0-0.1-0.2-0.4-0.4-0.8c-0.2-0.4-0.5-0.9-0.6-1.1c-0.3-0.5-0.7-1.1-1-1.6
			c-0.1-0.2-0.2-0.4-0.3-0.4c0,0-0.2-0.2-0.3-0.5c-0.3-0.4-0.7-1-1-1.4l-0.2-0.2l-0.4,0.3c-0.4,0.3-2.6,1.8-3,2
			c-0.1,0-0.3,0.2-0.5,0.3c-0.5,0.3-0.5,0.3-0.7,0c-0.1-0.1-0.3-0.4-0.4-0.5c-0.1-0.1-0.4-0.5-0.7-0.8c-0.3-0.3-0.7-0.8-0.9-1
			c-0.8-0.7-1.4-1.3-1.4-1.3c0,0-0.1-0.1-0.3-0.2c-0.1-0.1-0.2-0.2-0.3-0.2C103.5,25.9,103.5,27.2,103.5,28.6 M103.5,76
			c0,1.4,0,1.8-0.1,1.8c-0.1,0-0.1,0,0,0.1c0.1,0.1,0.5-0.1,0.5-0.3c0-0.1,0-0.1,0.1-0.1c0.1,0,0.9-0.5,1.1-0.7
			c0.1-0.1,0.1-0.1,0.2-0.1c0.1,0-0.1-0.3-0.3-0.6c-0.2-0.3-0.4-0.6-0.4-0.7c0,0,0-0.1-0.1-0.1c0,0-0.1-0.1-0.1-0.2
			c0-0.1-0.1-0.2-0.2-0.4c-0.1-0.1-0.2-0.2-0.2-0.3c0-0.1-0.3-0.4-0.3-0.4C103.5,74.2,103.5,75,103.5,76"/>
		<path id="path4" class="st4" d="M72.6,20.6c0,0-0.1,0.1-0.2,0.1c-0.2,0-2.7,1.2-3.4,1.6c-0.2,0.1-0.6,0.4-0.8,0.5
			c-0.7,0.5-1.6,1-1.8,1.2c-0.1,0.1-0.4,0.3-0.8,0.6c-0.4,0.3-0.7,0.5-0.7,0.5c0,0-0.2,0.2-0.5,0.4c-0.7,0.6-1.2,1.1-1.2,1.2
			c0,0.1,0,0.1-0.1,0.1c0,0-0.1,0-0.1,0.1c0,0.1,0,0.1-0.1,0.1c-0.2-0.1-0.2-0.1-0.2,4.1c0,2.5,0,4-0.1,4c0,0,0,0.1,0,0
			c0.1,0,0.2,0,0.3,0.1s0.3,0.1,0.4,0.1c0.1,0,0.2,0,0.2,0.1s0.1,0.1,0.3,0.1c0.1,0,0.3,0.1,0.3,0.1c0,0,0.6,0.2,1.2,0.3l1.2,0.3
			l0,0.2c0,0.1-0.1,0.3-0.1,0.4c-0.1,0.2-0.8,3.1-0.9,3.9c-0.1,0.3-0.1,0.7-0.2,0.9c0,0.2-0.1,0.5-0.1,0.7c0,0.2-0.1,0.5-0.1,0.6
			c-0.1,0.8-0.3,3-0.3,3.8l0,0.3l-1.3,0c-0.9,0-1.2,0-0.8,0.1c0.3,0,0.4,0.1,0.2,0.1l-0.3,0v1.6v1.6l-1.9,0c-1,0-0.5,0,1.1,0l3,0
			l0,0.4c0,0.5,0.1,1.9,0.2,2.7c0,0.4,0.1,0.9,0.1,1.2c0,0.3,0.1,1,0.2,1.6c0.2,1.3,0.3,1.4,0.3,1.7c0,0.1,0.1,0.3,0.1,0.4
			c0,0.1,0.1,0.4,0.2,0.6c0.1,0.3,0.2,0.8,0.3,1.1c0.1,0.4,0.2,0.7,0.2,0.7c0,0,0.1,0.3,0.2,0.5c0.1,0.2,0.1,0.5,0.1,0.5
			c0,0.1,0,0.1-0.1,0.2c-0.3,0.1-1.9,0.5-2.1,0.6c-0.1,0-0.2,0.1-0.3,0.1c0,0-0.1,0.1-0.2,0.1c-0.3,0-0.9,0.3-0.9,0.3
			c0,0,0,0.1-0.1,0c-0.1,0-0.2,0-0.2,0.1c-0.1,0.1-0.1,7.2,0,7.2c0,0,0.1,0.1,0.1,0.2c0,0.1,0,0.1,0.1,0.1c0.1,0,0.1,0,0.1,0
			c-0.1,0.3,3.1,2.9,4.8,3.8c1.7,1,3.1,1.8,3.3,1.8c0.1,0,0.1,0,0.1,0.1c0,0,0,0.1,0.1,0.1c0.1,0,0.3,0.1,0.5,0.2
			c0.2,0.1,0.4,0.2,0.4,0.1c0,0,0.1,0,0.2,0.1c0.2,0.1,0.2,0.1,0.1,0c-0.1-0.1-0.1-9.5,0-9.5c0,0,0.1,0,0,0.1c0,0.1,0.2,0.4,0.3,0.4
			c0,0,0-0.1-0.1-0.1c-0.1-0.1-0.1-0.2-0.1-0.2s-0.1-0.1-0.2-0.2c-0.1-0.1-0.1-0.1-0.1-0.1c0.1,0,0.1,0,0-0.1c0,0-0.1-0.2-0.2-0.3
			c-0.1-0.2-0.2-0.4-0.3-0.5c-0.4-0.8-0.9-1.9-0.7-1.9c0.3,0,0.9-0.1,1-0.2c0.1,0,0.2-0.1,0.2-0.1c0,0,0-0.7,0-1.6
			c0-1.6,0-1.6-0.2-1.7c-0.1,0-0.2,0-0.2,0.1c0,0.1-0.1,0.1-0.2,0c-0.1,0-0.2,0-0.2,0c0,0-0.1,0.1-0.2,0c-0.1,0-0.3,0-0.4,0.1
			c-0.5,0.2-1.2,0.2-1.2,0c0-0.2,0-0.2-0.1-0.4c0-0.1-0.1-0.5-0.2-0.8c-0.1-0.3-0.2-0.8-0.3-1c-0.1-0.4-0.3-1.2-0.6-3
			c-0.2-0.9-0.4-3-0.5-4.4l-0.1-1l0.4,0c0.5,0,4.4-0.1,4.1-0.1l-0.3,0v-1.5v-1.5l0.3,0c0.3,0,0.3,0-0.1-0.1c-0.2,0-1.2-0.1-2.4-0.1
			l-2,0l0-0.5c0-1.9,0.6-5.8,1.2-8.3c0.4-1.6,0.2-1.4,1.5-1.2c0.5,0.1,0.8,0.1,1.1,0.1c0.2,0,0.3,0,0.3,0.1c0.1,0.1,0.2,0.1,0.2,0
			c0,0,0-0.1-0.1,0c0,0-0.1-0.6-0.1-1.6c0-1.3,0-1.7-0.1-1.7c-0.1,0-0.1,0-0.1,0c0,0-0.1,0-0.3-0.1c-0.5-0.1-0.5-0.1-0.6-0.1
			c-0.1,0-0.2,0-0.3,0c-0.1,0-0.1,0-0.1-0.1c0.2-0.5,1.3-2.8,1.4-2.8c0.1-0.1,0.3-0.6,0.3-0.5c-0.1,0-0.1-1.1-0.1-4.8
			C72.6,22.7,72.6,20.5,72.6,20.6C72.6,20.5,72.6,20.6,72.6,20.6 M72,25.7c0,0.1-0.1,0.1-0.1,0.1s-0.1,0.1-0.1,0.1
			c0,0.1,0,0.1-0.1,0.2c-0.1,0.1-0.9,1.1-0.9,1.2c0,0-0.1,0.2-0.3,0.4c-0.2,0.2-0.3,0.4-0.3,0.5c0,0,0,0.1-0.1,0.2
			c-0.3,0.3-1.8,3.3-2.2,4.4c-0.1,0.3-0.4,0.3-2.5-0.4c-0.4-0.1-0.8-0.3-1-0.3c-0.2,0-0.3-0.1-0.3-0.1c-0.1-0.1,1.4-1.6,2.4-2.5
			c1.4-1.3,2.6-2.2,4.4-3.3C72.1,25.5,72.1,25.5,72,25.7 M83.4,34.8c0.1,0,0.3,0,0.4,0c0.1,0,0,0-0.2,0
			C83.4,34.8,83.3,34.8,83.4,34.8 M72.8,63.8c0,0,0.1,0.1,0.2,0.1c0.1,0,0.1,0,0.1-0.1C73,63.8,72.9,63.8,72.8,63.8
			C72.8,63.8,72.8,63.8,72.8,63.8 M69.3,67.3c0.1,0.3,0.4,0.7,0.5,0.9c0.2,0.2,0.3,0.5,0.3,0.5c0,0,0.1,0.2,0.2,0.4
			c0.1,0.2,0.2,0.4,0.2,0.4c0,0,0.6,1,0.7,1.1c0,0,0.1,0.2,0.2,0.3c0.1,0.2,0.3,0.4,0.4,0.5l0.2,0.3l-0.4-0.2
			c-1.1-0.7-2.5-1.5-2.8-1.8c-0.2-0.2-0.5-0.4-0.6-0.5c-1.4-1.1-3.7-3.3-3.5-3.4c0.1-0.1,0.1-0.1,0.1-0.1c0,0,0.1,0,0.2,0
			c0.3-0.1,1.7-0.5,2.4-0.7l0.6-0.1l0.4,1C68.8,66.4,69.1,67,69.3,67.3"/>
	</g>
</g>
<g id="Layer_2">
	<path class="st0" d="M111.8,93.3c0,0.5,0,1.3,0.1,1.7l0.2,0.8l1.4,0c1.2,0,1.4,0,1.3-0.2c0-0.1-0.1-0.7-0.1-1.4
		c-0.1-1.9,0-1.8-1.5-1.8l-1.3,0L111.8,93.3"/>
	<path class="st0" d="M14.8,92.6c-0.1,0.2,0,2.4,0.2,2.8c0.1,0.3,0.2,0.3,1.5,0.3c1.2,0,1.4,0,1.3-0.2c-0.1-0.2-0.3-2.4-0.3-2.7
		c0-0.5,0-0.5-1.3-0.5C15.1,92.4,14.9,92.5,14.8,92.6"/>
	<path class="st0" d="M25.6,92.5c-0.1,0.1-0.1,1.5,0.1,2.4l0.1,0.8l1.4,0c1.3,0,1.4,0,1.3-0.2c-0.1-0.3-0.3-2.5-0.2-2.6
		C28.5,92.5,26,92.1,25.6,92.5"/>
	<path class="st0" d="M32.8,92.5c0,0.9-0.2,2.6-0.2,2.9l-0.1,0.4h1.3h1.3l0.2-0.5c0.1-0.3,0.2-1,0.2-1.7l0-1.1l-1.3,0
		C33.4,92.4,32.8,92.5,32.8,92.5"/>
	<polyline class="st0" points="37.9,94.1 38,95.7 39.3,95.8 40.6,95.8 40.5,94.2 40.5,92.5 39.2,92.5 37.9,92.4 37.9,94.1 	"/>
	<polyline class="st0" points="47.1,94.1 47.2,95.7 48.5,95.8 49.8,95.8 49.7,94.2 49.7,92.5 48.4,92.5 47.1,92.4 47.1,94.1 	"/>
	<path class="st0" d="M53.7,92.5c0,0,0,0.5-0.1,1.1c-0.1,1-0.2,1.5-0.4,2.1c-0.1,0.2,0.1,0.2,1.2,0.2c1,0,1.3,0,1.3,0.1
		c0,1,0.7-1.5,0.7-2.6l0-0.9h-1.3C54.3,92.4,53.7,92.5,53.7,92.5"/>
	<path class="st0" d="M58.9,92.5c0,0-0.1,0.8-0.1,1.7v1.6h1.3h1.3v-1.2v-1.2H62c0.8,0,1.2,0.2,1.4,0.7c0.2,0.4,0.2,0.5,0.7,0.5h0.5
		l0-1c0-0.5,0-1-0.1-1.1C64.4,92.5,59,92.4,58.9,92.5"/>
	<path class="st0" d="M68.5,92.5c-0.1,0.1-0.1,0.8-0.1,1.7v1.6l0.7-0.1l0.7-0.1v-1.6v-1.6l-0.6,0C68.8,92.4,68.5,92.5,68.5,92.5"/>
	<path class="st0" d="M70.9,92.5c0,0,0.4,0.8,0.9,1.7l1,1.6l1.9,0l1.9,0l0-1.6l0-1.6H76c-0.8,0-0.9,0.1-0.7,1.6
		c0.1,1.2,0.1,1.2-0.8-0.3c-0.7-1.3-0.7-1.3-2.2-1.3C71.5,92.4,70.9,92.5,70.9,92.5"/>
	<path class="st0" d="M83.4,94.1l0,1.6l1.3,0.1l1.3,0.1l0-0.8l0-0.8h0.4c0.6,0,1,0.3,1.4,1.2c0.2,0.4,0.4,0.7,0.4,0.6
		c0-0.1,0.4-0.2,1.3-0.2c0.9,0,1.4,0.1,1.5,0.2c0.1,0.1,0-0.1-0.1-0.4c-0.4-0.7-1.1-1.6-1.5-1.7c-0.3-0.1-0.2-0.1,0.2-0.3
		c0.5-0.2,1.3-0.8,1.3-1c0-0.3-2.4-0.1-2.8,0.2c-0.6,0.5-2.1,0.5-2.1,0.1c0-0.3-0.1-0.3-1.3-0.4l-1.3,0L83.4,94.1"/>
	<path class="st0" d="M94.5,94.1v1.6l1.3,0l1.3,0v-1.2l0-1.2h0.5c0.8,0,1.2,0.2,1.4,0.7c0.2,0.4,0.2,0.5,0.7,0.5h0.5v-1.1v-1.1
		l-2.9,0l-2.9,0V94.1"/>
	<path class="st0" d="M103.9,92.6c0,0.3,0.7,0.7,2.1,1.5c1.1,0.6,1.9,1.2,1.9,1.6c0,0.1,0.5,0.1,1.2,0.1l1.2-0.1l0-0.7
		c0-0.8-0.4-1.4-1.4-2.1l-0.6-0.4l-2.2,0C104.3,92.4,103.9,92.5,103.9,92.6"/>
	<path class="st0" d="M119,93.7c0,0.7-0.1,1.4-0.2,1.7l-0.1,0.4l1.3,0l1.3,0l0.1-0.5c0.1-0.3,0.2-1,0.2-1.7l0.1-1.2h-1.3h-1.3
		L119,93.7"/>
	<polyline class="st0" points="124,94.1 124,95.8 125.3,95.8 126.7,95.8 126.6,94.1 126.6,92.5 125.3,92.5 124,92.4 124,94.1 	"/>
	<path class="st0" d="M130.5,92.6c0,0.1-0.1,0.9-0.1,1.7v1.5h1h1v-1.7v-1.7h-0.9C130.7,92.4,130.5,92.5,130.5,92.6"/>
	<path class="st0" d="M135.4,94.1v1.7l1.3,0l1.3,0V95l0-0.8h0.5c0.5,0,1.1,0.5,1.4,1.2l0.2,0.4l1.5,0c0.8,0,1.5,0,1.5,0
		c0-0.3-1-1.6-1.5-1.9c-0.2-0.1-0.3-0.2-0.2-0.2c0.3,0,1.6-0.9,1.5-1.1c-0.2-0.3-2.1-0.1-2.8,0.2c-0.4,0.2-0.8,0.3-1.3,0.3
		c-0.6,0-0.7,0-0.8-0.3c-0.1-0.3-0.1-0.3-1.3-0.3h-1.3V94.1"/>
	<path class="st0" d="M145.3,92.9c-0.1,0.7,0.1,2.7,0.3,2.7c0.1,0,0.1,0.1,0.1,0.1c0,0,0.5,0.1,1.3,0c1.2,0,1.3-0.1,1.2-0.3
		c-0.1-0.1-0.1-0.9-0.2-1.7l-0.1-1.4h-1.3h-1.3L145.3,92.9"/>
	<path class="st0" d="M155.6,92.7c0,0.1-0.1,0.9-0.1,1.7l0,1.5l1.3,0l1.3,0v-1.1v-1.1h0.6c0.7,0,1.3,0.3,1.4,0.9
		c0.1,0.3,0.2,0.3,0.6,0.3h0.5l0-1.1l0-1.1l-2.8,0C156.1,92.5,155.7,92.5,155.6,92.7"/>
	<path class="st0" d="M20.1,93.8c0,0.2,0.1,0.4,0.3,0.5c0.4,0.2,0.5,0.4,0.5,1l0,0.5h1.3h1.3v-0.5c0-0.4,0.1-0.6,0.4-0.9
		c0.9-0.8,0.7-0.9-1.7-0.9h-2.1V93.8"/>
	<path class="st0" d="M43.8,95.3c-0.3,0.3,0,0.4,0.6,0.5c0.6,0,0.7,0,0.7-0.3C45.1,95.2,44.1,95.1,43.8,95.3"/>
	<path class="st0" d="M65,95.7c0.5,0.1,1.2,0.1,1.2,0c0-0.1-0.3-0.1-0.7-0.1C65.2,95.7,64.9,95.7,65,95.7"/>
	<path class="st0" d="M100.9,95.7c0.2,0,0.5,0,0.7,0c0.2,0,0-0.1-0.4-0.1C100.8,95.7,100.7,95.7,100.9,95.7"/>
	<path class="st0" d="M161.7,95.7c0,0.1,0.3,0.1,0.7,0.1c0.4,0,0.7,0,0.7-0.1c0-0.1-0.3-0.1-0.7-0.1C162,95.6,161.7,95.7,161.7,95.7
		"/>
	<path class="st0" d="M103.3,95.9c0.2,0,0.4,0,0.6,0c0.2,0,0-0.1-0.3-0.1C103.3,95.8,103.2,95.8,103.3,95.9"/>
	<path class="st0" d="M152.4,95.9c0.2,0,0.5,0,0.7,0c0.2,0,0-0.1-0.4-0.1S152.2,95.8,152.4,95.9"/>
	<path class="st1" d="M113.1,89.3c-0.7,0.7-1.6,3.1-1.3,3.4c0,0,0.1,0,0.1-0.1c0-0.2,2.5-0.2,2.6,0c0,0.1,0.1-0.1,0.1-0.4
		c0-1.4,0.6-2.8,1.3-3c0.3-0.1,0.1-0.1-1-0.2C113.5,88.9,113.5,88.9,113.1,89.3"/>
	<path class="st1" d="M130.4,90.8c0,1.1,0.1,1.9,0.1,1.8c0-0.1,0.4-0.2,1-0.2h0.9l0-1.4c0-0.8,0-1.6,0.1-1.7c0.1-0.3,0-0.3-1-0.3
		l-1.1,0L130.4,90.8"/>
	<path class="st1" d="M140.9,88.9l-1.6,0l0.6,0.3c0.9,0.5,1.3,1.7,0.9,2.8l-0.2,0.4l1.3,0c1.5,0,1.7-0.2,1.7-1.6
		C143.5,89.2,143.2,88.9,140.9,88.9"/>
	<path class="st1" d="M16,89.6c-0.5,0.6-1,1.5-1.1,2.4l-0.1,0.5l1.3,0c0.9,0,1.3,0,1.4,0.1c0.1,0.1,0.1-0.2,0.2-0.6
		c0.1-1.2,0.9-2.6,1.6-2.9C19.4,89,18.9,89,18,89l-1.5,0L16,89.6"/>
	<path class="st1" d="M21.1,89.1c0,0,0.1,0.2,0.3,0.3c0.2,0.1,0.4,0.5,0.5,0.7c0.1,0.4,0.2,0.5,0.8,0.5h0.7l0-0.5
		c0-1.1,0-1.1-1.2-1.1C21.6,89,21.1,89,21.1,89.1"/>
	<path class="st1" d="M26.9,89.3c-0.5,0.4-1,1.5-1.1,2.3c0,0.3-0.1,0.6-0.1,0.7c0,0.2,0.1,0.2,1.2,0.2c0.9,0,1.3,0,1.4,0.1
		c0.1,0.1,0.1-0.3,0.2-0.8c0.1-1.1,0.4-1.9,0.9-2.4c0.5-0.5,0.5-0.5-0.8-0.5C27.4,89,27.2,89,26.9,89.3"/>
	<path class="st1" d="M31.4,89.1c0,0.1,0.1,0.2,0.3,0.3c0.4,0.3,0.9,1.5,1,2.5c0,0.5,0.1,0.8,0.2,0.7c0.1-0.1,0.5-0.1,1.4-0.1l1.3,0
		l-0.1-0.6c-0.1-0.9-0.5-2-1-2.5L34.1,89h-1.3C32,89,31.4,89,31.4,89.1"/>
	<path class="st1" d="M37.9,89c0,0,0,0.8,0,1.7l0,1.7l1.3,0l1.3,0v-1.6c0-0.9,0-1.7,0-1.7C40.6,89,38,88.9,37.9,89"/>
	<path class="st1" d="M47.1,89c0,0,0,0.8,0,1.7l0,1.7l1.3,0l1.3,0l0-1.8V89h-1.3C47.7,89,47.1,89,47.1,89"/>
	<path class="st1" d="M51.2,89.1c0.1,0.1,0.3,0.1,0.4,0.1c0.7,0,2,1.9,2,2.9v0.3l1.4,0l1.4,0l-0.1-0.6c-0.1-0.9-0.6-1.8-1.1-2.3
		L54.8,89l-1.9,0C51.6,89,51.1,89,51.2,89.1"/>
	<path class="st1" d="M58.8,89c0,0,0,0.8,0,1.8l0,1.7h1.3h1.3v-1.8V89h-1.3C59.4,89,58.8,89,58.8,89"/>
	<path class="st1" d="M64.1,89.3c0.2,0.2,0.4,0.6,0.6,0.8c0.2,0.4,0.3,0.4,0.8,0.4h0.6v-0.8V89H65h-1.2L64.1,89.3"/>
	<path class="st1" d="M68.3,89.2c0,0.1,0.1,0.9,0.1,1.8v1.6h0.7h0.7l0-0.7l0-0.7l0.4,0.7l0.4,0.7l1.5,0c0.8,0,1.5,0,1.5-0.1
		c0,0-0.5-0.8-1.1-1.8L71.5,89h-1.7C68.4,89,68.2,89,68.3,89.2"/>
	<path class="st1" d="M75.1,90.9c0,1,0.1,1.8,0.1,1.7c0-0.1,0.3-0.2,0.7-0.2h0.7l0-1.4c0-0.8,0-1.6,0.1-1.7c0.1-0.3,0-0.3-0.8-0.3
		l-0.8,0L75.1,90.9"/>
	<path class="st1" d="M83.3,89.3c0,0.2,0.1,0.9,0.1,1.7l0,1.4l1.3,0l1.3,0l0-1.8l0-1.8h-1.4C83.3,89,83.2,89,83.3,89.3"/>
	<path class="st1" d="M87.6,89.1c1.1,0.4,1.5,1.5,1.1,2.9l-0.1,0.4h1.2c1.4,0,1.6-0.1,1.6-1.4c0-0.7,0-0.9-0.3-1.4L90.9,89l-1.9,0
		C87.6,89,87.3,89,87.6,89.1"/>
	<path class="st1" d="M94.4,89.5c0,0.3,0.1,1,0.1,1.7l0,1.2l1.3,0l1.3,0l0-1.5c0-2.2,0.1-2.1-1.5-2.1h-1.3L94.4,89.5"/>
	<path class="st1" d="M99.6,89.2c0.2,0.1,0.5,0.5,0.7,0.8c0.2,0.5,0.3,0.6,0.9,0.6h0.6l0-0.5c0-1.1,0-1.1-1.4-1.1l-1.2,0L99.6,89.2"
		/>
	<path class="st1" d="M103.6,89.4c-0.4,0.6-0.5,2-0.2,2.6l0.2,0.4l2.3,0c1.3,0,2.3,0,2.3,0c0,0-0.4-0.2-0.9-0.5
		c-1.6-0.8-2.1-1.9-1.2-2.7l0.4-0.3h-1.3h-1.3L103.6,89.4"/>
	<path class="st1" d="M108.4,89.3c0.2,0.2,0.5,0.5,0.6,0.8c0.1,0.4,0.2,0.5,0.7,0.5h0.6v-0.8V89h-1.1H108L108.4,89.3"/>
	<path class="st1" d="M117.6,89.1c0,0.1,0.1,0.2,0.3,0.3c0.4,0.2,0.9,1.4,1,2.4l0.1,0.8l1.4,0l1.4,0l-0.1-0.6
		c-0.1-0.9-0.5-1.9-1-2.4l-0.4-0.4h-1.3C118.2,89,117.6,89,117.6,89.1"/>
	<path class="st1" d="M123.9,89.3c0,0.2,0.1,0.9,0.1,1.7l0,1.4l1.3,0l1.3,0v-1.8l0-1.8h-1.4C123.8,89,123.8,89,123.9,89.3"/>
	<path class="st1" d="M135.4,89.3c0,0.2,0.1,0.9,0.1,1.7l0,1.4h1.3c0.9,0,1.3,0,1.3,0.2c0.1,0.2,0.1-3,0-3.3
		c-0.1-0.3-0.1-0.3-1.4-0.3C135.3,89,135.3,89,135.4,89.3"/>
	<path class="st1" d="M146.6,89.3c-0.5,0.4-1.2,1.8-1.3,2.6l-0.1,0.6h1.3h1.3l0.1-0.5c0.2-1.1,0.5-1.8,1-2.3
		c0.3-0.3,0.5-0.5,0.5-0.6C149.5,88.8,147,89,146.6,89.3"/>
	<path class="st1" d="M151.3,89.2c0.2,0.1,0.5,0.4,0.6,0.8c0.2,0.6,0.3,0.6,0.9,0.6l0.6,0l0-0.5c0-1.1,0-1.1-1.3-1.1
		C151,89,151,89,151.3,89.2"/>
	<path class="st1" d="M155.5,90.9c0,1,0,1.8,0.1,1.7c0-0.1,0.4-0.2,1.3-0.2h1.3v-1.7V89h-1.3h-1.3L155.5,90.9"/>
	<path class="st1" d="M160.9,89.3c0.2,0.2,0.4,0.6,0.5,0.8c0.2,0.4,0.2,0.4,0.8,0.4h0.6v-0.8V89h-1.1h-1.1L160.9,89.3"/>
	<path class="st1" d="M63.5,91.7c0,0.1-0.1,0.3-0.3,0.5L63,92.5l0.7,0c0.5,0,0.8,0,0.8,0.1c0.1,0.1,0.1-0.1,0.1-0.5l0-0.6H64
		C63.6,91.5,63.5,91.6,63.5,91.7"/>
	<path class="st1" d="M98.9,92l-0.2,0.5h0.7h0.7V92c0-0.5,0-0.5-0.5-0.5C99.2,91.5,99.1,91.6,98.9,92"/>
	<path class="st1" d="M160.2,91.7c0,0.1-0.2,0.3-0.3,0.5c-0.2,0.2-0.1,0.2,0.6,0.3l0.8,0l0-0.5C161.4,91.4,160.4,91.2,160.2,91.7"/>
	<path class="st3" d="M18.4,88.1c-0.4,0.1-1,0.3-1.3,0.5L16.5,89l1.5,0c0.8,0,2.3,0,3.3,0c1.7,0,1.9,0,1.9,0.2c0,0.1,0.1,0,0.1-0.3
		l0-0.6l-0.7-0.2C21.5,87.9,19.2,87.9,18.4,88.1"/>
	<path class="st3" d="M29,88.1c-0.5,0.1-1.9,0.8-1.9,0.9c0,0,2.6,0,3.4,0c0.3,0,0.6,0,0.6,0c0.7,0.2,3,0,2.8-0.2
		C32.9,88.1,30.5,87.7,29,88.1"/>
	<path class="st3" d="M105.7,88.1c-0.4,0.1-0.7,0.2-0.7,0.2c0,0-0.3,0.1-0.5,0.3l-0.5,0.3l1.9,0.1c1.1,0,2.5,0,3.2,0l1.2,0v-0.4
		C110.3,88,107.3,87.7,105.7,88.1"/>
	<path class="st3" d="M115.3,88.1c-0.8,0.2-1.8,0.8-1.5,0.8c0.2,0,6.7,0.1,6.7,0.1c0,0-0.3-0.2-0.7-0.4
		C118.5,87.9,116.8,87.7,115.3,88.1"/>
	<path class="st3" d="M148.8,88.1c-0.6,0.2-1.9,0.8-1.9,0.9c0,0,2.8,0,2.9-0.1c0.2-0.2,3.5,0.1,3.6,0.3c0,0.1,0.1,0,0-0.4l0-0.6
		l-0.9-0.2C151.3,87.9,149.6,87.9,148.8,88.1"/>
	<path class="st3" d="M37,88.4c0,0.2,0.1,0.3,0.2,0.3c0.1,0,0.3,0.1,0.4,0.1c0.1,0.1,0.8,0.1,1.6,0.1c0.9,0,1.6-0.1,1.6-0.1
		c0.1-0.1,0.3-0.1,0.4-0.1c0.2,0,0.2-0.1,0.2-0.3V88h-2.3H37V88.4"/>
	<path class="st3" d="M46.2,88.3c0,0.6,0.6,0.7,4.7,0.7c2.1,0,3.8,0,3.8,0c0-0.1-1.3-0.6-2-0.8C51.2,87.9,46.2,88,46.2,88.3"/>
	<path class="st3" d="M57.9,88.4c0,0.2,0.1,0.3,0.2,0.3c0.1,0,0.3,0.1,0.4,0.1c0.1,0.1,4.3,0.3,6.4,0.2l1.2-0.1v-0.5V88H62h-4.1
		V88.4"/>
	<path class="st3" d="M67.6,88.3c0,0.5,0.6,0.6,2.3,0.6l1.5,0l-0.2-0.4L71,88h-1.7C67.6,88,67.6,88,67.6,88.3"/>
	<path class="st3" d="M74.4,88.3c0,0.4,0.5,0.6,1.6,0.6c1.1,0,1.6-0.2,1.6-0.6c0-0.3,0-0.3-1.6-0.3C74.4,88,74.4,88,74.4,88.3"/>
	<path class="st3" d="M82.5,88.3c0,0.7,0.4,0.7,4.4,0.7c4.2,0,4.1,0,3.1-0.5l-0.8-0.4l-3.4,0C82.6,88,82.5,88,82.5,88.3"/>
	<path class="st3" d="M93.5,88.4c0,0.2,0.1,0.3,0.2,0.3c0.1,0,0.2,0.1,0.3,0.2c0.1,0.1,0.7,0.1,1.6,0.1c1.3,0,1.4,0,1.4,0.2
		c0,0.2,0,0.2,0.1,0.1c0.2-0.3,4.5-0.4,4.6-0.1c0,0.1,0.1-0.1,0.1-0.4l0-0.7h-4.1h-4.1V88.4"/>
	<path class="st3" d="M123.1,88.3c0,0.6,3.4,1.1,3.9,0.6c0.1-0.1,0.2-0.1,0.3-0.1c0.1,0,0.2-0.1,0.2-0.3V88h-2.2
		C123.2,88,123.1,88.1,123.1,88.3"/>
	<path class="st3" d="M129.6,88.4c0,0.6,2.6,1,3.4,0.4c0.9-0.6,0.5-0.7-1.5-0.7h-1.9V88.4"/>
	<path class="st3" d="M134.5,88.4c0,0.2,0.1,0.3,0.2,0.3c0.1,0,0.2,0.1,0.3,0.2c0.1,0.1,0.7,0.1,1.6,0.1c1.3,0,1.4,0,1.4,0.2
		c0,0.2,0,0.2,0.1,0.1c0.1-0.2,4.5-0.4,4.7-0.2c0.1,0.1,0.1,0,0-0.1c-0.5-0.7-1.3-0.8-4.9-0.9l-3.4,0V88.4"/>
	<path class="st3" d="M154.7,88.4c0,0.6,2.5,0.8,6.9,0.7l1.2-0.1v-0.5V88h-4.1h-4.1V88.4"/>
	<path class="st4" d="M37.9,96.5c0,0.8-0.3,1.3-0.7,1.3c-0.1,0-0.2,0.1-0.2,0.3v0.3h4h4l0.1-1.2c0.1-1.5,0.1-1.4-0.6-1.4
		c-0.6,0-0.6,0-0.8,0.5c-0.3,0.9-0.7,1.1-1.9,1.1h-1l0-0.8l0-0.8l-1.3-0.1l-1.3-0.1V96.5"/>
	<path class="st4" d="M47.1,96.5c0,0.8-0.3,1.3-0.7,1.3c-0.1,0-0.2,0.1-0.2,0.3v0.3l2.8,0c3.9,0,5-0.3,6.2-1.6
		c0.9-0.9,0.8-1.1-0.6-1.1h-1.2l-0.4,0.6c-0.5,0.6-1.3,1-2.1,1.1c-1.1,0.1-1,0.1-1.1-0.8l0-0.8l-1.3-0.1l-1.3-0.1L47.1,96.5"/>
	<path class="st4" d="M69.1,95.8l-0.7,0.1l-0.1,0.7c-0.1,0.8-0.3,1.2-0.6,1.2c-0.1,0-0.2,0.1-0.2,0.3v0.3h1.6h1.6v-0.3
		c0-0.2-0.1-0.3-0.2-0.3c-0.5,0-0.7-0.4-0.8-1.2l-0.1-0.8L69.1,95.8"/>
	<path class="st4" d="M74.7,95.7l-1.9,0l0.8,1.3l0.8,1.3l1.1,0l1.1,0V97c0-0.8,0-1.4,0-1.4C76.6,95.7,75.7,95.7,74.7,95.7"/>
	<path class="st4" d="M83.4,96.3c0,0.8-0.2,1.3-0.6,1.4c-0.2,0.1-0.3,0.2-0.3,0.4v0.3h2.2h2.2v-0.3c0-0.2-0.1-0.3-0.2-0.3
		c-0.4,0-0.6-0.5-0.6-1.2l0-0.7l-1.3-0.1l-1.3-0.1L83.4,96.3"/>
	<path class="st4" d="M109.2,95.8l-1.2,0.1l-0.1,0.5c-0.2,1.5-2.6,1.6-3.3,0.1c-0.3-0.6-0.3-0.6-0.9-0.6l-0.6,0v1.2v1.2l0.4,0.1
		c3.5,0.6,6.1,0,6.7-1.7C110.6,95.7,110.5,95.7,109.2,95.8"/>
	<path class="st4" d="M145.6,96c0.4,2,3.3,3,6.8,2.4l0.9-0.2l0-1.2l0-1.2h-0.7c-0.6,0-0.7,0-0.8,0.5c-0.5,1.6-2.9,1.5-3.6-0.2
		C148.1,95.7,145.5,95.5,145.6,96"/>
	<path class="st4" d="M15.1,95.9c0,1.8,3.5,3.2,5.9,2.4c0.7-0.3,0.8-0.3,1,0c0.2,0.2,0.3,0.2,0.8,0.1l0.6-0.1v-1.3v-1.3h-1.3h-1.3
		l-0.1,0.6c-0.3,1.5-2,1.5-2.9-0.1l-0.3-0.5l-1.3,0C15.6,95.8,15.1,95.8,15.1,95.9"/>
	<path class="st4" d="M25.9,95.9c0,0.1,0.2,0.5,0.4,0.8c1.6,2.4,6.7,2.4,8.2-0.1c0.6-0.9,0.5-0.9-0.8-0.9h-1.2l-0.3,0.5
		c-0.8,1.6-2.6,1.7-3.5,0.1l-0.3-0.6l-1.3,0C26.2,95.8,25.9,95.8,25.9,95.9"/>
	<path class="st4" d="M58.9,95.8c-0.1,0.1-0.1,0.4-0.1,0.7c0,0.7-0.3,1.2-0.7,1.2c-0.1,0-0.2,0.1-0.2,0.3v0.3H62h4.1l0-1.1
		c0-0.6,0-1.2,0-1.3c0-0.5-1.2-0.3-1.5,0.4c-0.4,0.9-0.8,1-2.1,1.1l-1.1,0.1l0-0.8l0-0.8l-1.2,0C59.5,95.8,58.9,95.8,58.9,95.8"/>
	<path class="st4" d="M88.3,96c0,0.2,0.4,1.1,0.9,1.9l0.4,0.6l1.6,0l1.6,0v-0.3c0-0.2-0.1-0.3-0.2-0.3c-0.2,0-0.9-0.8-1.3-1.5
		l-0.3-0.4l-1.4,0C88.5,95.8,88.3,95.8,88.3,96"/>
	<path class="st4" d="M94.5,96.1c0,0.9-0.2,1.4-0.5,1.5c-0.3,0.1-0.4,0.3-0.4,0.5v0.3h4h4l0.1-0.7c0-0.4,0.1-1,0.1-1.3l0-0.6h-0.6
		c-0.6,0-0.6,0-0.8,0.4c-0.3,0.9-0.8,1.2-2.1,1.3l-1.1,0.1l0-0.8l0-0.8l-1.3,0l-1.3,0L94.5,96.1"/>
	<path class="st4" d="M112.2,95.9c-0.1,0.1,0.2,0.7,0.7,1.3c1.5,2,6.3,1.8,7.8-0.3c0.7-1,0.7-1.1-0.8-1.1h-1.2l-0.2,0.5
		c-0.6,1.6-2.7,1.7-3.5,0.2l-0.3-0.6l-1.2,0C112.9,95.8,112.3,95.8,112.2,95.9"/>
	<path class="st4" d="M124.1,96.1c0.4,1.7,1.6,2.4,4.2,2.4c2.6,0,3.6-0.6,4.1-2.4l0.1-0.4h-1h-1l-0.2,0.7c-0.6,1.6-3,1.5-3.4-0.1
		l-0.1-0.5h-1.3H124L124.1,96.1"/>
	<path class="st4" d="M135.4,96.2c0,0.9-0.1,1.3-0.5,1.4c-0.3,0.1-0.4,0.3-0.4,0.5c0,0.3,0,0.3,2.2,0.3h2.2v-0.3
		c0-0.2-0.1-0.3-0.2-0.3c-0.4,0-0.6-0.3-0.6-1.1l-0.1-0.8l-1.3,0l-1.3,0V96.2"/>
	<path class="st4" d="M140.2,95.9c0,0.1,0.3,0.6,0.6,1.3l0.6,1.2l1.7,0c1.7,0,1.7,0,1.7-0.3c0-0.2-0.1-0.4-0.4-0.5
		c-0.3-0.1-0.5-0.4-0.8-0.9c-0.2-0.4-0.5-0.8-0.5-0.9C143,95.7,140.2,95.7,140.2,95.9"/>
	<path class="st4" d="M155.6,95.9c0,0-0.1,0.4-0.1,0.8c0,0.7-0.3,1.1-0.6,1.1c-0.1,0-0.2,0.1-0.2,0.3v0.3h4h4l0.1-1.2
		c0.1-1.4,0.1-1.5-0.6-1.5c-0.5,0-0.6,0.1-0.8,0.4c-0.6,1.1-0.8,1.2-2.1,1.3l-1.2,0.1v-0.9v-0.9H157
		C156.3,95.8,155.7,95.8,155.6,95.9"/>
</g>
</svg>
