<?xml version="1.0" encoding="utf-8"?>
<!-- Generator: Adobe Illustrator 15.1.0, SVG Export Plug-In . SVG Version: 6.00 Build 0)  -->
<!DOCTYPE svg PUBLIC "-//W3C//DTD SVG 1.1//EN" "http://www.w3.org/Graphics/SVG/1.1/DTD/svg11.dtd">
<svg version="1.1" id="Layer_1" xmlns="http://www.w3.org/2000/svg" xmlns:xlink="http://www.w3.org/1999/xlink" x="0px" y="0px"
	 width="60px" height="55px" viewBox="0 0 60 55" enable-background="new 0 0 60 55" xml:space="preserve">
<g>
	<g>
		<g>
			<g>
				<path fill="#231F20" d="M9.616,50.959H5.103l-0.078-0.124c-0.049-0.076-4.811-7.789-2.929-20.493l0.034-0.228h7.368
					c0.038,0.002,2.038,0.161,2.038,2.392v16.179C11.489,49.481,11.029,50.959,9.616,50.959z M5.401,50.427h4.215
					c1.27,0,1.386-1.739,1.387-1.758l0-16.163c0-1.725-1.461-1.855-1.523-1.859H2.59C0.949,42.153,4.812,49.404,5.401,50.427z"/>
			</g>
			<g>
				<rect x="6.988" y="30.499" fill="#231F20" width="0.532" height="19.957"/>
			</g>
			<g>
				<path fill="#231F20" d="M25.559,44.109v-0.532h13.816c1.758-0.314,2.202-2.193,2.221-2.272c0.061-0.999-0.176-1.797-0.711-2.331
					c-0.848-0.848-2.187-0.77-2.2-0.77l-8.783,0.001l-0.079-0.122c-5.04-7.789-18.369-5.341-18.503-5.315l-0.1-0.523
					c0.137-0.025,13.68-2.512,18.97,5.428h8.461c0.062-0.003,1.584-0.098,2.606,0.921c0.651,0.648,0.941,1.586,0.864,2.787
					c-0.026,0.135-0.541,2.345-2.699,2.726L25.559,44.109z"/>
			</g>
			<g>
				<path fill="#231F20" d="M32.18,53.617c-1.215,0-2.573-0.209-4.005-0.788l-16.867-5.307l0.16-0.508l16.887,5.313
					c4.79,1.938,8.831-0.536,8.872-0.562l19.524-10.704c0.334-1.054,0.287-1.832-0.138-2.314c-0.833-0.944-2.876-0.552-2.896-0.549
					l-12.242,4.477l-0.183-0.5l12.281-4.487c0.136-0.029,2.401-0.468,3.438,0.706c0.574,0.649,0.645,1.638,0.213,2.936l-0.033,0.099
					l-0.092,0.05L37.496,52.226C37.381,52.298,35.233,53.617,32.18,53.617z"/>
			</g>
		</g>
		<g>
			<g>
				<path fill="#231F20" d="M30.838,36.099l-1.616-5.417h1.646l0.516,2.234c0.151,0.643,0.293,1.342,0.404,1.889h0.02
					c0.111-0.587,0.272-1.238,0.445-1.905l0.575-2.218h1.637l0.545,2.282c0.151,0.635,0.263,1.214,0.364,1.816h0.021
					c0.101-0.603,0.252-1.237,0.394-1.881l0.555-2.218h1.566l-1.757,5.417h-1.668l-0.575-2.331
					c-0.131-0.547-0.242-1.053-0.323-1.672h-0.021c-0.121,0.611-0.232,1.125-0.394,1.672l-0.646,2.331H30.838z"/>
			</g>
			<g>
				<path fill="#231F20" d="M39.861,36.099l-1.616-5.417h1.646l0.516,2.234c0.151,0.643,0.292,1.342,0.403,1.889h0.021
					c0.111-0.587,0.272-1.238,0.445-1.905l0.575-2.218h1.637l0.545,2.282c0.151,0.635,0.263,1.214,0.363,1.816h0.021
					c0.102-0.603,0.253-1.237,0.395-1.881l0.556-2.218h1.565l-1.758,5.417h-1.667l-0.576-2.331
					c-0.131-0.547-0.242-1.053-0.322-1.672h-0.021c-0.121,0.611-0.232,1.125-0.394,1.672l-0.646,2.331H39.861z"/>
			</g>
			<g>
				<path fill="#231F20" d="M48.885,36.099l-1.616-5.417h1.646l0.515,2.234c0.152,0.643,0.293,1.342,0.404,1.889h0.021
					c0.111-0.587,0.272-1.238,0.444-1.905l0.576-2.218h1.637l0.545,2.282c0.151,0.635,0.263,1.214,0.364,1.816h0.02
					c0.101-0.603,0.253-1.237,0.394-1.881l0.556-2.218h1.565l-1.758,5.417h-1.666l-0.576-2.331
					c-0.131-0.547-0.242-1.053-0.322-1.672h-0.021c-0.12,0.611-0.231,1.125-0.393,1.672l-0.647,2.331H48.885z"/>
			</g>
		</g>
		<g>
			<g>
				<path fill="#231F20" d="M22.773,31.082c-0.864,0.104-1.56-0.337-1.909-1.21c-0.589-1.474-3.413-8.505-3.413-8.505
					c-0.011-0.026-0.314-0.765-0.005-1.469c0.189-0.43,0.555-0.746,1.087-0.938c1.295-0.467,15.072-6.022,15.211-6.079
					c0.029-0.01,0.147-0.045,0.331-0.067c0.893-0.108,1.576,0.262,1.877,1.015c0.458,1.149,3.56,8.836,3.56,8.836
					c0.149,0.596,0.128,1.751-0.931,2.174l-15.347,6.131C23.218,30.979,23.036,31.05,22.773,31.082z M34.154,13.461
					c-0.112,0.014-0.188,0.034-0.198,0.036c-0.536,0.219-13.893,5.605-15.201,6.076c-0.357,0.129-0.597,0.327-0.71,0.587
					c-0.195,0.443,0.008,0.954,0.01,0.959c0.002,0.005,2.827,7.035,3.416,8.511c0.241,0.604,0.653,0.875,1.224,0.806
					c0.175-0.021,0.296-0.068,0.297-0.068l15.347-6.135c0.793-0.316,0.565-1.323,0.555-1.369c-0.004,0-3.089-7.647-3.547-8.793
					C35.11,13.476,34.567,13.412,34.154,13.461z"/>
			</g>
			<g>
				
					<rect x="23.599" y="21.279" transform="matrix(0.918 0.3965 -0.3965 0.918 12.3388 -7.3417)" fill="#231F20" width="0.653" height="9.782"/>
			</g>
			<g>
				
					<rect x="29.84" y="21.456" transform="matrix(0.912 0.4103 -0.4103 0.912 11.9941 -12.3279)" fill="#231F20" width="9.765" height="0.653"/>
			</g>
			<g>
				<polygon fill="#231F20" points="28.618,22.332 17.838,20.262 17.961,19.62 28.342,21.615 34.729,13.118 35.251,13.51 				"/>
			</g>
		</g>
	</g>
</g>
</svg>
