<?xml version="1.0" encoding="utf-8"?>
<!-- Generator: Adobe Illustrator 15.1.0, SVG Export Plug-In . SVG Version: 6.00 Build 0)  -->
<!DOCTYPE svg PUBLIC "-//W3C//DTD SVG 1.1//EN" "http://www.w3.org/Graphics/SVG/1.1/DTD/svg11.dtd">
<svg version="1.1" id="Layer_1" xmlns="http://www.w3.org/2000/svg" xmlns:xlink="http://www.w3.org/1999/xlink" x="0px" y="0px"
	 width="60px" height="55px" viewBox="0 0 60 55" enable-background="new 0 0 60 55" xml:space="preserve">
<g>
	<g>
		<path fill="#231F20" d="M30.215,15.27c-3.316,0-6.014-2.697-6.014-6.013c0-3.316,2.697-6.013,6.014-6.013
			c3.315,0,6.012,2.697,6.012,6.013C36.227,12.573,33.53,15.27,30.215,15.27z M30.215,3.82c-2.999,0-5.438,2.439-5.438,5.438
			c0,2.998,2.438,5.437,5.438,5.437c2.997,0,5.437-2.438,5.437-5.437C35.651,6.259,33.212,3.82,30.215,3.82z"/>
	</g>
	<g>
		<path fill="#231F20" d="M30.212,53.902c-3.185,0-5.776-2.593-5.776-5.78c0-2.532,1.662-4.766,4.068-5.511v-0.798
			c-3.775-0.343-7.368-1.7-10.174-3.845l-0.925,0.903c0.205,0.602,0.308,1.222,0.308,1.844c0,3.186-2.593,5.779-5.779,5.779
			c-3.185,0-5.775-2.594-5.775-5.779s2.591-5.775,5.775-5.775c1.163,0,2.278,0.345,3.24,1l0.51-0.498
			c-0.372-0.445-0.696-0.881-0.988-1.324l-0.14-0.212l2.752-2.348l0.188,0.207c3.215,3.538,7.893,5.567,12.836,5.567
			c4.839,0,9.449-1.957,12.651-5.369l0.164-0.175l3.233,2.085l-0.159,0.243c-0.27,0.408-0.572,0.816-0.924,1.241l0.609,0.596
			c0.966-0.664,2.089-1.014,3.26-1.014c3.185,0,5.775,2.59,5.775,5.775s-2.591,5.779-5.775,5.779c-3.186,0-5.776-2.594-5.776-5.779
			c0-0.613,0.1-1.224,0.299-1.817l-1.021-0.996c-2.892,2.237-6.604,3.629-10.51,3.937v0.846c2.3,0.819,3.831,2.979,3.831,5.438
			C35.99,51.31,33.398,53.902,30.212,53.902z M18.288,37.205l0.198,0.156c2.811,2.215,6.478,3.601,10.328,3.901l0.267,0.021v1.765
			l-0.214,0.058c-2.269,0.608-3.854,2.671-3.854,5.017c0,2.869,2.333,5.203,5.199,5.203c2.869,0,5.203-2.334,5.203-5.203
			c0-2.277-1.459-4.269-3.631-4.956l-0.201-0.063v-1.801l0.269-0.018c3.979-0.263,7.766-1.68,10.659-3.989l0.198-0.158l1.647,1.607
			l-0.065,0.176c-0.215,0.587-0.325,1.19-0.325,1.796c0,2.87,2.333,5.204,5.201,5.204c2.866,0,5.2-2.334,5.2-5.204
			c0-2.867-2.334-5.199-5.2-5.199c-1.128,0-2.206,0.36-3.115,1.042l-0.197,0.148l-1.342-1.312l0.174-0.205
			c0.338-0.396,0.631-0.774,0.892-1.15l-2.341-1.508c-3.303,3.42-7.991,5.377-12.905,5.377c-5.009,0-9.757-2.021-13.073-5.551
			l-1.941,1.654c0.288,0.418,0.609,0.833,0.977,1.261l0.176,0.204l-1.243,1.215l-0.197-0.147c-0.906-0.673-1.978-1.028-3.098-1.028
			c-2.867,0-5.199,2.332-5.199,5.199c0,2.87,2.332,5.204,5.199,5.204c2.869,0,5.204-2.334,5.204-5.204
			c0-0.615-0.113-1.229-0.335-1.82l-0.066-0.176L18.288,37.205z M30.213,50.819c-1.486,0-2.695-1.21-2.695-2.696
			c0-1.485,1.209-2.694,2.695-2.694s2.695,1.209,2.695,2.694C32.908,49.609,31.699,50.819,30.213,50.819z M30.213,46.004
			c-1.169,0-2.12,0.951-2.12,2.119c0,1.169,0.951,2.12,2.12,2.12s2.12-0.951,2.12-2.12C32.333,46.955,31.382,46.004,30.213,46.004z
			 M49.166,43.413c-1.486,0-2.696-1.209-2.696-2.695c0-1.487,1.21-2.696,2.696-2.696s2.695,1.209,2.695,2.696
			C51.861,42.204,50.652,43.413,49.166,43.413z M49.166,38.597c-1.17,0-2.12,0.952-2.12,2.121c0,1.168,0.95,2.12,2.12,2.12
			c1.169,0,2.119-0.952,2.119-2.12C51.285,39.549,50.335,38.597,49.166,38.597z M11.935,43.413c-1.486,0-2.696-1.209-2.696-2.695
			c0-1.487,1.209-2.696,2.696-2.696s2.695,1.209,2.695,2.696C14.63,42.204,13.421,43.413,11.935,43.413z M11.935,38.597
			c-1.169,0-2.12,0.952-2.12,2.121c0,1.168,0.951,2.12,2.12,2.12c1.168,0,2.119-0.952,2.119-2.12
			C14.054,39.549,13.104,38.597,11.935,38.597z"/>
	</g>
	<g>
		<path fill="#231F20" d="M30.454,35.384c-8.799,0-10.909-4.393-10.995-4.58l-0.025-0.12V19.817l0.035-0.064
			c1.698-3.108,4.782-3.76,7.07-3.76c0.724,0,1.336,0.068,1.723,0.125l0.147,0.022l1.169,2.324l-1.156,8.817l1.846,2.398
			l1.709-2.706l-0.893-8.341L32.242,16l0.17-0.014c0.489-0.042,0.965-0.063,1.418-0.063c6.707,0,7.313,4.571,7.318,4.618
			l0.002,10.266l-0.039,0.067c-2.544,4.368-9.974,4.504-10.288,4.507L30.454,35.384z M20.01,30.614
			c0.262,0.481,2.551,4.193,10.444,4.193l0.361-0.003c0.075-0.001,7.34-0.134,9.76-4.154V20.574
			c-0.019-0.134-0.57-4.075-6.745-4.075c-0.385,0-0.787,0.016-1.198,0.046l-0.959,2.178l0.896,8.387l-2.255,3.572l-2.494-3.24
			l1.164-8.878l-0.954-1.897c-0.367-0.048-0.888-0.098-1.491-0.098c-2.117,0-4.96,0.591-6.529,3.397V30.614z"/>
	</g>
</g>
</svg>
