<?xml version="1.0" encoding="utf-8"?>
<!-- Generator: Adobe Illustrator 15.1.0, SVG Export Plug-In . SVG Version: 6.00 Build 0)  -->
<!DOCTYPE svg PUBLIC "-//W3C//DTD SVG 1.1//EN" "http://www.w3.org/Graphics/SVG/1.1/DTD/svg11.dtd">
<svg version="1.1" id="Layer_1" xmlns="http://www.w3.org/2000/svg" xmlns:xlink="http://www.w3.org/1999/xlink" x="0px" y="0px"
	 width="60px" height="55px" viewBox="0 0 60 55" enable-background="new 0 0 60 55" xml:space="preserve">
<g>
	<g>
		<path fill="#9F365E" d="M30.215,15.27c-3.316,0-6.014-2.697-6.014-6.013c0-3.316,2.697-6.013,6.014-6.013
			c3.314,0,6.012,2.697,6.012,6.013C36.227,12.573,33.529,15.27,30.215,15.27z M30.215,3.82c-2.999,0-5.438,2.439-5.438,5.438
			c0,2.998,2.438,5.437,5.438,5.437c2.997,0,5.438-2.438,5.438-5.437C35.65,6.259,33.212,3.82,30.215,3.82z"/>
	</g>
	<g>
		<path fill="#9F365E" d="M30.212,53.902c-3.185,0-5.776-2.594-5.776-5.78c0-2.532,1.662-4.767,4.068-5.511v-0.799
			c-3.775-0.344-7.368-1.699-10.174-3.846l-0.925,0.903c0.205,0.603,0.308,1.222,0.308,1.844c0,3.187-2.593,5.779-5.779,5.779
			c-3.185,0-5.775-2.595-5.775-5.779s2.591-5.774,5.775-5.774c1.163,0,2.278,0.346,3.24,1l0.51-0.498
			c-0.372-0.444-0.696-0.881-0.988-1.323l-0.14-0.212l2.752-2.348l0.188,0.207c3.215,3.536,7.893,5.565,12.836,5.565
			c4.839,0,9.449-1.957,12.65-5.369l0.164-0.175l3.232,2.085l-0.158,0.243c-0.271,0.406-0.572,0.814-0.925,1.24l0.608,0.597
			c0.967-0.664,2.09-1.015,3.261-1.015c3.187,0,5.774,2.59,5.774,5.774s-2.592,5.779-5.774,5.779c-3.187,0-5.774-2.595-5.774-5.779
			c0-0.612,0.1-1.224,0.299-1.817L42.668,37.9c-2.893,2.238-6.604,3.63-10.51,3.938v0.846c2.3,0.819,3.83,2.979,3.83,5.438
			C35.99,51.311,33.398,53.902,30.212,53.902z M18.288,37.205l0.198,0.156c2.811,2.215,6.478,3.601,10.328,3.899l0.267,0.021v1.765
			l-0.214,0.059c-2.269,0.607-3.854,2.672-3.854,5.018c0,2.869,2.333,5.203,5.199,5.203c2.869,0,5.203-2.334,5.203-5.203
			c0-2.277-1.459-4.27-3.631-4.956l-0.201-0.063v-1.801l0.269-0.018c3.979-0.264,7.768-1.68,10.66-3.989l0.197-0.157l1.646,1.606
			l-0.064,0.176c-0.215,0.587-0.325,1.19-0.325,1.796c0,2.87,2.333,5.204,5.201,5.204c2.866,0,5.2-2.334,5.2-5.204
			c0-2.867-2.334-5.199-5.2-5.199c-1.128,0-2.206,0.36-3.115,1.043l-0.196,0.147l-1.342-1.312l0.174-0.205
			c0.338-0.396,0.631-0.774,0.893-1.15l-2.342-1.508c-3.303,3.42-7.99,5.377-12.904,5.377c-5.009,0-9.757-2.021-13.073-5.551
			l-1.941,1.654c0.288,0.418,0.609,0.831,0.977,1.26l0.176,0.205l-1.243,1.215l-0.197-0.147c-0.906-0.673-1.978-1.028-3.098-1.028
			c-2.867,0-5.199,2.332-5.199,5.199c0,2.87,2.332,5.204,5.199,5.204c2.869,0,5.204-2.334,5.204-5.204
			c0-0.615-0.113-1.229-0.335-1.82l-0.066-0.176L18.288,37.205z M30.213,50.818c-1.486,0-2.695-1.209-2.695-2.695
			c0-1.484,1.209-2.693,2.695-2.693c1.486,0,2.695,1.209,2.695,2.693C32.908,49.609,31.699,50.818,30.213,50.818z M30.213,46.004
			c-1.169,0-2.12,0.951-2.12,2.119c0,1.169,0.951,2.12,2.12,2.12s2.12-0.951,2.12-2.12C32.333,46.955,31.382,46.004,30.213,46.004z
			 M49.166,43.413c-1.486,0-2.695-1.209-2.695-2.695c0-1.487,1.209-2.696,2.695-2.696s2.695,1.209,2.695,2.696
			C51.861,42.204,50.652,43.413,49.166,43.413z M49.166,38.598c-1.17,0-2.12,0.951-2.12,2.12c0,1.168,0.95,2.12,2.12,2.12
			c1.169,0,2.119-0.952,2.119-2.12C51.285,39.549,50.335,38.598,49.166,38.598z M11.935,43.413c-1.486,0-2.696-1.209-2.696-2.695
			c0-1.487,1.209-2.696,2.696-2.696s2.695,1.209,2.695,2.696C14.63,42.204,13.421,43.413,11.935,43.413z M11.935,38.598
			c-1.169,0-2.12,0.951-2.12,2.12c0,1.168,0.951,2.12,2.12,2.12c1.168,0,2.119-0.952,2.119-2.12
			C14.054,39.549,13.104,38.598,11.935,38.598z"/>
	</g>
	<g>
		<path fill="#9F365E" d="M30.454,35.384c-8.799,0-10.909-4.393-10.995-4.579l-0.025-0.121V19.817l0.035-0.064
			c1.698-3.108,4.782-3.76,7.07-3.76c0.724,0,1.336,0.068,1.723,0.125l0.147,0.022l1.169,2.324l-1.156,8.817l1.846,2.398
			l1.708-2.708l-0.894-8.341L32.242,16l0.17-0.014c0.488-0.042,0.965-0.063,1.418-0.063c6.707,0,7.313,4.571,7.318,4.618
			l0.002,10.266l-0.039,0.067c-2.545,4.368-9.975,4.504-10.289,4.507L30.454,35.384z M20.01,30.614
			c0.262,0.479,2.551,4.192,10.444,4.192l0.36-0.002c0.076-0.003,7.34-0.136,9.761-4.154V20.574
			c-0.019-0.134-0.57-4.075-6.745-4.075c-0.385,0-0.787,0.016-1.198,0.046l-0.959,2.178l0.896,8.387l-2.253,3.572l-2.494-3.24
			l1.164-8.878l-0.954-1.897c-0.367-0.048-0.888-0.098-1.491-0.098c-2.117,0-4.96,0.591-6.529,3.397v10.648H20.01z"/>
	</g>
</g>
</svg>
