<?xml version="1.0" encoding="utf-8"?>
<!-- Generator: Adobe Illustrator 15.1.0, SVG Export Plug-In . SVG Version: 6.00 Build 0)  -->
<!DOCTYPE svg PUBLIC "-//W3C//DTD SVG 1.1//EN" "http://www.w3.org/Graphics/SVG/1.1/DTD/svg11.dtd">
<svg version="1.1" id="Layer_1" xmlns="http://www.w3.org/2000/svg" xmlns:xlink="http://www.w3.org/1999/xlink" x="0px" y="0px"
	 width="60px" height="55px" viewBox="0 0 60 55" enable-background="new 0 0 60 55" xml:space="preserve">
<g>
	<g>
		<g>
			<path fill="#231F20" d="M2.526,49.826l6.396-32.875l0.127-0.037c0.171-0.047,17.194-4.936,22.889-13.832l0.25-0.389l7.791,25.176
				l-0.076,0.091C39.789,28.097,28.14,41.731,2.87,49.72L2.526,49.826z M9.293,17.291l-6.208,31.91
				c23.858-7.627,35.381-20.254,36.417-21.43L32.049,3.693C26.315,12.08,10.86,16.826,9.293,17.291z"/>
		</g>
		<g>
			<path fill="#231F20" d="M18.55,45.908l-0.159-0.396c0.188-0.097,18.855-9.688,20.564-14.104l0.209-0.539l1.861,5.25l-0.143,0.093
				C40.537,36.437,32.326,41.746,18.55,45.908z M39.121,32.039c-2.197,3.781-13.626,10.179-18.431,12.75
				c11.587-3.767,18.718-8.148,19.818-8.848L39.121,32.039z"/>
		</g>
		<g>
			<path fill="#231F20" d="M17.19,48.556l-0.08-0.42c0.205-0.06,20.468-5.882,22.746-9.294l0.266-0.4l1.486,5.781l-0.176,0.068
				C41.365,44.316,34.75,46.813,17.19,48.556z M39.932,39.427c-2.686,2.866-15.267,6.888-20.471,8.461
				c14.27-1.553,20.534-3.552,21.637-3.933L39.932,39.427z"/>
		</g>
		<g>
			<path fill="#231F20" d="M26.196,50.309c-2.896,0-5.688-0.047-8.302-0.141l-0.015-0.428c0.21-0.021,21.08-2.209,23.208-3.629
				l0.262-0.176l0.852,3.924l-0.248,0.014C41.883,49.879,34.906,50.309,26.196,50.309z M21.032,49.826
				c1.67,0.035,3.397,0.054,5.164,0.054c7.775,0,14.162-0.343,15.48-0.418l-0.619-2.851C38.574,47.74,26.764,49.181,21.032,49.826z"
				/>
		</g>
		<g>
			<path fill="#231F20" d="M8.909,32.252l2.104-12.814l0.126-0.04c0.164-0.051,16.389-5.202,19.451-10.153l0.246-0.399l3.119,9.942
				l-0.037,0.078c-0.174,0.351-4.431,8.637-24.697,13.313L8.909,32.252z"/>
		</g>
		<g>
			<path fill="#231F20" d="M26.614,53.578C7.509,52.013,2.896,49.8,2.709,49.705l0.191-0.383c0.045,0.021,4.773,2.272,23.748,3.828
				L26.614,53.578z"/>
		</g>
	</g>
</g>
</svg>
