<?xml version="1.0" encoding="utf-8"?>
<!-- Generator: Adobe Illustrator 15.1.0, SVG Export Plug-In . SVG Version: 6.00 Build 0)  -->
<!DOCTYPE svg PUBLIC "-//W3C//DTD SVG 1.1//EN" "http://www.w3.org/Graphics/SVG/1.1/DTD/svg11.dtd">
<svg version="1.1" id="Layer_1" xmlns="http://www.w3.org/2000/svg" xmlns:xlink="http://www.w3.org/1999/xlink" x="0px" y="0px"
	 width="60px" height="55px" viewBox="0 0 60 55" enable-background="new 0 0 60 55" xml:space="preserve">
<g>
	<g>
		<g>
			<path fill-rule="evenodd" clip-rule="evenodd" d="M34.036,4.117c0.188,0.511-1.039,0.376-1.076,0.154
				C32.771,3.76,33.999,3.895,34.036,4.117z"/>
		</g>
		<g>
			<path fill-rule="evenodd" clip-rule="evenodd" d="M36.187,4.424c-0.367-0.094-1.114,0.193-1.229-0.154
				C34.883,3.717,36.428,3.828,36.187,4.424z"/>
		</g>
		<g>
			<path fill-rule="evenodd" clip-rule="evenodd" d="M38.185,4.117c0.188,0.511-1.038,0.376-1.076,0.154
				C36.919,3.76,38.147,3.895,38.185,4.117z"/>
		</g>
		<g>
			<path d="M23.734,4.419c0.089,0,0.101,0.077,0.109,0.159c0.458,2.025,2.231,4.525,2.612,6.76c0.475,2.795,0,6.608,0,10.141
				c0,6.872,0,13.198,0,20.281c0,2.857,0.511,8.516-0.615,9.525c-0.361,0.323-1.177,0.461-1.998,0.461
				c-0.93,0-1.866-0.177-2.15-0.461c-0.961-0.962-0.461-6.916-0.461-9.68c0-6.931,0-13.372,0-20.281c0-3.515-0.409-7.123,0-9.987
				c0.335-2.344,2.131-4.725,2.458-6.914C23.706,4.42,23.721,4.419,23.734,4.419 M22.307,10.877c0.973,0,1.946,0,2.919,0
				c-0.469-1.324-0.813-2.772-1.537-3.841C23.338,8.426,22.773,9.603,22.307,10.877 M25.533,11.799c-1.075,0-2.151,0-3.226,0
				c-0.179,0.026-0.167,0.243-0.154,0.46c0.202,12.755-0.405,26.247,0.307,38.41c0.298,0.129,0.769,0.183,1.254,0.183
				c0.568,0,1.157-0.073,1.512-0.183C25.939,38.324,25.331,24.656,25.533,11.799 M23.734,4.169L23.734,4.169h-0.027L23.636,4.18
				l-0.169,0.037l-0.025,0.17c-0.155,1.035-0.648,2.113-1.171,3.254c-0.546,1.193-1.111,2.427-1.288,3.661
				c-0.273,1.914-0.187,4.119-0.096,6.453c0.046,1.17,0.093,2.381,0.093,3.569v20.281c0,0.641-0.027,1.468-0.057,2.343
				c-0.126,3.796-0.163,6.76,0.591,7.514c0.37,0.369,1.435,0.534,2.327,0.534c0.475,0,1.636-0.051,2.165-0.524
				c0.893-0.802,0.871-3.742,0.749-7.502c-0.026-0.814-0.051-1.584-0.051-2.21V21.479c0-1.189,0.055-2.425,0.107-3.62
				c0.107-2.41,0.208-4.687-0.111-6.563c-0.21-1.235-0.826-2.531-1.421-3.783c-0.508-1.07-0.988-2.08-1.194-2.99
				C24.059,4.219,23.854,4.169,23.734,4.169L23.734,4.169z M22.667,10.627c0.107-0.281,0.219-0.559,0.33-0.837
				c0.271-0.678,0.55-1.375,0.776-2.125c0.365,0.69,0.627,1.502,0.883,2.292c0.072,0.224,0.145,0.447,0.219,0.669H22.667
				L22.667,10.627z M22.7,50.49c-0.431-7.485-0.365-15.613-0.301-23.475c0.04-4.871,0.081-9.908,0.004-14.76
				c-0.004-0.065-0.009-0.152-0.005-0.209l2.881,0.002c-0.072,4.813-0.031,9.813,0.008,14.65c0.064,7.957,0.13,16.181-0.3,23.775
				c-0.34,0.079-0.817,0.128-1.273,0.128C23.304,50.603,22.946,50.563,22.7,50.49L22.7,50.49z"/>
		</g>
		<g>
			<path d="M54.419,5.192c0,15.518,0,31.036,0,46.554c-3.637,0-7.272,0-10.908,0c0-15.364,0-30.729,0-46.093
				c-0.014-0.218-0.025-0.435,0.153-0.461C47.249,5.192,50.834,5.192,54.419,5.192 M44.433,50.824c3.021,0,6.043,0,9.064,0
				c0-0.666,0-1.331,0-1.998c-0.111-0.033-0.244-0.046-0.39-0.046c-0.41,0-0.919,0.099-1.329,0.099
				c-0.418,0-0.733-0.102-0.739-0.513c0.1-0.279,0.407-0.351,0.786-0.351c0.401,0,0.883,0.08,1.284,0.08
				c0.142,0,0.273-0.01,0.388-0.037c0-0.666,0-1.331,0-1.997c-0.114-0.028-0.247-0.039-0.39-0.039c-0.396,0-0.872,0.08-1.268,0.08
				c-0.486,0-0.852-0.12-0.801-0.656c0.13-0.272,0.467-0.339,0.869-0.339c0.384,0,0.827,0.061,1.211,0.061
				c0.135,0,0.263-0.008,0.378-0.028c0-0.666,0-1.332,0-1.998c-0.114-0.026-0.245-0.036-0.386-0.036
				c-0.393,0-0.861,0.076-1.254,0.076c-0.439,0-0.783-0.096-0.818-0.501c0.035-0.405,0.379-0.501,0.818-0.501
				c0.393,0,0.861,0.076,1.254,0.076c0.141,0,0.271-0.01,0.386-0.036c0-0.614,0-1.229,0-1.844c-0.113-0.026-0.244-0.036-0.384-0.036
				c-0.393,0-0.862,0.077-1.255,0.077c-0.44,0-0.784-0.096-0.819-0.502c0.035-0.404,0.379-0.5,0.818-0.5
				c0.394,0,0.862,0.076,1.256,0.076c0.14,0,0.27-0.01,0.384-0.036c0-0.667,0-1.332,0-1.998c-0.114-0.026-0.245-0.036-0.386-0.036
				c-0.393,0-0.861,0.076-1.254,0.076c-0.439,0-0.783-0.096-0.818-0.501c0.035-0.405,0.379-0.501,0.818-0.501
				c0.393,0,0.861,0.076,1.254,0.076c0.141,0,0.271-0.01,0.386-0.036c0-0.614,0-1.229,0-1.844c-0.11-0.016-0.231-0.022-0.358-0.022
				c-0.368,0-0.788,0.051-1.156,0.051c-0.631,0-1.114-0.147-0.943-0.95c0.819,0,1.64,0,2.458,0c0-0.666,0-1.331,0-1.997
				c-0.114-0.028-0.246-0.039-0.389-0.039c-0.396,0-0.873,0.081-1.27,0.081c-0.485,0-0.851-0.121-0.8-0.657
				c0.13-0.272,0.467-0.339,0.869-0.339c0.384,0,0.827,0.061,1.211,0.061c0.135,0,0.263-0.008,0.378-0.028c0-0.666,0-1.331,0-1.998
				c-0.113-0.026-0.244-0.036-0.384-0.036c-0.393,0-0.863,0.077-1.256,0.077c-0.439,0-0.783-0.096-0.818-0.501
				c0.13-0.273,0.467-0.339,0.869-0.339c0.383,0,0.825,0.06,1.208,0.06c0.137,0,0.266-0.008,0.381-0.028c0-0.666,0-1.332,0-1.998
				c-0.114-0.026-0.244-0.036-0.385-0.036c-0.393,0-0.862,0.077-1.255,0.077c-0.439,0-0.783-0.096-0.818-0.501
				c0.035-0.405,0.38-0.501,0.819-0.501c0.393,0,0.86,0.076,1.253,0.076c0.141,0,0.271-0.01,0.386-0.036c0-0.666,0-1.332,0-1.997
				c-0.114-0.028-0.246-0.039-0.389-0.039c-0.396,0-0.873,0.081-1.27,0.081c-0.485,0-0.851-0.121-0.8-0.657
				c0.13-0.272,0.466-0.339,0.869-0.339c0.383,0,0.825,0.06,1.208,0.06c0.137,0,0.266-0.008,0.381-0.028c0-0.614,0-1.229,0-1.844
				c-0.114-0.026-0.244-0.036-0.385-0.036c-0.393,0-0.861,0.076-1.255,0.076c-0.439,0-0.783-0.096-0.818-0.501
				c0.035-0.405,0.379-0.501,0.818-0.501c0.393,0,0.861,0.076,1.254,0.076c0.141,0,0.271-0.01,0.386-0.036c0-0.666,0-1.332,0-1.997
				c-0.115-0.021-0.244-0.028-0.38-0.028c-0.383,0-0.825,0.06-1.208,0.06c-0.403,0-0.74-0.066-0.87-0.339
				c0.186-0.032,0.095-0.17,0-0.307c0.13-0.273,0.467-0.339,0.87-0.339c0.382,0,0.824,0.06,1.207,0.06
				c0.137,0,0.265-0.008,0.381-0.028c0-0.614,0-1.229,0-1.843c-0.113-0.022-0.241-0.03-0.376-0.03c-0.38,0-0.822,0.063-1.201,0.063
				c-0.51,0-0.905-0.114-0.881-0.648c0.13-0.272,0.467-0.339,0.869-0.339c0.383,0,0.826,0.061,1.209,0.061
				c0.136,0,0.265-0.008,0.38-0.028c0-0.666,0-1.332,0-1.997c-0.114-0.028-0.247-0.039-0.39-0.039c-0.396,0-0.873,0.081-1.269,0.081
				c-0.485,0-0.851-0.121-0.8-0.656c0.13-0.273,0.467-0.339,0.87-0.339c0.383,0,0.825,0.06,1.208,0.06
				c0.136,0,0.265-0.008,0.38-0.028c0-0.666,0-1.331,0-1.997c-0.114-0.026-0.245-0.036-0.385-0.036
				c-0.393,0-0.861,0.076-1.254,0.076c-0.44,0-0.784-0.096-0.819-0.501c0.016-0.398,0.467-0.517,0.988-0.517
				c0.563,0,1.209,0.138,1.47,0.209c0-0.666,0-1.332,0-1.998c-3.021,0-6.044,0-9.064,0C44.433,21.018,44.433,35.921,44.433,50.824
				 M54.669,4.942h-0.25H43.664c-0.444,0.062-0.416,0.511-0.403,0.727v46.077v0.25h0.25h10.908h0.25v-0.25V5.192V4.942L54.669,4.942
				z M44.683,6.364h8.564v1.431c-0.336-0.071-0.799-0.143-1.22-0.143c-1.052,0-1.228,0.474-1.238,0.757
				c0.043,0.515,0.402,0.761,1.069,0.761c0.203,0,0.426-0.02,0.648-0.039c0.208-0.019,0.416-0.037,0.605-0.037
				c0.048,0,0.093,0.001,0.135,0.004v1.555c-0.041,0.002-0.084,0.003-0.13,0.003c-0.186,0-0.386-0.015-0.586-0.029
				c-0.213-0.016-0.425-0.031-0.622-0.031c-0.372,0-0.89,0.05-1.096,0.481l-0.02,0.04l-0.004,0.044
				c-0.025,0.272,0.035,0.491,0.18,0.65c0.229,0.25,0.605,0.28,0.869,0.28c0.205,0,0.431-0.021,0.656-0.042
				c0.211-0.019,0.421-0.039,0.612-0.039c0.05,0,0.097,0.001,0.14,0.004v1.557c-0.041,0.002-0.084,0.003-0.13,0.003
				c-0.186,0-0.386-0.015-0.586-0.03c-0.213-0.015-0.426-0.031-0.623-0.031c-0.371,0-0.889,0.05-1.095,0.481l-0.021,0.046
				l-0.003,0.051c-0.012,0.261,0.058,0.471,0.205,0.625c0.24,0.251,0.621,0.284,0.926,0.284c0.195,0,0.407-0.016,0.619-0.032
				c0.199-0.015,0.398-0.031,0.582-0.031c0.045,0,0.087,0.001,0.126,0.003v1.396c-0.041,0.002-0.085,0.003-0.131,0.003
				c-0.186,0-0.386-0.015-0.586-0.029c-0.212-0.016-0.425-0.031-0.621-0.031c-0.372,0-0.89,0.05-1.096,0.481l-0.063,0.131
				l0.06,0.087l-0.103,0.027l0.105,0.278c0.206,0.432,0.724,0.482,1.096,0.482c0.197,0,0.409-0.015,0.622-0.03
				c0.2-0.015,0.4-0.03,0.586-0.03c0.046,0,0.089,0.001,0.13,0.003v1.555c-0.042,0.002-0.087,0.003-0.136,0.003
				c-0.189,0-0.397-0.019-0.604-0.037c-0.224-0.02-0.446-0.039-0.649-0.039c-0.667,0-1.025,0.246-1.067,0.729
				c0.042,0.527,0.401,0.772,1.067,0.772c0.204,0,0.427-0.019,0.649-0.039c0.208-0.019,0.416-0.037,0.605-0.037
				c0.049,0,0.093,0.001,0.135,0.004v1.401c-0.041,0.002-0.084,0.003-0.131,0.003c-0.186,0-0.386-0.015-0.586-0.029
				c-0.213-0.016-0.426-0.031-0.622-0.031c-0.372,0-0.889,0.05-1.095,0.481l-0.02,0.041L50.79,22.53
				c-0.025,0.272,0.035,0.491,0.181,0.65c0.228,0.25,0.604,0.28,0.868,0.28c0.205,0,0.431-0.021,0.657-0.042
				c0.211-0.02,0.421-0.039,0.612-0.039c0.05,0,0.096,0.001,0.139,0.004v1.564c-0.042,0.002-0.087,0.003-0.136,0.003
				c-0.189,0-0.397-0.019-0.604-0.037c-0.223-0.02-0.445-0.039-0.648-0.039c-0.667,0-1.026,0.246-1.068,0.729
				c0.042,0.527,0.4,0.772,1.067,0.772c0.203,0,0.427-0.02,0.649-0.04c0.208-0.018,0.416-0.037,0.605-0.037
				c0.049,0,0.093,0.001,0.135,0.004v1.555c-0.041,0.002-0.084,0.003-0.131,0.003c-0.186,0-0.386-0.015-0.586-0.029
				c-0.212-0.016-0.425-0.031-0.622-0.031c-0.371,0-0.889,0.05-1.095,0.482l-0.029,0.061l0.006,0.068
				c0.042,0.483,0.4,0.729,1.067,0.729c0.203,0,0.427-0.02,0.65-0.04c0.208-0.018,0.416-0.037,0.605-0.037
				c0.048,0,0.093,0.001,0.134,0.004v1.556c-0.042,0.002-0.085,0.003-0.128,0.003c-0.187,0-0.387-0.016-0.588-0.03
				c-0.213-0.016-0.426-0.03-0.623-0.03c-0.371,0-0.889,0.05-1.095,0.481l-0.02,0.04l-0.004,0.044
				c-0.025,0.272,0.035,0.491,0.181,0.65c0.228,0.251,0.604,0.28,0.868,0.28c0.205,0,0.432-0.021,0.657-0.042
				c0.211-0.019,0.421-0.039,0.612-0.039c0.05,0,0.096,0.002,0.139,0.005v1.531h-2.208h-0.202l-0.042,0.198
				c-0.084,0.391-0.039,0.687,0.137,0.903c0.25,0.31,0.692,0.349,1.051,0.349c0.189,0,0.392-0.013,0.594-0.025
				c0.192-0.013,0.384-0.025,0.563-0.025c0.037,0,0.073,0.001,0.108,0.002v1.396c-0.042,0.003-0.087,0.004-0.136,0.004
				c-0.189,0-0.397-0.019-0.604-0.037c-0.224-0.02-0.446-0.039-0.649-0.039c-0.667,0-1.025,0.245-1.067,0.729
				c0.042,0.527,0.4,0.772,1.067,0.772c0.203,0,0.426-0.02,0.649-0.039c0.207-0.019,0.415-0.037,0.604-0.037
				c0.049,0,0.094,0.001,0.136,0.004v1.563c-0.041,0.003-0.086,0.004-0.134,0.004c-0.19,0-0.398-0.019-0.606-0.037
				c-0.223-0.02-0.446-0.039-0.649-0.039c-0.667,0-1.025,0.245-1.067,0.729c0.042,0.527,0.401,0.773,1.068,0.773
				c0.203,0,0.427-0.02,0.649-0.04c0.208-0.019,0.416-0.037,0.605-0.037c0.048,0,0.093,0.001,0.134,0.004v1.408
				c-0.042,0.003-0.087,0.004-0.136,0.004c-0.189,0-0.397-0.019-0.604-0.037c-0.224-0.02-0.446-0.039-0.649-0.039
				c-0.667,0-1.025,0.245-1.067,0.729c0.042,0.527,0.4,0.772,1.067,0.772c0.203,0,0.426-0.02,0.649-0.039
				c0.207-0.019,0.415-0.037,0.604-0.037c0.049,0,0.094,0.001,0.136,0.004v1.556c-0.042,0.002-0.085,0.003-0.128,0.003
				c-0.187,0-0.387-0.016-0.588-0.03c-0.213-0.016-0.426-0.03-0.623-0.03c-0.371,0-0.889,0.05-1.095,0.481l-0.02,0.04l-0.004,0.044
				c-0.025,0.271,0.035,0.49,0.181,0.65c0.228,0.251,0.605,0.279,0.869,0.279c0.205,0,0.431-0.021,0.656-0.041
				c0.21-0.019,0.421-0.039,0.611-0.039c0.051,0,0.097,0.002,0.14,0.005v1.564c-0.043,0.003-0.089,0.004-0.138,0.004
				c-0.194,0-0.407-0.02-0.62-0.039c-0.228-0.021-0.456-0.041-0.664-0.041c-0.207,0-0.837,0-1.021,0.517l-0.016,0.042l0.001,0.046
				c0.005,0.346,0.182,0.759,0.989,0.759c0.218,0,0.459-0.025,0.691-0.051c0.219-0.023,0.446-0.048,0.638-0.048
				c0.051,0,0.097,0.002,0.14,0.005v1.539h-8.564V6.364L44.683,6.364z"/>
		</g>
		<g>
			<path d="M11.78,5.641c1.119,0,0.642,3.125,0.642,4.314c0,3.204,0.258,5.452-1.69,6.453c-1.483,0.763-2.956,0.167-3.688,1.383
				c-0.684,1.136-0.748,4.394,0.153,5.685c0.795,1.139,2.383,0.61,3.688,1.383c1.97,1.167,1.417,2.675,1.537,5.839
				c2.739,0.226,5.179,1.108,5.685,3.994c0.295,1.686,0,4.383,0,6.761c0,4.959,0.479,8.652-2.765,9.986
				c-0.962,0.396-1.993,0.568-3.007,0.568c-2.697,0-5.267-1.223-6.058-2.719c-0.739-1.398-0.964-13.01-0.308-15.211
				c0.707-2.371,2.539-3.159,5.531-3.227c-0.127-1.866,0.302-3.118-0.307-4.302c-0.725-1.41-2.428-0.907-3.688-1.536
				c-2.323-1.159-2.49-7.478,0-8.758c0.853-0.438,1.982-0.015,3.073-0.768c2.327-1.607,0.037-6.463,1.076-9.833
				C11.698,5.645,11.74,5.641,11.78,5.641 M12.228,51.057c0.828,0,1.679-0.121,2.499-0.387c2.964-0.961,2.458-5.093,2.458-9.064
				c0-2.585,0.423-5.598-0.153-7.375c-0.578-1.779-2.742-2.536-5.014-2.536c-0.742,0-1.494,0.08-2.208,0.232
				c-3.877,0.824-3.073,4.746-3.073,9.371c0,2.268-0.586,4.786,0.154,7.068C7.399,49.931,9.703,51.057,12.228,51.057 M11.78,5.391
				L11.78,5.391c-0.054,0-0.112,0.005-0.172,0.017L11.46,5.435L11.416,5.58c-0.457,1.48-0.296,3.187-0.141,4.838
				c0.195,2.069,0.379,4.023-0.838,4.864c-0.567,0.392-1.157,0.434-1.726,0.475c-0.467,0.034-0.908,0.065-1.319,0.276
				c-1.447,0.744-1.951,2.866-1.941,4.604c0.01,1.68,0.525,3.893,1.943,4.6c0.499,0.249,1.045,0.331,1.574,0.41
				c0.86,0.129,1.604,0.24,2.003,1.017c0.359,0.698,0.326,1.437,0.284,2.372c-0.021,0.469-0.044,0.992-0.019,1.574
				c-3.183,0.121-4.836,1.146-5.507,3.397C5.045,36.303,5.292,47.96,6.056,49.405c0.86,1.625,3.56,2.852,6.279,2.852
				c1.111,0,2.155-0.197,3.102-0.587c3.018-1.241,2.98-4.455,2.933-8.522c-0.006-0.547-0.013-1.112-0.013-1.695
				c0-0.802,0.034-1.649,0.067-2.469c0.066-1.644,0.128-3.195-0.071-4.335c-0.435-2.481-2.296-3.851-5.688-4.181
				c-0.017-0.584-0.013-1.113-0.008-1.587c0.018-2.025,0.028-3.247-1.644-4.238c-0.602-0.356-1.261-0.455-1.842-0.542
				c-0.738-0.111-1.376-0.207-1.768-0.769c-0.829-1.188-0.793-4.334-0.144-5.413c0.366-0.608,0.962-0.688,1.716-0.79
				c0.57-0.077,1.217-0.164,1.871-0.5c1.874-0.963,1.856-2.938,1.832-5.671c-0.003-0.323-0.006-0.658-0.006-1.004
				c0-0.238,0.02-0.554,0.041-0.907c0.078-1.261,0.173-2.831-0.374-3.414C12.189,5.475,11.997,5.391,11.78,5.391L11.78,5.391z
				 M12.228,50.807c-2.441,0-4.633-1.082-5.099-2.518c-0.501-1.545-0.374-3.23-0.25-4.859c0.054-0.706,0.109-1.437,0.109-2.132
				c0-0.704-0.019-1.393-0.037-2.056c-0.101-3.725-0.173-6.415,2.912-7.071c0.697-0.148,1.443-0.227,2.156-0.227
				c2.51,0,4.295,0.884,4.776,2.363c0.39,1.201,0.306,2.994,0.217,4.892c-0.038,0.799-0.076,1.626-0.076,2.406
				c0,0.511,0.008,1.024,0.017,1.534c0.055,3.349,0.106,6.512-2.302,7.292C13.884,50.681,13.069,50.807,12.228,50.807L12.228,50.807
				z"/>
		</g>
		<g>
			<path fill-rule="evenodd" clip-rule="evenodd" d="M31.271,5.807c0.511-0.189,0.376,1.038,0.153,1.075
				C30.914,7.071,31.048,5.844,31.271,5.807z"/>
		</g>
		<g>
			<path fill-rule="evenodd" clip-rule="evenodd" d="M39.721,5.807c0.511-0.189,0.376,1.038,0.153,1.075
				C39.363,7.071,39.498,5.844,39.721,5.807z"/>
		</g>
		<g>
			<path fill-rule="evenodd" clip-rule="evenodd" d="M31.271,7.958c0.511-0.189,0.376,1.039,0.153,1.075
				C30.914,9.223,31.048,7.995,31.271,7.958z"/>
		</g>
		<g>
			<path fill-rule="evenodd" clip-rule="evenodd" d="M39.721,7.958c0.511-0.189,0.376,1.039,0.153,1.075
				C39.363,9.223,39.498,7.995,39.721,7.958z"/>
		</g>
		<g>
			<path fill-rule="evenodd" clip-rule="evenodd" d="M31.271,10.109c0.511-0.189,0.376,1.039,0.153,1.076
				C30.914,11.374,31.048,10.146,31.271,10.109z"/>
		</g>
		<g>
			<path fill-rule="evenodd" clip-rule="evenodd" d="M39.721,10.109c0.511-0.189,0.376,1.039,0.153,1.076
				C39.363,11.374,39.498,10.146,39.721,10.109z"/>
		</g>
		<g>
			<path fill-rule="evenodd" clip-rule="evenodd" d="M34.036,12.567c0.199,0.57-0.91,0.611-1.076,0.308
				C32.837,12.291,33.688,12.679,34.036,12.567z"/>
		</g>
		<g>
			<path fill-rule="evenodd" clip-rule="evenodd" d="M34.958,12.567c0.409,0,0.819,0,1.229,0
				C36.369,13.239,34.776,13.239,34.958,12.567z"/>
		</g>
		<g>
			<path fill-rule="evenodd" clip-rule="evenodd" d="M37.108,12.567c0.319,0.092,1.01-0.189,1.076,0.154
				C38.278,13.285,36.864,13.132,37.108,12.567z"/>
		</g>
		<g>
			<path d="M35.635,15.25c2.245,0,4.265,1.281,5.008,3.156c1.746,4.4-1.98,7.58-5.499,7.58c-1.911,0-3.76-0.937-4.641-3.125
				c-0.373-0.927-0.699-2.695,0-4.456c0.431-1.086,1.666-2.655,4.148-3.073C34.981,15.277,35.311,15.25,35.635,15.25 M35.82,25.232
				c1.015,0,2.056-0.384,2.979-1.295c2.832-2.798,0.838-7.777-3.169-7.777c-0.314,0-0.642,0.03-0.979,0.095
				c-1.227,0.235-1.873,0.595-2.458,1.229C29.191,20.731,32.348,25.232,35.82,25.232 M35.635,15L35.635,15
				c-0.342,0-0.688,0.029-1.025,0.086c-3.042,0.512-4.09,2.6-4.339,3.228c-0.684,1.723-0.448,3.527,0,4.641
				c0.84,2.085,2.615,3.281,4.873,3.281c2.092,0,4.17-1.07,5.295-2.726c1.017-1.498,1.172-3.343,0.437-5.197
				C40.089,16.332,37.983,15,35.635,15L35.635,15z M35.82,24.982c-1.73,0-3.466-1.202-4.219-2.923
				c-0.673-1.539-0.391-3.145,0.774-4.406c0.578-0.627,1.208-0.939,2.321-1.153c0.315-0.061,0.629-0.091,0.933-0.091
				c1.736,0,3.234,1.02,3.909,2.662c0.682,1.66,0.33,3.457-0.916,4.688C37.813,24.559,36.844,24.982,35.82,24.982L35.82,24.982z"/>
		</g>
		<g>
			<path d="M35.419,27.624c2.271,3.363,3.738,7.528,5.838,11.062c-1.379,0.143-2.863,0.18-4.384,0.18
				c-1.715,0-3.477-0.048-5.191-0.048c-0.605,0-1.205,0.006-1.794,0.022C31.714,35.084,33.678,31.466,35.419,27.624 M31.424,38.072
				c2.766,0,5.532,0,8.297,0c-1.281-2.971-2.595-5.907-4.302-8.45C34.224,32.574,32.534,35.033,31.424,38.072 M35.376,27.113
				l-0.185,0.408c-1.074,2.37-2.254,4.696-3.395,6.944c-0.706,1.392-1.436,2.83-2.134,4.266l-0.18,0.37l0.412-0.011
				c0.587-0.017,1.185-0.022,1.787-0.022c0.856,0,1.725,0.013,2.592,0.024c0.871,0.012,1.741,0.023,2.6,0.023
				c1.834,0,3.194-0.056,4.409-0.181l0.39-0.04l-0.2-0.337c-0.919-1.547-1.732-3.249-2.519-4.895
				c-1.006-2.105-2.046-4.282-3.327-6.179L35.376,27.113L35.376,27.113z M31.784,37.822c0.576-1.495,1.298-2.878,1.997-4.218
				c0.577-1.106,1.172-2.245,1.688-3.452c1.499,2.32,2.694,4.949,3.872,7.67H31.784L31.784,37.822z"/>
		</g>
		<g>
			<path d="M24.304,37.15c0,1.07,0,2.499,0,3.841c0,1.146,0.459,2.938-0.615,3.227c-0.711-1.747-0.106-4.811-0.307-7.067
				C23.689,37.15,23.997,37.15,24.304,37.15 M24.554,36.9h-0.25h-0.922h-0.273l0.024,0.272c0.075,0.841,0.035,1.821-0.004,2.771
				c-0.065,1.59-0.132,3.234,0.329,4.368l0.083,0.205l0.213-0.058c1.034-0.278,0.93-1.59,0.846-2.645
				c-0.023-0.296-0.046-0.576-0.046-0.823V37.15V36.9L24.554,36.9z"/>
		</g>
		<g>
			<path d="M40.95,40.837c0,3.637,0,7.273,0,10.909c-3.585,0-7.171,0-10.755,0c0.104-3.585-0.204-7.58,0.154-10.909
				C33.883,40.837,37.416,40.837,40.95,40.837 M30.963,50.824c3.073,0,6.145,0,9.218,0c0-3.022,0-6.043,0-9.064
				c-3.073,0-6.146,0-9.218,0C30.963,44.781,30.963,47.802,30.963,50.824 M41.2,40.587h-0.25H30.349h-0.225l-0.024,0.224
				c-0.223,2.073-0.189,4.433-0.157,6.715c0.02,1.401,0.041,2.851,0.001,4.214l-0.007,0.257h0.257H40.95h0.25v-0.25V40.837V40.587
				L41.2,40.587z M31.213,42.01h8.719v8.564h-8.719V42.01L31.213,42.01z"/>
		</g>
		<g>
			<path d="M12.162,35.301c0.088,0,0.1,0.077,0.107,0.159c-0.029,0.131,0.06,0.145,0.153,0.153
				c-0.398,0.319-0.911,0.523-1.537,0.615c0.178,0.227,0.178,0.387,0,0.614c-0.174-0.029-0.085-0.153-0.001-0.153c0,0,0,0,0.001,0
				c-0.004-0.15-0.188-0.12-0.307-0.154c-0.319,0.04-0.042,0.676-0.307,0.769c-0.355-0.532,0.421-1.444,0.922-1.997
				c0.012-0.002,0.024-0.003,0.037-0.003c0.184,0,0.45,0.186,0.652,0.186c0.1,0,0.184-0.046,0.233-0.183
				C12.133,35.303,12.148,35.301,12.162,35.301 M11.085,35.788c-0.06,0-0.126-0.007-0.2-0.021c-0.277,0.325-0.326,0.438-0.242,0.438
				c0.186,0,1.02-0.551,1.471-0.592c-0.074-0.015-0.141-0.021-0.201-0.021C11.573,35.593,11.427,35.788,11.085,35.788
				 M12.162,35.051h-0.028l-0.073,0.012l-0.134,0.03l-0.047,0.129c-0.008,0.003-0.018,0.004-0.028,0.004
				c-0.057,0-0.144-0.035-0.216-0.064c-0.131-0.053-0.267-0.107-0.405-0.107h-0.02l-0.057,0.006l-0.087,0.014l-0.059,0.065
				c-0.707,0.78-1.372,1.663-0.945,2.304l0.107,0.161l0.183-0.063c0.253-0.089,0.291-0.342,0.298-0.531
				c0.048,0.038,0.111,0.067,0.192,0.08l0.147,0.025l0.092-0.117c0.158-0.203,0.216-0.391,0.173-0.583
				c0.522-0.117,0.966-0.32,1.322-0.605l0.482-0.387l-0.552-0.052C12.456,35.084,12.251,35.051,12.162,35.051L12.162,35.051z"/>
		</g>
		<g>
			<path d="M13.332,36.207c0.318,0,0.21,0.426,0.473,0.482c0,0.101-0.033,0.141-0.078,0.141c-0.115,0-0.31-0.268-0.229-0.448
				c-0.51,0.325,0.461,0.446,0.308,0.922c-0.069-0.072-0.136-0.102-0.2-0.102c-0.199,0-0.381,0.275-0.568,0.409
				c0.023,0.094,0.051,0.123,0.084,0.123c0.057,0,0.129-0.089,0.215-0.089c0.049,0,0.103,0.028,0.161,0.118
				c-0.189,0.324-0.425,0.6-0.614,0.922c-0.124-0.132-0.421-0.091-0.461-0.307c0.012,0.308-0.188,0.437-0.471,0.437
				c-0.587,0-1.532-0.554-1.68-1.204c-0.112-0.419,0.305-0.31,0.307-0.615c0.011-0.002,0.022-0.004,0.033-0.004
				c0.222,0,0.193,0.512-0.049,0.512c-0.04,0-0.086-0.015-0.138-0.047c0.082,0.124,0.16,0.25,0.154,0.461
				c0.043,0.007,0.083,0.01,0.121,0.01c0.26,0,0.4-0.143,0.554-0.143c0.075,0,0.152,0.033,0.248,0.133
				c-0.047,0.215-0.133,0.278-0.247,0.278c-0.141,0-0.323-0.099-0.521-0.124c0.109,0.403,0.721,0.303,0.922,0.613
				c0.169-0.177-0.401-0.611,0.461-0.613c-0.1,0.156-0.354,0.158-0.308,0.461c0.374-0.138,0.582-0.244,0.821-0.244
				c0.12,0,0.248,0.026,0.408,0.09c-0.166-0.184-0.136-0.307,0.126-0.307c0.009,0,0.018,0,0.027,0
				c-0.031-0.135-0.077-0.184-0.129-0.184c-0.136,0-0.317,0.321-0.417,0.321c-0.034,0-0.058-0.037-0.068-0.138
				c-0.002,0.002-0.004,0.003-0.004,0.003c-0.015,0,0.739-0.952,0.619-1.847C13.246,36.214,13.292,36.207,13.332,36.207
				 M13.332,35.957c-0.064,0-0.132,0.01-0.208,0.03l-0.211,0.058l0.029,0.217c0.041,0.304-0.016,0.818-0.503,1.56l-0.325,0.001
				c-0.11,0-0.231,0.006-0.344,0.032l0.003-0.014l-0.093-0.096c-0.136-0.142-0.275-0.21-0.428-0.21c-0.117,0-0.214,0.041-0.3,0.077
				c-0.045,0.019-0.087,0.036-0.131,0.049c0.117-0.096,0.19-0.256,0.19-0.445c0-0.106-0.025-0.205-0.073-0.284
				c-0.073-0.12-0.192-0.189-0.328-0.189h-0.025l-0.058,0.009l-0.199,0.04l-0.001,0.203c-0.002,0.003-0.032,0.023-0.052,0.037
				c-0.116,0.076-0.356,0.237-0.247,0.645c0.17,0.744,1.2,1.39,1.922,1.39c0.233,0,0.423-0.07,0.551-0.203
				c0.016-0.017,0.033-0.036,0.049-0.059c0.018,0.007,0.034,0.012,0.049,0.017c0.035,0.012,0.089,0.028,0.104,0.04l0.229,0.243
				l0.166-0.291c0.09-0.153,0.192-0.296,0.293-0.438c0.111-0.157,0.223-0.314,0.322-0.484l0.078-0.133l-0.084-0.13
				c-0.045-0.069-0.093-0.118-0.14-0.153c0.017-0.012,0.031-0.02,0.042-0.021l0.29,0.304l0.144-0.375
				c0.059-0.181,0.024-0.331-0.046-0.453c0.035-0.058,0.058-0.135,0.059-0.237l0.001-0.203l-0.199-0.042
				c0.007-0.003-0.013-0.053-0.026-0.087C13.78,36.229,13.672,35.957,13.332,35.957L13.332,35.957z"/>
		</g>
		<g>
			<path d="M12.422,35.307c0.365,0.096,0.715,0.206,0.768,0.614c-0.137-0.068-0.275-0.135-0.307-0.308
				c-0.249,0.15-0.354,0.41-0.153,0.615c0.205-0.082,0.173-0.277,0.262-0.277c0.037,0,0.094,0.033,0.198,0.123
				c-0.004,0.149-0.188,0.119-0.307,0.154c0.082,0.123,0.16,0.249,0.153,0.461c-0.289-0.146-0.249-0.621-0.682-0.621
				c-0.027,0-0.055,0.002-0.086,0.006C12.619,35.837,12.559,35.754,12.422,35.307 M12.053,34.951l0.13,0.429l0.03,0.096
				c0.034,0.109,0.073,0.233,0.066,0.267c-0.002,0.004-0.022,0.038-0.151,0.125l-0.859,0.584l1.031-0.129
				c0.02-0.002,0.038-0.004,0.055-0.004c0.095,0,0.121,0.024,0.218,0.202c0.073,0.132,0.164,0.297,0.35,0.392l0.351,0.178
				l0.013-0.393c0.004-0.118-0.013-0.218-0.04-0.304c0.052-0.027,0.094-0.062,0.125-0.103l0.12,0.061l-0.054-0.463
				c-0.078-0.594-0.625-0.738-0.953-0.824L12.053,34.951L12.053,34.951z"/>
		</g>
		<g>
			<path d="M11.915,35.593c0.06,0,0.126,0.006,0.201,0.021c-0.452,0.041-1.285,0.592-1.471,0.592c-0.084,0-0.036-0.112,0.242-0.438
				c0.074,0.014,0.14,0.021,0.2,0.021C11.427,35.788,11.574,35.593,11.915,35.593 M11.915,35.343c-0.219,0-0.378,0.063-0.507,0.115
				c-0.112,0.045-0.2,0.08-0.322,0.08c-0.046,0-0.096-0.005-0.153-0.016l-0.143-0.027l-0.094,0.11
				c-0.289,0.338-0.396,0.509-0.313,0.688l0.067,0.146l0.195,0.016c0.13,0,0.288-0.076,0.604-0.235
				c0.284-0.143,0.672-0.338,0.889-0.357l1.766-0.16l-1.742-0.334C12.07,35.351,11.989,35.343,11.915,35.343L11.915,35.343z"/>
		</g>
		<g>
			<path fill-rule="evenodd" clip-rule="evenodd" d="M32.346,3.502c0.539,1.223-0.589,2.283-1.843,1.69
				C29.327,3.863,31.304,2.185,32.346,3.502z"/>
		</g>
		<g>
			<path fill-rule="evenodd" clip-rule="evenodd" d="M40.797,3.349c0.249,0.545,0.202,1.468-0.154,1.844
				C37.877,6.361,38.453,1.704,40.797,3.349z"/>
		</g>
		<g>
			<path fill-rule="evenodd" clip-rule="evenodd" d="M32.346,12.106c0.729,1.549-1.394,2.435-2.151,1.229
				C29.708,11.628,31.591,11.227,32.346,12.106z"/>
		</g>
		<g>
			<path fill-rule="evenodd" clip-rule="evenodd" d="M40.797,11.953c0.414,0.994,0.007,1.83-0.615,1.997
				C37.974,14.545,38.416,10.392,40.797,11.953z"/>
		</g>
		<g>
			<path d="M49.177,47.316c1.24,0,1.275,1.975,0.172,2.279c-0.08,0.022-0.162,0.032-0.243,0.032c-1.009,0-2.012-1.593-0.524-2.184
				C48.804,47.355,49.002,47.316,49.177,47.316 M49.177,47.066L49.177,47.066c-0.214,0-0.445,0.049-0.688,0.146
				c-0.671,0.267-1.004,0.784-0.89,1.383c0.134,0.695,0.823,1.283,1.507,1.283c0.105,0,0.21-0.014,0.31-0.041
				c0.743-0.205,1.051-1.003,0.963-1.65C50.286,47.507,49.814,47.066,49.177,47.066L49.177,47.066z"/>
		</g>
		<g>
			<rect x="33.266" y="5.917" fill-rule="evenodd" clip-rule="evenodd" width="4.626" height="0.743"/>
		</g>
		<g>
			<rect x="34.919" y="10.279" fill-rule="evenodd" clip-rule="evenodd" width="1.318" height="0.744"/>
		</g>
		<g>
			<rect x="35.23" y="6.468" fill-rule="evenodd" clip-rule="evenodd" width="0.695" height="3.883"/>
		</g>
		<g>
			<rect x="37.588" y="6.468" fill-rule="evenodd" clip-rule="evenodd" width="0.304" height="0.743"/>
		</g>
		<g>
			<rect x="33.267" y="6.474" fill-rule="evenodd" clip-rule="evenodd" width="0.304" height="0.743"/>
		</g>
	</g>
</g>
</svg>
