<?xml version="1.0" encoding="utf-8"?>
<!-- Generator: Adobe Illustrator 19.0.0, SVG Export Plug-In . SVG Version: 6.00 Build 0)  -->
<svg version="1.0" id="Layer_1" xmlns="http://www.w3.org/2000/svg" xmlns:xlink="http://www.w3.org/1999/xlink" x="0px" y="0px"
	 width="60px" height="55px" viewBox="-275 369 60 55" style="enable-background:new -275 369 60 55;" xml:space="preserve">
<style type="text/css">
	.st0{fill:#EC6289;}
</style>
<g>
	<g>
		<g>
			<g>
				<path class="st0" d="M-236.9,410.2h-31.9c-0.1,0-4.5-0.3-4.5-4.8v-25.3c0-0.1,0.9-4.3,5-4.3h35.4c0.1,0,4.5,0.8,4.5,4.8v9.6
					h-0.5v-9.6c0-3.6-4-4.3-4.1-4.3h-35.4c-3.7,0-4.5,3.7-4.5,3.9v25.3c0,4.1,3.9,4.3,4,4.3h31.9v0.4H-236.9z"/>
			</g>
			<g>
				<path class="st0" d="M-268.9,403.1c-0.4,0-1-0.1-1.5-0.5c-0.5-0.4-0.7-1-0.7-1.8v-20.1c0,0,0-0.9,0.6-1.6c0.5-0.5,1.1-0.7,2-0.7
					h35.2c0,0,2.7,0.2,2.7,2.7v9.1h-0.5v-9.1c0-2-2.1-2.2-2.2-2.2h-35.2c-0.7,0-1.3,0.2-1.6,0.6c-0.5,0.5-0.5,1.2-0.5,1.2v20.2
					c0,0.7,0.2,1.1,0.5,1.4c0.6,0.5,1.5,0.4,1.5,0.4h31.5v0.5h-31.4C-268.6,403.1-268.6,403.1-268.9,403.1z"/>
			</g>
			<g>
				<path class="st0" d="M-243.6,415.4h-14.7v-0.5c1.1,0,1.8-0.2,2.3-0.7c0.5-0.5,0.5-1.1,0.5-1.1v-2.6h0.5v2.6c0,0,0,0.8-0.6,1.5
					c-0.1,0.2-0.3,0.3-0.5,0.4h11c-0.9-0.4-1.8-1.1-1.8-2.2v-2.4h0.5v2.4c0,1.6,2.9,2.2,2.9,2.2L-243.6,415.4z"/>
			</g>
			<g>
				<rect x="-270.6" y="381.8" class="st0" width="39.7" height="0.5"/>
			</g>
			<g>
				<path class="st0" d="M-260.1,400.7h-7.9v-7.9h7.9V400.7z M-267.6,400.2h6.9v-6.9h-6.9V400.2z"/>
			</g>
			<g>
				<path class="st0" d="M-252.5,390.5h-15.5v-6.1h15.5L-252.5,390.5L-252.5,390.5z M-267.6,390h14.5v-5.1h-14.5V390z"/>
			</g>
			<g>
				<path class="st0" d="M-250.1,400.7h-7.9v-7.9h7.9L-250.1,400.7L-250.1,400.7z M-257.5,400.2h6.9v-6.9h-6.9V400.2z"/>
			</g>
			<g>
				<path class="st0" d="M-240,400.7h-7.9v-7.9h7.9V400.7z M-247.5,400.2h6.9v-6.9h-6.9V400.2z"/>
			</g>
			<g>
				<rect x="-250.5" y="384.8" class="st0" width="12.5" height="0.5"/>
			</g>
			<g>
				<rect x="-250.5" y="386.8" class="st0" width="14.5" height="0.5"/>
			</g>
			<g>
				<rect x="-250.5" y="388.7" class="st0" width="12.5" height="0.5"/>
			</g>
			<g>
				<path class="st0" d="M-250.9,408.4c-1,0-1.8-0.8-1.8-1.8s0.8-1.8,1.8-1.8s1.8,0.8,1.8,1.8S-250,408.4-250.9,408.4z
					 M-250.9,405.4c-0.7,0-1.3,0.6-1.3,1.3c0,0.7,0.6,1.3,1.3,1.3c0.7,0,1.3-0.6,1.3-1.3C-249.5,406-250.1,405.4-250.9,405.4z"/>
			</g>
			<g>
				<path class="st0" d="M-226.5,417c-0.6,0-1.2-0.5-1.2-1.2s0.5-1.2,1.2-1.2c0.7,0,1.2,0.5,1.2,1.2S-225.9,417-226.5,417z
					 M-226.5,415.1c-0.4,0-0.7,0.3-0.7,0.7s0.3,0.7,0.7,0.7s0.7-0.3,0.7-0.7S-226.1,415.1-226.5,415.1z"/>
			</g>
			<g>
				<path class="st0" d="M-235.4,418.3c-0.2,0-1,0-1.6-0.6c-0.3-0.3-0.5-0.7-0.5-1.2v-24.7l0,0c0,0-0.1-0.7,0.4-1.3
					c0.4-0.4,1-0.7,1.8-0.7h16.4c0,0,0.9,0,1.5,0.6c0.4,0.4,0.6,1,0.6,1.8v23.9c-0.1,0.8-0.7,2.1-2.1,2.1h-16.5
					C-235.3,418.3-235.3,418.3-235.4,418.3z M-218.9,390.4L-218.9,390.4h-16.4c-0.7,0-1.1,0.2-1.4,0.5c-0.3,0.4-0.3,0.9-0.3,0.9
					v24.7c0,0.4,0.1,0.7,0.3,0.9c0.5,0.4,1.2,0.4,1.2,0.4h16.5c1.3,0,1.6-1.6,1.6-1.7v-23.9c0-0.6-0.2-1.1-0.5-1.4
					C-218.1,390.4-218.8,390.4-218.9,390.4z"/>
			</g>
			<g>
				<path class="st0" d="M-220.1,414H-234c-0.1,0-1.5-0.3-1.5-1.3V393c0-0.5,0.4-1.4,1.6-1.4h13.9c0.6,0.1,1.6,0.6,1.6,1.6v19.3
					c0,0,0,0.6-0.4,1C-219.3,413.8-219.6,414-220.1,414z M-220.1,392.1H-234c-1,0-1.1,0.9-1.1,0.9v19.7c0,0.6,1,0.8,1,0.8h13.9
					c0.4,0,0.7-0.1,0.8-0.3c0.3-0.3,0.3-0.7,0.3-0.7v-19.3C-219,392.3-220.1,392.1-220.1,392.1z"/>
			</g>
			<g>
				<path class="st0" d="M-220.5,404.6h-13.3v-10.9h13.3V404.6z M-233.3,404.1h12.3v-9.9h-12.3V404.1z"/>
			</g>
			<g>
				<rect x="-233.1" y="407" class="st0" width="10" height="0.5"/>
			</g>
			<g>
				<rect x="-233" y="408.8" class="st0" width="8.3" height="0.5"/>
			</g>
			<g>
				<rect x="-223.5" y="383.7" class="st0" width="0.5" height="2.7"/>
			</g>
			<g>
				<rect x="-224.5" y="384.8" class="st0" width="2.6" height="0.5"/>
			</g>
			<g>
				<rect x="-219.3" y="374.7" class="st0" width="0.5" height="4.7"/>
			</g>
			<g>
				<rect x="-221.3" y="376.6" class="st0" width="4.4" height="0.5"/>
			</g>
		</g>
	</g>
</g>
</svg>
