<?xml version="1.0" encoding="utf-8"?>
<!-- Generator: Adobe Illustrator 15.1.0, SVG Export Plug-In . SVG Version: 6.00 Build 0)  -->
<!DOCTYPE svg PUBLIC "-//W3C//DTD SVG 1.1//EN" "http://www.w3.org/Graphics/SVG/1.1/DTD/svg11.dtd">
<svg version="1.1" id="Layer_1" xmlns="http://www.w3.org/2000/svg" xmlns:xlink="http://www.w3.org/1999/xlink" x="0px" y="0px"
	 width="60px" height="55px" viewBox="0 0 60 55" enable-background="new 0 0 60 55" xml:space="preserve">
<g>
	<g>
		<path fill="#0AAE99" d="M44.966,53.156l-33.065-0.01C8.97,52.398,8.974,50.083,8.98,46.88V24.219c0-0.641-0.035-1.441-0.072-2.288
			c-0.104-2.38-0.223-5.079,0.282-6.555c0.297-0.868,1.292-1.802,2.17-2.626c0.245-0.229,0.482-0.452,0.693-0.662
			c0.948-0.957,1.811-1.815,2.713-2.713l0.265-0.263c0.415-0.417,0.849-0.883,1.296-1.363c1.567-1.681,3.344-3.587,5.236-4.375
			l0.119-0.024H44.93c3.033,0.555,3.217,3.782,3.002,6.866l-0.009,0.121l-0.087,0.083c-0.34,0.321-0.706,0.433-1.027,0.531
			c-0.229,0.069-0.447,0.135-0.647,0.271c-0.362,0.24-0.627,0.613-0.886,0.975c-0.303,0.426-0.614,0.866-1.086,1.069l-0.436,0.188
			V7.519c-2.188-0.071-4.561-0.103-7.641-0.103c-1.521,0-3.049,0.008-4.577,0.015c-2.538,0.012-5.075,0.025-7.578,0.003
			c-0.223,1.304-0.118,2.764-0.016,4.178c0.128,1.757,0.249,3.417-0.237,4.744c-0.663,1.808-2.629,2.039-4.268,2.039
			c-0.757,0-1.578-0.054-2.373-0.107c-1.342-0.089-2.79-0.16-3.82-0.039c-0.129,6.258-0.109,12.774-0.09,19.078
			c0.013,3.862,0.025,7.854,0.003,11.751H43.68c0.108-1.458,0.096-3.077,0.084-4.786c-0.005-0.567-0.01-1.146-0.01-1.728
			c0-0.775-0.043-1.611-0.086-2.418c-0.085-1.617-0.175-3.287,0.094-4.563c0.166-0.797,1.016-1.873,1.553-2.294
			c0.32-0.25,0.688-0.411,1.041-0.566c0.412-0.185,0.805-0.354,1.025-0.632l0.553-0.687v15.291c0.004,3.35,0.006,5.77-2.935,6.451
			L44.966,53.156z M12.018,52.535h32.875c2.424-0.58,2.422-2.563,2.418-5.837V32.943c-0.223,0.135-0.467,0.242-0.705,0.348
			c-0.319,0.143-0.65,0.288-0.91,0.49c-0.495,0.389-1.207,1.357-1.325,1.932c-0.25,1.194-0.164,2.825-0.082,4.4
			c0.044,0.813,0.088,1.658,0.088,2.451c0,0.582,0.005,1.158,0.011,1.724c0.014,1.834,0.025,3.565-0.107,5.126L44.252,49.7H12.533
			l0.001-0.313c0.025-3.994,0.012-8.093,0-12.058c-0.021-6.396-0.041-13.012,0.095-19.359l0.005-0.262l0.259-0.038
			c0.502-0.076,1.065-0.113,1.722-0.113c0.814,0,1.667,0.056,2.491,0.111c0.82,0.055,1.595,0.105,2.331,0.105
			c2.163,0,3.265-0.487,3.684-1.63c0.44-1.202,0.325-2.798,0.202-4.486c-0.113-1.547-0.228-3.149,0.074-4.599l0.052-0.25
			l0.255,0.002c2.585,0.024,5.207,0.012,7.83,0c1.53-0.008,3.059-0.015,4.581-0.015c3.228,0,5.683,0.035,7.961,0.113l0.3,0.009
			v5.435c0.136-0.15,0.263-0.331,0.394-0.515c0.276-0.389,0.59-0.829,1.047-1.132c0.276-0.187,0.563-0.273,0.813-0.349
			c0.259-0.078,0.486-0.146,0.69-0.311c0.256-3.895-0.48-5.715-2.444-6.079l-23.13,0.006c-1.749,0.751-3.455,2.583-4.963,4.201
			c-0.454,0.486-0.892,0.957-1.313,1.379l-0.265,0.264c-0.9,0.896-1.763,1.754-2.711,2.711c-0.216,0.216-0.458,0.442-0.708,0.676
			c-0.825,0.775-1.76,1.652-2.007,2.375c-0.467,1.365-0.346,4.116-0.249,6.327c0.037,0.854,0.072,1.66,0.072,2.313v22.663
			C9.596,50.004,9.592,51.896,12.018,52.535z"/>
	</g>
	<g>
		<path fill="#0AAE99" d="M31.578,45.484c-0.237,0-0.666-0.092-0.871-0.707c-0.227-0.678,0.154-1.104,0.463-1.447
			c0.094-0.104,0.182-0.203,0.252-0.307c-0.098-0.051-0.25-0.148-0.257-0.35c-0.003-0.107,0.042-0.206,0.131-0.285
			c0.968-4.505,3.351-7.646,5.655-10.684c0.964-1.271,1.962-2.588,2.837-3.981c-0.021-0.031-0.056-0.065-0.112-0.119
			c-0.141-0.128-0.35-0.323-0.341-0.704l0.002-0.088l0.05-0.074c1.295-1.989,2.748-3.867,4.153-5.684
			c0.928-1.197,1.884-2.433,2.787-3.691c-0.019-0.011-0.033-0.023-0.052-0.037c-0.434,0.288-0.723,0.742-1.028,1.218
			c-0.147,0.231-0.296,0.461-0.458,0.672c-0.553,0.72-1.03,1.33-1.527,1.967c-0.544,0.692-1.111,1.418-1.832,2.357
			c-0.051,0.068-0.113,0.153-0.185,0.249c-0.696,0.949-1.435,1.875-2.121,1.875c-0.269,0-0.631-0.135-0.829-0.778
			c-0.242-0.783,0.695-1.86,1.523-2.811c0.211-0.239,0.399-0.458,0.543-0.641c0.576-0.751,1.298-1.76,2.062-2.828
			c1.683-2.353,3.589-5.02,4.704-5.962c0.178-0.149,0.396-0.229,0.635-0.229c0.489,0,0.92,0.328,1.021,0.78
			c0.136,0.554-0.184,0.958-0.438,1.283c-0.076,0.096-0.15,0.19-0.213,0.284c0.041,0.025,0.082,0.052,0.12,0.084
			c0.117-0.117,0.21-0.255,0.31-0.399c0.221-0.328,0.474-0.699,1.015-0.814c1.229-0.261,3.347,0.94,4.239,2.028
			c1.283,1.564,0.178,3.105-0.799,4.465c-0.217,0.299-0.431,0.597-0.619,0.895l-0.324,0.509c-2.055,3.218-4.387,6.865-6.309,9.68
			l-0.052,0.074l-0.08,0.033c-0.313,0.142-0.753,0.162-1.032,0.043c-1.07,1.334-2.062,2.793-3.017,4.205
			c-2.155,3.186-4.388,6.478-7.729,8.604c-0.315,0.14-0.459,0.132-0.603,0.085C32.923,44.837,32.221,45.484,31.578,45.484
			L31.578,45.484z M31.889,42.59c0.274,0.221,0.225,0.453,0.163,0.588c-0.114,0.229-0.27,0.399-0.42,0.567
			c-0.295,0.328-0.444,0.516-0.337,0.834c0.096,0.285,0.209,0.282,0.283,0.282c0.42,0,1.107-0.688,1.238-1.135l0.131-0.453
			l0.363,0.301c0.028,0.023,0.104,0.086,0.129,0.096c0-0.002,0.031-0.004,0.129-0.045c3.188-2.033,5.379-5.271,7.5-8.402
			c1.019-1.505,2.072-3.062,3.232-4.478l0.268-0.323L44.8,30.77c0.013,0.019,0.087,0.058,0.233,0.058
			c0.091,0,0.188-0.017,0.27-0.041c1.906-2.797,4.209-6.401,6.243-9.585l0.326-0.508c0.194-0.307,0.415-0.615,0.637-0.923
			c1.122-1.563,1.739-2.594,0.824-3.709c-0.767-0.931-2.668-2.018-3.632-1.813c-0.282,0.06-0.416,0.24-0.631,0.555
			c-0.172,0.256-0.367,0.546-0.715,0.754l-0.328,0.197l-0.125-0.361c-0.021-0.057-0.09-0.096-0.233-0.165l-0.341-0.171l0.092-0.258
			c0.1-0.275,0.275-0.5,0.434-0.699c0.248-0.314,0.385-0.503,0.324-0.756c-0.045-0.197-0.248-0.3-0.416-0.3
			c-0.063,0-0.154,0.014-0.234,0.081c-1.055,0.893-2.938,3.526-4.6,5.849c-0.768,1.073-1.49,2.085-2.076,2.846
			c-0.146,0.191-0.348,0.42-0.563,0.67c-0.577,0.661-1.541,1.767-1.398,2.218c0.029,0.104,0.116,0.342,0.234,0.342
			c0.432,0,1.295-1.178,1.619-1.622c0.074-0.101,0.14-0.19,0.191-0.26c0.723-0.941,1.291-1.668,1.834-2.362
			c0.5-0.637,0.977-1.244,1.526-1.963c0.151-0.198,0.289-0.413,0.429-0.629c0.387-0.605,0.787-1.231,1.514-1.574l0.395-0.185
			l0.047,0.413c0.006-0.009,0.026,0.002,0.045,0.012c0.09,0.05,0.227,0.124,0.307,0.281l0.09,0.169l-0.109,0.154
			c-0.963,1.352-1.986,2.676-2.977,3.956c-1.377,1.779-2.801,3.618-4.067,5.553c0.015,0.05,0.054,0.088,0.134,0.162
			c0.121,0.113,0.308,0.285,0.334,0.595l0.008,0.104l-0.053,0.088c-0.908,1.46-1.94,2.826-2.94,4.145
			C35.17,35.083,32.816,38.186,31.889,42.59z"/>
	</g>
	<g>
		<path fill="#0AAE99" d="M17.188,25.207l-0.618-0.054c0.022-0.261,0.01-0.572-0.003-0.875c-0.021-0.54-0.043-1.099,0.12-1.517
			l0.077-0.197h19.903v0.621H17.212c-0.055,0.293-0.04,0.686-0.024,1.067C17.202,24.575,17.215,24.907,17.188,25.207z"/>
	</g>
	<g>
		<path fill="#0AAE99" d="M17.188,30.2l-0.618-0.056c0.022-0.261,0.01-0.568-0.003-0.871c-0.021-0.539-0.043-1.099,0.12-1.517
			l0.579,0.226c-0.117,0.298-0.096,0.791-0.078,1.265C17.202,29.57,17.215,29.902,17.188,30.2z"/>
	</g>
	<g>
		<rect x="16.977" y="27.561" fill="#0AAE99" width="19.981" height="0.621"/>
	</g>
	<g>
		<path fill="#0AAE99" d="M17.188,35.195l-0.618-0.053c0.022-0.262,0.01-0.572-0.003-0.875c-0.021-0.539-0.043-1.099,0.12-1.518
			l0.077-0.195H33.5v0.618H17.212c-0.055,0.294-0.04,0.688-0.024,1.069C17.202,34.564,17.215,34.896,17.188,35.195z"/>
	</g>
	<g>
		<path fill="#0AAE99" d="M19.242,41.498c-0.833,0-1.527-0.299-1.855-0.801c-0.2-0.305-0.365-0.831-0.024-1.617l0.046-0.104
			l0.103-0.052c0.197-0.096,0.396-0.146,0.592-0.146c0.484,0,0.844,0.287,1.114,0.521c0.437-0.26,0.993-0.561,1.476-0.561
			c0.239,0,0.807,0.089,0.911,0.905c0.051,0.397-0.064,0.772-0.336,1.082C20.852,41.203,20.075,41.498,19.242,41.498z
			 M17.887,39.441c-0.14,0.373-0.134,0.683,0.019,0.914c0.21,0.32,0.723,0.521,1.336,0.521c0.649,0,1.262-0.219,1.56-0.56
			c0.154-0.176,0.215-0.369,0.186-0.596c-0.045-0.361-0.19-0.361-0.294-0.361c-0.383,0-0.994,0.373-1.322,0.57l-0.19,0.118
			l-0.317-0.233C18.586,39.575,18.264,39.311,17.887,39.441z"/>
	</g>
	<g>
		<path fill="#0AAE99" d="M22.44,46.239l-0.097-0.003c-0.984-0.041-1.396-0.67-1.761-1.221c-0.352-0.533-0.632-0.959-1.368-0.983
			c-0.143,0.169-0.188,0.437-0.235,0.72c-0.078,0.467-0.195,1.175-1.034,1.196h-0.001c-0.479,0-0.816-0.236-0.986-0.667
			c-0.323-0.813,0.01-2.223,0.671-2.844c0.453-0.427,0.972-0.641,1.543-0.641c1.426,0,2.84,1.385,3.455,2.03
			c0.27-0.118,0.508-0.265,0.758-0.414c0.542-0.327,1.1-0.665,2.008-0.772c0.153-0.02,0.335-0.027,0.535-0.027
			c1.088,0,3.467,0.32,3.879,1.311c0.102,0.246,0.129,0.633-0.312,1.074c-0.37,0.366-1.112,0.25-1.958,0.038
			c-0.521-0.127-1.062-0.265-1.512-0.235c-0.931,0.053-1.445,0.42-1.943,0.775C23.624,45.9,23.152,46.239,22.44,46.239z
			 M19.086,43.41c1.182,0,1.643,0.699,2.014,1.264c0.336,0.51,0.603,0.915,1.269,0.942l0.071,0.002c0.512,0,0.85-0.242,1.278-0.548
			c0.518-0.369,1.16-0.826,2.268-0.891c0.522-0.033,1.132,0.113,1.698,0.256c0.62,0.151,1.225,0.268,1.369,0.121
			c0.159-0.158,0.218-0.293,0.176-0.396c-0.194-0.47-1.831-0.929-3.304-0.929c-0.172,0-0.328,0.007-0.461,0.022
			c-0.774,0.093-1.254,0.382-1.761,0.688c-0.316,0.192-0.644,0.391-1.048,0.541l-0.193,0.074l-0.143-0.151
			c-0.461-0.492-1.863-1.991-3.149-1.991c-0.414,0-0.78,0.152-1.118,0.471c-0.468,0.44-0.745,1.594-0.519,2.161
			c0.097,0.245,0.25,0.276,0.373,0.276c0.302-0.008,0.364-0.102,0.46-0.678c0.064-0.389,0.145-0.865,0.532-1.172l0.082-0.064
			l0.104-0.003C19.085,43.41,19.085,43.41,19.086,43.41z"/>
	</g>
</g>
</svg>
