<?xml version="1.0" encoding="utf-8"?>
<!-- Generator: Adobe Illustrator 19.0.0, SVG Export Plug-In . SVG Version: 6.00 Build 0)  -->
<svg version="1.0" id="Layer_1" xmlns="http://www.w3.org/2000/svg" xmlns:xlink="http://www.w3.org/1999/xlink" x="0px" y="0px"
	 width="60px" height="55px" viewBox="-275 369 60 55" style="enable-background:new -275 369 60 55;" xml:space="preserve">
<style type="text/css">
	.st0{fill:#38BDAD;}
</style>
<g>
	<g>
		<g>
			<path class="st0" d="M-241.1,372.8c0.2,0.5-1,0.4-1.1,0.2C-242.3,372.5-241.1,372.6-241.1,372.8z"/>
		</g>
		<g>
			<path class="st0" d="M-238.9,373.1c-0.4-0.1-1.1,0.2-1.2-0.2C-240.2,372.4-238.7,372.5-238.9,373.1z"/>
		</g>
		<g>
			<path class="st0" d="M-236.9,372.8c0.2,0.5-1,0.4-1.1,0.2C-238.2,372.5-237,372.6-236.9,372.8z"/>
		</g>
		<g>
			<path class="st0" d="M-251.4,373.1c0.1,0,0.1,0.1,0.1,0.2c0.5,2,2.2,4.5,2.6,6.8c0.5,2.8,0,6.6,0,10.1c0,6.9,0,13.2,0,20.3
				c0,2.9,0.5,8.5-0.6,9.5c-0.4,0.3-1.2,0.5-2,0.5c-0.9,0-1.9-0.2-2.1-0.5c-1-1-0.5-6.9-0.5-9.7c0-6.9,0-13.4,0-20.3
				c0-3.5-0.4-7.1,0-10C-253.5,377.7-251.7,375.3-251.4,373.1L-251.4,373.1 M-252.8,379.6c1,0,1.9,0,2.9,0c-0.5-1.3-0.8-2.8-1.5-3.8
				C-251.8,377.1-252.3,378.3-252.8,379.6 M-249.6,380.5c-1.1,0-2.2,0-3.2,0c-0.2,0-0.2,0.2-0.2,0.5c0.2,12.8-0.4,26.2,0.3,38.4
				c0.3,0.1,0.8,0.2,1.3,0.2c0.6,0,1.2-0.1,1.5-0.2C-249.2,407-249.8,393.4-249.6,380.5 M-251.4,372.9L-251.4,372.9L-251.4,372.9
				L-251.4,372.9h-0.3v0.2c-0.2,1-0.6,2.1-1.2,3.3c-0.5,1.2-1.1,2.4-1.3,3.7c-0.3,1.9-0.2,4.1-0.1,6.5c0,1.2,0.1,2.4,0.1,3.6v20.3
				c0,0.6,0,1.5-0.1,2.3c-0.1,3.8-0.2,6.8,0.6,7.5c0.4,0.4,1.4,0.5,2.3,0.5c0.5,0,1.6-0.1,2.2-0.5c0.9-0.8,0.9-3.7,0.7-7.5
				c0-0.8-0.1-1.6-0.1-2.2v-20.3c0-1.2,0.1-2.4,0.1-3.6c0.1-2.4,0.2-4.7-0.1-6.6c-0.2-1.2-0.8-2.5-1.4-3.8c-0.5-1.1-1-2.1-1.2-3
				C-251,372.9-251.3,372.9-251.4,372.9L-251.4,372.9z M-252.4,379.3c0.1-0.3,0.2-0.6,0.3-0.8c0.3-0.7,0.5-1.4,0.8-2.1
				c0.4,0.7,0.6,1.5,0.9,2.3c0.1,0.2,0.1,0.4,0.2,0.7L-252.4,379.3L-252.4,379.3z M-252.4,419.2c-0.4-7.5-0.4-15.6-0.3-23.5
				c0-4.9,0.1-9.9,0-14.8c0-0.1,0-0.2,0-0.2h2.9c-0.1,4.8,0,9.8,0,14.6c0.1,8,0.1,16.2-0.3,23.8c-0.3,0.1-0.8,0.1-1.3,0.1
				C-251.8,419.3-252.2,419.3-252.4,419.2L-252.4,419.2z"/>
		</g>
		<g>
			<path class="st0" d="M-220.7,373.9c0,15.5,0,31,0,46.6c-3.6,0-7.3,0-10.9,0c0-15.4,0-30.7,0-46.1c0-0.2,0-0.4,0.2-0.5
				C-227.9,373.9-224.3,373.9-220.7,373.9 M-230.7,419.5c3,0,6,0,9.1,0c0-0.7,0-1.3,0-2c-0.1,0-0.2,0-0.4,0c-0.4,0-0.9,0.1-1.3,0.1
				c-0.4,0-0.7-0.1-0.7-0.5c0.1-0.3,0.4-0.4,0.8-0.4c0.4,0,0.9,0.1,1.3,0.1c0.1,0,0.3,0,0.4,0c0-0.7,0-1.3,0-2c-0.1,0-0.2,0-0.4,0
				c-0.4,0-0.9,0.1-1.3,0.1c-0.5,0-0.9-0.1-0.8-0.7c0.1-0.3,0.5-0.3,0.9-0.3s0.8,0.1,1.2,0.1c0.1,0,0.3,0,0.4,0c0-0.7,0-1.3,0-2
				c-0.1,0-0.2,0-0.4,0c-0.4,0-0.9,0.1-1.3,0.1c-0.4,0-0.8-0.1-0.8-0.5s0.4-0.5,0.8-0.5c0.4,0,0.9,0.1,1.3,0.1c0.1,0,0.3,0,0.4,0
				c0-0.6,0-1.2,0-1.8c-0.1,0-0.2,0-0.4,0c-0.4,0-0.9,0.1-1.3,0.1c-0.4,0-0.8-0.1-0.8-0.5s0.4-0.5,0.8-0.5c0.4,0,0.9,0.1,1.3,0.1
				c0.1,0,0.3,0,0.4,0c0-0.7,0-1.3,0-2c-0.1,0-0.2,0-0.4,0c-0.4,0-0.9,0.1-1.3,0.1c-0.4,0-0.8-0.1-0.8-0.5s0.4-0.5,0.8-0.5
				c0.4,0,0.9,0.1,1.3,0.1c0.1,0,0.3,0,0.4,0c0-0.6,0-1.2,0-1.8c-0.1,0-0.2,0-0.4,0c-0.4,0-0.8,0.1-1.2,0.1c-0.6,0-1.1-0.1-0.9-1
				c0.8,0,1.6,0,2.5,0c0-0.7,0-1.3,0-2c-0.1,0-0.2,0-0.4,0c-0.4,0-0.9,0.1-1.3,0.1c-0.5,0-0.9-0.1-0.8-0.7c0.1-0.3,0.5-0.3,0.9-0.3
				s0.8,0.1,1.2,0.1c0.1,0,0.3,0,0.4,0c0-0.7,0-1.3,0-2c-0.1,0-0.2,0-0.4,0c-0.4,0-0.9,0.1-1.3,0.1c-0.4,0-0.8-0.1-0.8-0.5
				c0.1-0.3,0.5-0.3,0.9-0.3s0.8,0.1,1.2,0.1c0.1,0,0.3,0,0.4,0c0-0.7,0-1.3,0-2c-0.1,0-0.2,0-0.4,0c-0.4,0-0.9,0.1-1.3,0.1
				c-0.4,0-0.8-0.1-0.8-0.5s0.4-0.5,0.8-0.5c0.4,0,0.9,0.1,1.3,0.1c0.1,0,0.3,0,0.4,0c0-0.7,0-1.3,0-2c-0.1,0-0.2,0-0.4,0
				c-0.4,0-0.9,0.1-1.3,0.1c-0.5,0-0.9-0.1-0.8-0.7c0.1-0.3,0.5-0.3,0.9-0.3s0.8,0.1,1.2,0.1c0.1,0,0.3,0,0.4,0c0-0.6,0-1.2,0-1.8
				c-0.1,0-0.2,0-0.4,0c-0.4,0-0.9,0.1-1.3,0.1c-0.4,0-0.8-0.1-0.8-0.5s0.4-0.5,0.8-0.5c0.4,0,0.9,0.1,1.3,0.1c0.1,0,0.3,0,0.4,0
				c0-0.7,0-1.3,0-2c-0.1,0-0.2,0-0.4,0c-0.4,0-0.8,0.1-1.2,0.1s-0.7-0.1-0.9-0.3c0.2,0,0.1-0.2,0-0.3c0.1-0.3,0.5-0.3,0.9-0.3
				s0.8,0.1,1.2,0.1c0.1,0,0.3,0,0.4,0c0-0.6,0-1.2,0-1.8c-0.1,0-0.2,0-0.4,0c-0.4,0-0.8,0.1-1.2,0.1c-0.5,0-0.9-0.1-0.9-0.6
				c0.1-0.3,0.5-0.3,0.9-0.3s0.8,0.1,1.2,0.1c0.1,0,0.3,0,0.4,0c0-0.7,0-1.3,0-2c-0.1,0-0.2,0-0.4,0c-0.4,0-0.9,0.1-1.3,0.1
				c-0.5,0-0.9-0.1-0.8-0.7c0.1-0.3,0.5-0.3,0.9-0.3s0.8,0.1,1.2,0.1c0.1,0,0.3,0,0.4,0c0-0.7,0-1.3,0-2c-0.1,0-0.2,0-0.4,0
				c-0.4,0-0.9,0.1-1.3,0.1c-0.4,0-0.8-0.1-0.8-0.5s0.5-0.5,1-0.5c0.6,0,1.2,0.1,1.5,0.2c0-0.7,0-1.3,0-2c-3,0-6,0-9.1,0
				C-230.7,389.7-230.7,404.6-230.7,419.5 M-220.4,373.7h-0.3h-10.8c-0.4,0.1-0.4,0.5-0.4,0.7v46.1v0.3h0.3h10.9h0.3v-0.3v-46.6
				V373.7L-220.4,373.7z M-230.4,375.1h8.6v1.4c-0.3-0.1-0.8-0.1-1.2-0.1c-1.1,0-1.2,0.5-1.2,0.8c0,0.5,0.4,0.8,1.1,0.8
				c0.2,0,0.4,0,0.6,0c0.2,0,0.4,0,0.6,0h0.1v1.6h-0.1c-0.2,0-0.4,0-0.6,0c-0.2,0-0.4,0-0.6,0c-0.4,0-0.9,0.1-1.1,0.5l0,0l0,0
				c0,0.3,0,0.5,0.2,0.6c0.2,0.3,0.6,0.3,0.9,0.3c0.2,0,0.4,0,0.7,0c0.2,0,0.4,0,0.6,0c0.1,0,0.1,0,0.1,0v1.6h-0.1
				c-0.2,0-0.4,0-0.6,0c-0.2,0-0.4,0-0.6,0c-0.4,0-0.9,0-1.1,0.5l0,0v0.1c0,0.3,0.1,0.5,0.2,0.6c0.2,0.3,0.6,0.3,0.9,0.3
				c0.2,0,0.4,0,0.6,0c0.2,0,0.4,0,0.6,0h0.1v1.4h-0.1c-0.2,0-0.4,0-0.6,0c-0.2,0-0.4,0-0.6,0c-0.4,0-0.9,0-1.1,0.5l-0.1,0.1
				l0.1,0.1h-0.1l0.1,0.3c0.2,0.4,0.7,0.5,1.1,0.5c0.2,0,0.4,0,0.6,0c0.2,0,0.4,0,0.6,0h0.1v1.6h-0.1c-0.2,0-0.4,0-0.6,0
				c-0.2,0-0.4,0-0.6,0c-0.7,0-1,0.2-1.1,0.7c0,0.5,0.4,0.8,1.1,0.8c0.2,0,0.4,0,0.6,0c0.2,0,0.4,0,0.6,0h0.1v1.4h-0.1
				c-0.2,0-0.4,0-0.6,0c-0.2,0-0.4,0-0.6,0c-0.4,0-0.9,0.1-1.1,0.5l0,0l0,0c0,0.3,0,0.5,0.2,0.6c0.2,0.3,0.6,0.3,0.9,0.3
				c0.2,0,0.4,0,0.7,0c0.2,0,0.4,0,0.6,0h0.1v1.6h-0.1c-0.2,0-0.4,0-0.6,0c-0.2,0-0.4,0-0.6,0c-0.7,0-1,0.2-1.1,0.7
				c0,0.5,0.4,0.8,1.1,0.8c0.2,0,0.4,0,0.6,0c0.2,0,0.4,0,0.6,0h0.1v1.6h-0.1c-0.2,0-0.4,0-0.6,0c-0.2,0-0.4,0-0.6,0
				c-0.4,0-0.9,0.1-1.1,0.5v0.1v0.1c0,0.5,0.4,0.7,1.1,0.7c0.2,0,0.4,0,0.6,0c0.2,0,0.4,0,0.6,0h0.1v1.6h-0.1c-0.2,0-0.4,0-0.6,0
				c-0.2,0-0.4,0-0.6,0c-0.4,0-0.9,0.1-1.1,0.5l0,0l0,0c0,0.3,0,0.5,0.2,0.7c0.2,0.3,0.6,0.3,0.9,0.3c0.2,0,0.4,0,0.7,0
				c0.2,0,0.4,0,0.6,0h0.1v1.5h-2.2h-0.2v0.2c-0.1,0.4,0,0.7,0.1,0.9c0.3,0.3,0.7,0.3,1.1,0.3c0.2,0,0.4,0,0.6,0c0.2,0,0.4,0,0.6,0
				h0.1v1.4h-0.1c-0.2,0-0.4,0-0.6,0c-0.2,0-0.4,0-0.6,0c-0.7,0-1,0.2-1.1,0.7c0,0.5,0.4,0.8,1.1,0.8c0.2,0,0.4,0,0.6,0
				c0.2,0,0.4,0,0.6,0h0.1v1.6h-0.1c-0.2,0-0.4,0-0.6,0c-0.2,0-0.4,0-0.6,0c-0.7,0-1,0.2-1.1,0.7c0,0.5,0.4,0.8,1.1,0.8
				c0.2,0,0.4,0,0.6,0c0.2,0,0.4,0,0.6,0h0.1v1.4h-0.1c-0.2,0-0.4,0-0.6,0c-0.2,0-0.4,0-0.6,0c-0.7,0-1,0.2-1.1,0.7
				c0,0.5,0.4,0.8,1.1,0.8c0.2,0,0.4,0,0.6,0c0.2,0,0.4,0,0.6,0h0.1v1.6h-0.1c-0.2,0-0.4,0-0.6,0c-0.2,0-0.4,0-0.6,0
				c-0.4,0-0.9,0-1.1,0.5l0,0l0,0c0,0.3,0,0.5,0.2,0.7c0.2,0.3,0.6,0.3,0.9,0.3c0.2,0,0.4,0,0.7,0c0.2,0,0.4,0,0.6,0
				c0.1,0,0.1,0,0.1,0v1.6h-0.1c-0.2,0-0.4,0-0.6,0c-0.2,0-0.5,0-0.7,0s-0.8,0-1,0.5l0,0l0,0c0,0.3,0.2,0.8,1,0.8
				c0.2,0,0.5,0,0.7-0.1c0.2,0,0.4,0,0.6,0c0.1,0,0.1,0,0.1,0v1.5h-8.6L-230.4,375.1L-230.4,375.1z"/>
		</g>
		<g>
			<path class="st0" d="M-263.3,374.4c1.1,0,0.6,3.1,0.6,4.3c0,3.2,0.3,5.5-1.7,6.5c-1.5,0.8-3,0.2-3.7,1.4
				c-0.7,1.1-0.7,4.4,0.2,5.7c0.8,1.1,2.4,0.6,3.7,1.4c2,1.2,1.4,2.7,1.5,5.8c2.7,0.2,5.2,1.1,5.7,4c0.3,1.7,0,4.4,0,6.8
				c0,5,0.5,8.7-2.8,10c-1,0.4-2,0.6-3,0.6c-2.7,0-5.3-1.2-6.1-2.7c-0.7-1.4-1-13-0.3-15.2c0.7-2.4,2.5-3.2,5.5-3.2
				c-0.1-1.9,0.3-3.1-0.3-4.3c-0.7-1.4-2.4-0.9-3.7-1.5c-2.3-1.2-2.5-7.5,0-8.8c0.9-0.4,2,0,3.1-0.8c2.3-1.6,0-6.5,1.1-9.8
				C-263.4,374.4-263.4,374.4-263.3,374.4 M-262.9,419.8c0.8,0,1.7-0.1,2.5-0.4c3-1,2.5-5.1,2.5-9.1c0-2.6,0.4-5.6-0.2-7.4
				s-2.7-2.5-5-2.5c-0.7,0-1.5,0.1-2.2,0.2c-3.9,0.8-3.1,4.7-3.1,9.4c0,2.3-0.6,4.8,0.2,7.1C-267.7,418.6-265.4,419.8-262.9,419.8
				 M-263.3,374.1L-263.3,374.1c-0.1,0-0.1,0-0.2,0h-0.1v0.1c-0.5,1.5-0.3,3.2-0.1,4.8c0.2,2.1,0.4,4-0.8,4.9
				c-0.6,0.4-1.2,0.4-1.7,0.5c-0.5,0-0.9,0.1-1.3,0.3c-1.4,0.7-2,2.9-1.9,4.6c0,1.7,0.5,3.9,1.9,4.6c0.5,0.2,1,0.3,1.6,0.4
				c0.9,0.1,1.6,0.2,2,1c0.4,0.7,0.3,1.4,0.3,2.4c0,0.5,0,1,0,1.6c-3.2,0.1-4.8,1.1-5.5,3.4s-0.4,14,0.3,15.4
				c0.9,1.6,3.6,2.9,6.3,2.9c1.1,0,2.2-0.2,3.1-0.6c3-1.2,3-4.5,2.9-8.5c0-0.5,0-1.1,0-1.7c0-0.8,0-1.6,0.1-2.5
				c0.1-1.6,0.1-3.2-0.1-4.3c-0.4-2.5-2.3-3.9-5.7-4.2c0-0.6,0-1.1,0-1.6c0-2,0-3.2-1.6-4.2c-0.6-0.4-1.3-0.5-1.8-0.5
				c-0.7-0.1-1.4-0.2-1.8-0.8c-0.8-1.2-0.8-4.3-0.1-5.4c0.4-0.6,1-0.7,1.7-0.8c0.6-0.1,1.2-0.2,1.9-0.5c1.9-1,1.9-2.9,1.8-5.7
				c0-0.3,0-0.7,0-1c0-0.2,0-0.6,0-0.9c0.1-1.3,0.2-2.8-0.4-3.4C-262.9,374.2-263.1,374.1-263.3,374.1L-263.3,374.1z M-262.9,419.5
				c-2.4,0-4.6-1.1-5.1-2.5c-0.5-1.5-0.4-3.2-0.3-4.9c0.1-0.7,0.1-1.4,0.1-2.1s0-1.4,0-2.1c-0.1-3.7-0.2-6.4,2.9-7.1
				c0.7-0.1,1.4-0.2,2.2-0.2c2.5,0,4.3,0.9,4.8,2.4c0.4,1.2,0.3,3,0.2,4.9c0,0.8-0.1,1.6-0.1,2.4c0,0.5,0,1,0,1.5
				c0.1,3.3,0.1,6.5-2.3,7.3C-261.2,419.4-262,419.5-262.9,419.5L-262.9,419.5z"/>
		</g>
		<g>
			<path class="st0" d="M-243.8,374.5c0.5-0.2,0.4,1,0.2,1.1C-244.2,375.8-244.1,374.6-243.8,374.5z"/>
		</g>
		<g>
			<path class="st0" d="M-235.4,374.5c0.5-0.2,0.4,1,0.2,1.1C-235.7,375.8-235.6,374.6-235.4,374.5z"/>
		</g>
		<g>
			<path class="st0" d="M-243.8,376.7c0.5-0.2,0.4,1,0.2,1.1C-244.2,377.9-244.1,376.7-243.8,376.7z"/>
		</g>
		<g>
			<path class="st0" d="M-235.4,376.7c0.5-0.2,0.4,1,0.2,1.1C-235.7,377.9-235.6,376.7-235.4,376.7z"/>
		</g>
		<g>
			<path class="st0" d="M-243.8,378.8c0.5-0.2,0.4,1,0.2,1.1C-244.2,380.1-244.1,378.9-243.8,378.8z"/>
		</g>
		<g>
			<path class="st0" d="M-235.4,378.8c0.5-0.2,0.4,1,0.2,1.1C-235.7,380.1-235.6,378.9-235.4,378.8z"/>
		</g>
		<g>
			<path class="st0" d="M-241.1,381.3c0.2,0.6-0.9,0.6-1.1,0.3C-242.3,381-241.4,381.4-241.1,381.3z"/>
		</g>
		<g>
			<path class="st0" d="M-240.1,381.3c0.4,0,0.8,0,1.2,0C-238.7,382-240.3,382-240.1,381.3z"/>
		</g>
		<g>
			<path class="st0" d="M-238,381.3c0.3,0.1,1-0.2,1.1,0.2C-236.8,382-238.2,381.9-238,381.3z"/>
		</g>
		<g>
			<path class="st0" d="M-239.5,384c2.2,0,4.3,1.3,5,3.2c1.7,4.4-2,7.6-5.5,7.6c-1.9,0-3.8-0.9-4.6-3.1c-0.4-0.9-0.7-2.7,0-4.5
				c0.4-1.1,1.7-2.7,4.1-3.1C-240.1,384-239.8,384-239.5,384 M-239.3,394c1,0,2.1-0.4,3-1.3c2.8-2.8,0.8-7.8-3.2-7.8
				c-0.3,0-0.6,0-1,0.1c-1.2,0.2-1.9,0.6-2.5,1.2C-245.9,389.5-242.8,394-239.3,394 M-239.5,383.7L-239.5,383.7c-0.3,0-0.7,0-1,0.1
				c-3,0.5-4.1,2.6-4.3,3.2c-0.7,1.7-0.4,3.5,0,4.6c0.8,2.1,2.6,3.3,4.9,3.3c2.1,0,4.2-1.1,5.3-2.7c1-1.5,1.2-3.3,0.4-5.2
				C-235,385.1-237.1,383.7-239.5,383.7L-239.5,383.7z M-239.3,393.7c-1.7,0-3.5-1.2-4.2-2.9c-0.7-1.5-0.4-3.1,0.8-4.4
				c0.6-0.6,1.2-0.9,2.3-1.2c0.3-0.1,0.6-0.1,0.9-0.1c1.7,0,3.2,1,3.9,2.7s0.3,3.5-0.9,4.7C-237.3,393.3-238.3,393.7-239.3,393.7
				L-239.3,393.7z"/>
		</g>
		<g>
			<path class="st0" d="M-239.7,396.3c2.3,3.4,3.7,7.5,5.8,11.1c-1.4,0.1-2.9,0.2-4.4,0.2c-1.7,0-3.5,0-5.2,0c-0.6,0-1.2,0-1.8,0
				C-243.4,403.8-241.4,400.2-239.7,396.3 M-243.7,406.8c2.8,0,5.5,0,8.3,0c-1.3-3-2.6-5.9-4.3-8.5
				C-240.9,401.3-242.6,403.8-243.7,406.8 M-239.7,395.8l-0.2,0.4c-1.1,2.4-2.3,4.7-3.4,7c-0.7,1.4-1.4,2.8-2.1,4.3l-0.2,0.4h0.4
				c0.6,0,1.2,0,1.8,0c0.9,0,1.7,0,2.6,0c0.9,0,1.7,0,2.6,0c1.8,0,3.2-0.1,4.4-0.2h0.4l-0.2-0.3c-0.9-1.5-1.7-3.2-2.5-4.9
				c-1-2.1-2-4.3-3.3-6.2L-239.7,395.8L-239.7,395.8z M-243.3,406.5c0.6-1.5,1.3-2.9,2-4.2c0.6-1.1,1.2-2.2,1.7-3.5
				c1.5,2.3,2.7,4.9,3.9,7.7H-243.3L-243.3,406.5z"/>
		</g>
		<g>
			<path class="st0" d="M-250.8,405.9c0,1.1,0,2.5,0,3.8c0,1.1,0.5,2.9-0.6,3.2c-0.7-1.7-0.1-4.8-0.3-7.1
				C-251.4,405.9-251.1,405.9-250.8,405.9 M-250.6,405.6h-0.3h-0.9h-0.3v0.3c0.1,0.8,0,1.8,0,2.8c-0.1,1.6-0.1,3.2,0.3,4.4l0.1,0.2
				l0.2-0.1c1-0.3,0.9-1.6,0.8-2.6c0-0.3,0-0.6,0-0.8V406L-250.6,405.6L-250.6,405.6z"/>
		</g>
		<g>
			<path class="st0" d="M-234.2,409.6c0,3.6,0,7.3,0,10.9c-3.6,0-7.2,0-10.8,0c0.1-3.6-0.2-7.6,0.2-10.9
				C-241.2,409.6-237.7,409.6-234.2,409.6 M-244.1,419.5c3.1,0,6.1,0,9.2,0c0-3,0-6,0-9.1c-3.1,0-6.1,0-9.2,0
				C-244.1,413.5-244.1,416.5-244.1,419.5 M-233.9,409.3h-0.3h-10.6h-0.2v0.2c-0.2,2.1-0.2,4.4-0.2,6.7c0,1.4,0,2.8,0,4.2v0.3h0.3
				h10.8h0.3v-0.3v-10.9L-233.9,409.3L-233.9,409.3z M-243.9,410.7h8.7v8.6h-8.7V410.7L-243.9,410.7z"/>
		</g>
		<g>
			<path class="st0" d="M-262.9,404c0.1,0,0.1,0.1,0.1,0.2s0.1,0.1,0.2,0.2c-0.4,0.3-0.9,0.5-1.5,0.6c0.2,0.2,0.2,0.4,0,0.6
				c-0.2,0-0.1-0.2,0-0.2l0,0c0-0.2-0.2-0.1-0.3-0.2c-0.3,0,0,0.7-0.3,0.8c-0.4-0.5,0.4-1.4,0.9-2l0,0c0.2,0,0.5,0.2,0.7,0.2
				C-263.1,404.2-263,404.2-262.9,404C-263,404-263,404-262.9,404 M-264,404.5c-0.1,0-0.1,0-0.2,0c-0.3,0.3-0.3,0.4-0.2,0.4
				c0.2,0,1-0.6,1.5-0.6c-0.1,0-0.1,0-0.2,0C-263.5,404.3-263.7,404.5-264,404.5 M-262.9,403.8L-262.9,403.8h-0.1h-0.1v0.1l0,0
				c-0.1,0-0.1,0-0.2-0.1s-0.3-0.1-0.4-0.1l0,0h-0.1h-0.1l-0.1,0.1c-0.7,0.8-1.4,1.7-0.9,2.3l0.1,0.2l0.2-0.1
				c0.3-0.1,0.3-0.3,0.3-0.5c0,0,0.1,0.1,0.2,0.1h0.1l0.1-0.1c0.2-0.2,0.2-0.4,0.2-0.6c0.5-0.1,1-0.3,1.3-0.6l0.5-0.4l-0.6-0.1
				C-262.6,403.8-262.9,403.8-262.9,403.8L-262.9,403.8z"/>
		</g>
		<g>
			<path class="st0" d="M-261.8,404.9c0.3,0,0.2,0.4,0.5,0.5c0,0.1,0,0.1-0.1,0.1s-0.3-0.3-0.2-0.4c-0.5,0.3,0.5,0.4,0.3,0.9
				c-0.1-0.1-0.1-0.1-0.2-0.1c-0.2,0-0.4,0.3-0.6,0.4c0,0.1,0.1,0.1,0.1,0.1c0.1,0,0.1-0.1,0.2-0.1c0,0,0.1,0,0.2,0.1
				c-0.2,0.3-0.4,0.6-0.6,0.9c-0.1-0.1-0.4-0.1-0.5-0.3c0,0.3-0.2,0.4-0.5,0.4c-0.6,0-1.5-0.6-1.7-1.2c-0.1-0.4,0.3-0.3,0.3-0.6l0,0
				c0.2,0,0.2,0.5,0,0.5h-0.1c0.1,0.1,0.2,0.3,0.2,0.5h0.1c0.3,0,0.4-0.1,0.6-0.1c0.1,0,0.2,0,0.2,0.1c0,0.2-0.1,0.3-0.2,0.3
				s-0.3-0.1-0.5-0.1c0.1,0.4,0.7,0.3,0.9,0.6c0.2-0.2-0.4-0.6,0.5-0.6c-0.1,0.2-0.4,0.2-0.3,0.5c0.4-0.1,0.6-0.2,0.8-0.2
				c0.1,0,0.2,0,0.4,0.1c-0.2-0.2-0.1-0.3,0.1-0.3l0,0c0-0.1-0.1-0.2-0.1-0.2c-0.1,0-0.3,0.3-0.4,0.3c0,0-0.1,0-0.1-0.1l0,0
				c0,0,0.7-1,0.6-1.8C-261.9,404.9-261.8,404.9-261.8,404.9 M-261.8,404.7c-0.1,0-0.1,0-0.2,0l-0.2,0.1v0.2c0,0.3,0,0.8-0.5,1.6
				h-0.3c-0.1,0-0.2,0-0.3,0l0,0l-0.1-0.1c-0.1-0.1-0.3-0.2-0.4-0.2s-0.2,0-0.3,0.1h-0.1c0.1-0.1,0.2-0.3,0.2-0.4s0-0.2-0.1-0.3
				c-0.1-0.1-0.2-0.2-0.3-0.2l0,0h-0.1h-0.2v0.2c0,0,0,0-0.1,0c-0.1,0.1-0.4,0.2-0.2,0.6c0.2,0.7,1.2,1.4,1.9,1.4
				c0.2,0,0.4-0.1,0.6-0.2c0,0,0,0,0-0.1l0,0h0.1l0.2,0.2l0.2-0.3c0.1-0.2,0.2-0.3,0.3-0.4c0.1-0.2,0.2-0.3,0.3-0.5l0.1-0.1
				l-0.1-0.1c0-0.1-0.1-0.1-0.1-0.2l0,0l0.3,0.3l0.1-0.4c0.1-0.2,0-0.3,0-0.5c0-0.1,0.1-0.1,0.1-0.2V405h-0.2v-0.1
				C-261.3,404.9-261.4,404.7-261.8,404.7L-261.8,404.7z"/>
		</g>
		<g>
			<path class="st0" d="M-262.7,404c0.4,0.1,0.7,0.2,0.8,0.6c-0.1-0.1-0.3-0.1-0.3-0.3c-0.2,0.2-0.4,0.4-0.2,0.6
				c0.2-0.1,0.2-0.3,0.3-0.3c0,0,0.1,0,0.2,0.1c0,0.1-0.2,0.1-0.3,0.2c0.1,0.1,0.2,0.2,0.2,0.5c-0.3-0.1-0.2-0.6-0.7-0.6h-0.1
				C-262.5,404.6-262.5,404.5-262.7,404 M-263.1,403.7l0.1,0.4v0.1c0,0.1,0.1,0.2,0.1,0.3c0,0,0,0-0.2,0.1l-0.9,0.6l1-0.1
				c0,0,0,0,0.1,0s0.1,0,0.2,0.2c0.1,0.1,0.2,0.3,0.4,0.4l0.4,0.2v-0.4c0-0.1,0-0.2,0-0.3c0.1,0,0.1-0.1,0.1-0.1l0.1,0.1l-0.1-0.5
				c-0.1-0.6-0.6-0.7-1-0.8L-263.1,403.7L-263.1,403.7z"/>
		</g>
		<g>
			<path class="st0" d="M-263.2,404.3c0.1,0,0.1,0,0.2,0c-0.5,0-1.3,0.6-1.5,0.6c-0.1,0,0-0.1,0.2-0.4c0.1,0,0.1,0,0.2,0
				C-263.7,404.5-263.5,404.3-263.2,404.3 M-263.2,404.1c-0.2,0-0.4,0.1-0.5,0.1s-0.2,0.1-0.3,0.1c0,0-0.1,0-0.2,0h-0.1l-0.1,0.1
				c-0.3,0.3-0.4,0.5-0.3,0.7l0.1,0.1h0.2c0.1,0,0.3-0.1,0.6-0.2c0.3-0.1,0.7-0.3,0.9-0.4l1.8-0.2l-1.7-0.3
				C-263,404.1-263.1,404.1-263.2,404.1L-263.2,404.1z"/>
		</g>
		<g>
			<path class="st0" d="M-242.8,372.2c0.5,1.2-0.6,2.3-1.8,1.7C-245.8,372.6-243.8,370.9-242.8,372.2z"/>
		</g>
		<g>
			<path class="st0" d="M-234.3,372.1c0.2,0.5,0.2,1.5-0.2,1.8C-237.2,375.1-236.7,370.4-234.3,372.1z"/>
		</g>
		<g>
			<path class="st0" d="M-242.8,380.8c0.7,1.5-1.4,2.4-2.2,1.2C-245.4,380.3-243.5,379.9-242.8,380.8z"/>
		</g>
		<g>
			<path class="st0" d="M-234.3,380.7c0.4,1,0,1.8-0.6,2C-237.1,383.3-236.7,379.1-234.3,380.7z"/>
		</g>
		<g>
			<path class="st0" d="M-225.9,416c1.2,0,1.3,2,0.2,2.3c-0.1,0-0.2,0-0.2,0c-1,0-2-1.6-0.5-2.2C-226.3,416.1-226.1,416-225.9,416
				 M-225.9,415.8L-225.9,415.8c-0.2,0-0.4,0-0.7,0.1c-0.7,0.3-1,0.8-0.9,1.4c0.1,0.7,0.8,1.3,1.5,1.3c0.1,0,0.2,0,0.3,0
				c0.7-0.2,1.1-1,1-1.6C-224.8,416.2-225.3,415.8-225.9,415.8L-225.9,415.8z"/>
		</g>
		<g>
			<rect x="-241.8" y="374.6" class="st0" width="4.6" height="0.7"/>
		</g>
		<g>
			<rect x="-240.2" y="379" class="st0" width="1.3" height="0.7"/>
		</g>
		<g>
			<rect x="-239.9" y="375.2" class="st0" width="0.7" height="3.9"/>
		</g>
		<g>
			<rect x="-237.5" y="375.2" class="st0" width="0.3" height="0.7"/>
		</g>
		<g>
			<rect x="-241.8" y="375.2" class="st0" width="0.3" height="0.7"/>
		</g>
	</g>
</g>
</svg>
