<?xml version="1.0" encoding="utf-8"?>
<!-- Generator: Adobe Illustrator 15.1.0, SVG Export Plug-In . SVG Version: 6.00 Build 0)  -->
<!DOCTYPE svg PUBLIC "-//W3C//DTD SVG 1.1//EN" "http://www.w3.org/Graphics/SVG/1.1/DTD/svg11.dtd">
<svg version="1.1" id="Layer_1" xmlns="http://www.w3.org/2000/svg" xmlns:xlink="http://www.w3.org/1999/xlink" x="0px" y="0px"
	 width="60px" height="55px" viewBox="0 0 60 55" enable-background="new 0 0 60 55" xml:space="preserve">
<g>
	<g>
		<g>
			<g>
				<path fill="#66375B" d="M20.31,38.221c-0.16,0-0.294-0.016-0.431-0.023c-0.151-0.016-0.315-0.031-0.543-0.031
					c-9.708,0-17.605-7.896-17.605-17.604c0-9.707,7.897-17.605,17.605-17.605c9.707,0,17.604,7.898,17.604,17.605
					c0,2.401-0.475,4.729-1.412,6.918l-0.392-0.168c0.915-2.136,1.377-4.406,1.377-6.75c0-9.474-7.706-17.181-17.179-17.181
					s-17.18,7.707-17.18,17.181c0,9.471,7.707,17.178,17.18,17.178c0.244,0,0.419,0.016,0.582,0.031
					c0.214,0.02,0.398,0.037,0.705,0.006l0.041,0.426C20.528,38.215,20.413,38.221,20.31,38.221z"/>
			</g>
			<g>
				<rect x="1.944" y="20.347" fill="#66375B" width="34.783" height="0.428"/>
			</g>
			<g>
				<path fill="#66375B" d="M19.713,12.998c-5.052,0-9.703-1.824-12.444-4.881l0.317-0.284c2.661,2.967,7.196,4.739,12.127,4.739
					c4.797,0,9.261-1.698,11.944-4.543l0.312,0.293C29.206,11.25,24.624,12.998,19.713,12.998z"/>
			</g>
			<g>
				<path fill="#66375B" d="M8.171,34.008l-0.346-0.25c2.416-3.369,6.517-5.383,10.968-5.383c0.495,0,1.794,0.07,2.237,0.111
					l-0.041,0.426c-0.475-0.047-1.748-0.111-2.196-0.111C14.478,28.801,10.507,30.748,8.171,34.008z"/>
			</g>
			<g>
				<path fill="#66375B" d="M19.559,38.066c-4.476-4.58-7.042-11.1-7.042-17.881c0-6.474,2.254-12.561,6.348-17.14l0.317,0.284
					c-4.022,4.501-6.239,10.486-6.239,16.855c0,6.67,2.521,13.081,6.92,17.586L19.559,38.066z"/>
			</g>
			<g>
				<path fill="#66375B" d="M25.64,27.492l-0.398-0.148c4.418-11.787-4.974-23.838-5.068-23.958l0.334-0.265
					C20.604,3.242,30.145,15.478,25.64,27.492z"/>
			</g>
		</g>
		<g>
			<path fill="#66375B" d="M51.726,36.373H22.112l-1.684-1.686v-5.535l1.781-1.782H51.23l1.732,1.733v5.869L51.726,36.373z
				 M22.288,35.945h29.246l1.004-1.133v-5.531l-1.482-1.483h-28.67l-1.531,1.53v5.184L22.288,35.945z"/>
		</g>
		<g>
			<path fill="#66375B" d="M51.726,44.947H22.112l-1.684-1.684v-5.535l1.781-1.783H51.23l1.732,1.732v5.871L51.726,44.947z
				 M22.288,44.523h29.246l1.004-1.135v-5.531l-1.482-1.482h-28.67l-1.531,1.531v5.184L22.288,44.523z"/>
		</g>
		<g>
			<path fill="#66375B" d="M51.726,53.525H22.112l-1.684-1.686v-5.537l1.781-1.779H51.23l1.732,1.732v5.869L51.726,53.525z
				 M22.288,53.098h29.246l1.004-1.135v-5.531l-1.482-1.482h-28.67l-1.531,1.531v5.186L22.288,53.098z"/>
		</g>
		<g>
			<rect x="23.858" y="31.854" fill="#66375B" width="13.352" height="0.426"/>
		</g>
		<g>
			<rect x="23.858" y="40.527" fill="#66375B" width="13.352" height="0.426"/>
		</g>
		<g>
			<rect x="23.858" y="49.199" fill="#66375B" width="13.352" height="0.428"/>
		</g>
		<g>
			<g>
				<rect x="38.475" y="13.259" fill="#66375B" width="0.78" height="0.779"/>
				<path fill="#66375B" d="M39.469,14.251h-1.206v-1.205h1.206V14.251z M38.688,13.826h0.355v-0.354h-0.355V13.826z"/>
			</g>
			<g>
				<rect x="42.178" y="13.259" fill="#66375B" width="0.78" height="0.779"/>
				<path fill="#66375B" d="M43.171,14.251h-1.206v-1.205h1.206V14.251z M42.392,13.826h0.354v-0.354h-0.354V13.826z"/>
			</g>
			<g>
				<rect x="45.88" y="13.259" fill="#66375B" width="0.779" height="0.779"/>
				<path fill="#66375B" d="M46.874,14.251h-1.207v-1.205h1.207V14.251z M46.094,13.826h0.354v-0.354h-0.354V13.826z"/>
			</g>
			<g>
				<rect x="49.584" y="13.259" fill="#66375B" width="0.776" height="0.779"/>
				<path fill="#66375B" d="M50.575,14.251H49.37v-1.205h1.205V14.251z M49.796,13.826h0.354v-0.354h-0.354V13.826z"/>
			</g>
			<g>
				<rect x="49.584" y="16.574" fill="#66375B" width="0.776" height="0.779"/>
				<path fill="#66375B" d="M50.575,17.566H49.37v-1.205h1.205V17.566z M49.796,17.139h0.354v-0.353h-0.354V17.139z"/>
			</g>
			<g>
				<rect x="49.584" y="19.886" fill="#66375B" width="0.776" height="0.779"/>
				<path fill="#66375B" d="M50.575,20.878H49.37v-1.205h1.205V20.878z M49.796,20.453h0.354v-0.354h-0.354V20.453z"/>
			</g>
			<g>
				<rect x="49.584" y="23.201" fill="#66375B" width="0.776" height="0.779"/>
				<path fill="#66375B" d="M50.575,24.191H49.37v-1.205h1.205V24.191z M49.796,23.765h0.354v-0.353h-0.354V23.765z"/>
			</g>
		</g>
		<g>
			<g>
				<rect x="16.577" y="48.879" fill="#66375B" width="0.779" height="0.779"/>
				<path fill="#66375B" d="M17.571,49.873h-1.207v-1.205h1.207V49.873z M16.79,49.447h0.354v-0.354H16.79V49.447z"/>
			</g>
			<g>
				<rect x="12.874" y="48.879" fill="#66375B" width="0.779" height="0.779"/>
				<path fill="#66375B" d="M13.868,49.873h-1.207v-1.205h1.207V49.873z M13.087,49.447h0.355v-0.354h-0.355V49.447z"/>
			</g>
			<g>
				<rect x="9.172" y="48.879" fill="#66375B" width="0.778" height="0.779"/>
				<path fill="#66375B" d="M10.163,49.873H8.958v-1.205h1.205V49.873z M9.385,49.447h0.354v-0.354H9.385V49.447z"/>
			</g>
			<g>
				<rect x="5.469" y="48.879" fill="#66375B" width="0.78" height="0.779"/>
				<path fill="#66375B" d="M6.462,49.873H5.255v-1.205h1.207V49.873z M5.681,49.447h0.354v-0.354H5.681V49.447z"/>
			</g>
			<g>
				<rect x="5.469" y="45.568" fill="#66375B" width="0.78" height="0.777"/>
				<path fill="#66375B" d="M6.462,46.561H5.255v-1.205h1.207V46.561z M5.681,46.133h0.354v-0.354H5.681V46.133z"/>
			</g>
			<g>
				<rect x="5.469" y="42.252" fill="#66375B" width="0.78" height="0.781"/>
				<path fill="#66375B" d="M6.462,43.244H5.255v-1.203h1.207V43.244z M5.681,42.82h0.354v-0.355H5.681V42.82z"/>
			</g>
			<g>
				<rect x="5.469" y="38.941" fill="#66375B" width="0.78" height="0.779"/>
				<path fill="#66375B" d="M6.462,39.934H5.255v-1.205h1.207V39.934z M5.681,39.508h0.354v-0.354H5.681V39.508z"/>
			</g>
		</g>
		<g>
			<rect x="49.274" y="31.484" fill="#66375B" width="0.428" height="0.877"/>
		</g>
		<g>
			<rect x="49.274" y="40.217" fill="#66375B" width="0.428" height="0.879"/>
		</g>
		<g>
			<rect x="49.274" y="48.986" fill="#66375B" width="0.428" height="0.877"/>
		</g>
	</g>
</g>
</svg>
