<?xml version="1.0" encoding="utf-8"?>
<!-- Generator: Adobe Illustrator 15.1.0, SVG Export Plug-In . SVG Version: 6.00 Build 0)  -->
<!DOCTYPE svg PUBLIC "-//W3C//DTD SVG 1.1//EN" "http://www.w3.org/Graphics/SVG/1.1/DTD/svg11.dtd">
<svg version="1.1" id="Layer_1" xmlns="http://www.w3.org/2000/svg" xmlns:xlink="http://www.w3.org/1999/xlink" x="0px" y="0px"
	 width="60px" height="55px" viewBox="0 0 60 55" enable-background="new 0 0 60 55" xml:space="preserve">
<g>
	<g>
		<g>
			<path fill="#231F20" d="M4.647,48.66H4.226V18.138c-0.056-0.184-0.262-0.999,0.23-1.694c0.458-0.647,1.364-0.977,2.693-0.977
				h15.277v0.421H7.149c-1.182,0-1.971,0.269-2.348,0.795c-0.423,0.593-0.17,1.345-0.166,1.354l0.012,0.069V48.66z"/>
		</g>
		<g>
			<path fill="#231F20" d="M54.427,53.227H3.779l-2.444-2.443v-2.477h0.21l47.296-0.143h7.922v2.725L54.427,53.227z M3.953,52.805
				H54.25l2.091-2.09v-2.131h-7.5L1.756,48.727v1.881L3.953,52.805z"/>
		</g>
		<g>
			<path fill="#231F20" d="M53.907,48.66h-0.421V17.82c0.001-0.024,0.056-0.916-0.423-1.428c-0.225-0.24-0.541-0.361-0.938-0.361
				h-3.284v-0.422h3.284c0.521,0,0.938,0.168,1.247,0.498c0.604,0.647,0.536,1.684,0.533,1.728L53.907,48.66z"/>
		</g>
		<g>
			<path fill="#231F20" d="M27.511,19.326C27.509,19.326,27.509,19.326,27.511,19.326c-1.054,0-1.841-0.336-2.341-1
				c-1.087-1.44-0.405-3.889-0.375-3.991l0.021-0.068L39.923,2.863l-0.158,0.591c-2.08,7.765,5.412,13.284,5.488,13.338l0.434,0.313
				l-17.808,2.207C27.743,19.322,27.624,19.326,27.511,19.326z M25.183,14.516c-0.099,0.391-0.545,2.406,0.323,3.559
				c0.417,0.552,1.091,0.832,2.003,0.832l0,0c0.105,0,0.215-0.004,0.329-0.012l16.767-2.078c-1.525-1.27-6.81-6.22-5.385-12.896
				L25.183,14.516z"/>
		</g>
		<g>
			<path fill="#231F20" d="M45.272,17.307c-0.274,0-0.58-0.047-0.914-0.141l0.113-0.406c0.795,0.225,1.375,0.146,1.719-0.232
				c1.088-1.199-0.127-5.19-0.688-6.627c-1.703-4.955-3.326-6.328-4.388-6.607c-0.853-0.225-1.392,0.242-1.415,0.262l-0.281-0.313
				c0.028-0.026,0.719-0.637,1.791-0.359c1.693,0.438,3.271,2.749,4.688,6.873c0.084,0.212,2.089,5.418,0.604,7.055
				C46.202,17.141,45.79,17.307,45.272,17.307z"/>
		</g>
		<g>
			<path fill="#231F20" d="M34.038,23.645c-0.943,0-1.74-0.285-2.365-0.851c-1.515-1.369-1.463-3.875-1.46-3.981l0.421,0.012
				c0,0.024-0.048,2.422,1.322,3.658c0.674,0.608,1.59,0.842,2.723,0.696c0.035-0.002,1.592-0.071,2.529-1.252
				c0.699-0.88,0.893-2.151,0.575-3.782l0.413-0.08c0.342,1.758,0.119,3.146-0.662,4.129c-1.061,1.332-2.75,1.402-2.82,1.405
				C34.481,23.63,34.256,23.645,34.038,23.645z"/>
		</g>
		<g>
			
				<rect x="46.273" y="1.829" transform="matrix(-0.9026 -0.4305 0.4305 -0.9026 87.0071 26.3449)" fill="#231F20" width="0.422" height="3.001"/>
		</g>
		<g>
			
				<rect x="48.992" y="5.506" transform="matrix(-0.357 -0.9341 0.9341 -0.357 60.1252 55.6094)" fill="#231F20" width="0.421" height="3.207"/>
		</g>
		<g>
			
				<rect x="48.797" y="11.612" transform="matrix(-0.8621 -0.5068 0.5068 -0.8621 87.4917 47.4585)" fill="#231F20" width="2.815" height="0.42"/>
		</g>
		<g>
			<path fill="#231F20" d="M11.509,45.691v-4.389H8.935l0.148-13.842H30.49V41.16H16.793L11.509,45.691z M9.361,40.883h2.567v3.893
				l4.709-4.035h13.432V27.881H9.499L9.361,40.883z"/>
		</g>
		<g>
			<path fill="#231F20" d="M16.933,37.586v-6.678l6.68,3.18L16.933,37.586z"/>
		</g>
		<g>
			<rect x="33.707" y="29.889" fill="#231F20" width="16.42" height="0.42"/>
		</g>
		<g>
			<rect x="33.707" y="33.742" fill="#231F20" width="16.42" height="0.422"/>
		</g>
		<g>
			<rect x="33.707" y="37.883" fill="#231F20" width="16.42" height="0.422"/>
		</g>
	</g>
</g>
</svg>
