<?xml version="1.0" encoding="utf-8"?>
<!-- Generator: Adobe Illustrator 15.1.0, SVG Export Plug-In . SVG Version: 6.00 Build 0)  -->
<!DOCTYPE svg PUBLIC "-//W3C//DTD SVG 1.1//EN" "http://www.w3.org/Graphics/SVG/1.1/DTD/svg11.dtd">
<svg version="1.1" id="Layer_1" xmlns="http://www.w3.org/2000/svg" xmlns:xlink="http://www.w3.org/1999/xlink" x="0px" y="0px"
	 width="60px" height="55px" viewBox="0 0 60 55" enable-background="new 0 0 60 55" xml:space="preserve">
<g>
	<g>
		<g>
			<path fill="none" stroke="#000000" stroke-width="0.5" stroke-miterlimit="10" d="M19.311,33.832l3.76-18.115
				c0,0,18.206-4.813,24.347-13.81c8.064,24.422,8.064,24.422,8.064,24.422s-12.096,13.52-39.08,21.515l0.518-2.494"/>
			<path fill="none" stroke="#000000" stroke-width="0.5" stroke-miterlimit="10" d="M32.995,44.064c0,0,20.006-9.596,21.867-14.102
				l1.705,4.507C56.567,34.47,47.884,39.849,32.995,44.064z"/>
			<path fill="none" stroke="#000000" stroke-width="0.5" stroke-miterlimit="10" d="M31.6,46.681c0,0,21.711-5.815,24.192-9.305
				c1.396,5.089,1.396,5.089,1.396,5.089S50.363,44.937,31.6,46.681z"/>
			<path fill="none" stroke="#000000" stroke-width="0.5" stroke-miterlimit="10" d="M32.375,48.28c0,0,22.331-2.181,24.658-3.635
				c0.774,3.343,0.774,3.343,0.774,3.343S45.401,48.716,32.375,48.28z"/>
			<path fill="none" stroke="#000000" stroke-width="0.5" stroke-miterlimit="10" d="M23.14,30.443l2.148-12.266
				c0,0,17.384-5.126,20.704-10.161c3.125,9.337,3.125,9.337,3.125,9.337S44.722,25.775,23.14,30.443z"/>
			<path fill="none" stroke="#000000" stroke-width="0.5" stroke-miterlimit="10" d="M16.402,47.844c0,0,4.806,2.252,25.209,3.819
				l17.394,0.295"/>
		</g>
		<g>
			<g>
				<path fill-rule="evenodd" clip-rule="evenodd" fill="#FFFFFF" d="M29.961,39.671c-0.522,0-1.229-0.07-1.645-0.27l-0.099-0.048
					l-0.032-0.104c-0.15-0.491-0.133-1.129-0.117-1.745c0.008-0.326,0.017-0.652,0.001-0.954c0.07-0.422,0.396-0.504,0.613-0.559
					c0.025-0.006,0.052-0.013,0.078-0.02c-1.241-4.479-4.112-7.35-8.538-8.537c-0.018,0.135-0.005,0.343,0.003,0.484
					c0.023,0.365,0.047,0.742-0.169,0.975l-0.047,0.052l-0.068,0.019c-0.6,0.17-1.529,0.268-2.549,0.268s-1.949-0.098-2.549-0.268
					l-0.093-0.026l-0.051-0.082c-0.18-0.289-0.162-0.713-0.144-1.124c0.004-0.093,0.008-0.186,0.01-0.276
					c-4.409,1.111-7.215,3.904-8.571,8.527c0.04,0.013,0.104,0.024,0.146,0.032c0.183,0.033,0.563,0.104,0.575,0.514
					c-0.017,0.323-0.008,0.649,0,0.975c0.016,0.617,0.033,1.254-0.117,1.746l-0.032,0.104l-0.099,0.048
					c-0.417,0.199-1.123,0.27-1.645,0.27c-0.312,0-1.087-0.026-1.54-0.276l-0.097-0.053L3.16,39.234
					c-0.183-0.763-0.183-2.204,0-2.968l0.019-0.078l0.061-0.053c0.178-0.153,0.428-0.174,0.648-0.174
					c0.086,0,0.41,0.013,0.479,0.014c1.047-4.147,3.315-7.131,6.75-8.88c-0.453-0.027-0.962-0.039-1.564-0.039
					c-0.494,0-0.996,0.008-1.498,0.016c-0.505,0.008-1.01,0.017-1.506,0.017c-0.327,0-0.65-0.003-0.968-0.013
					C5.382,27.2,5.249,27.35,5.107,27.508c-0.235,0.264-0.502,0.563-1.045,0.62c-0.095,0.01-0.186,0.015-0.273,0.015
					c-0.685,0-1.229-0.291-1.535-0.819c-0.334-0.579-0.32-1.379,0.034-1.993c0.328-0.567,0.894-0.893,1.552-0.893
					c0.109,0,0.222,0.009,0.34,0.027c0.601,0.093,0.833,0.394,1.125,0.774c0.066,0.085,0.137,0.178,0.22,0.279h9.015
					c0.045-0.176,0.029-0.459,0.015-0.716c-0.031-0.546-0.07-1.226,0.5-1.387c0.318,0.001,0.563,0.005,0.813,0.005
					c0.357,0,0.723-0.008,1.087-0.016c0.369-0.008,0.737-0.016,1.098-0.016c0.793,0,1.368,0.039,1.864,0.126l0.123,0.021
					l0.057,0.112c0.172,0.341,0.152,0.825,0.133,1.293c-0.007,0.166-0.014,0.332-0.012,0.489c0.939,0.072,1.991,0.104,3.37,0.104
					c0.695,0,1.399-0.008,2.103-0.016c0.706-0.008,1.411-0.016,2.108-0.016c0.469,0,0.934,0.004,1.393,0.013
					c0.218-0.161,0.343-0.32,0.464-0.475c0.186-0.237,0.377-0.483,0.831-0.575c0.159-0.032,0.31-0.047,0.454-0.047
					c1.195,0,1.84,1.005,1.84,1.95c0,0.877-0.554,1.763-1.789,1.764l-0.154-0.005c-0.683-0.041-1.003-0.412-1.313-0.771
					c-0.079-0.092-0.162-0.188-0.255-0.284h-5.526c3.45,1.94,5.703,4.936,6.702,8.919c0.006-0.009,0.021-0.011,0.045-0.011
					c0.02,0,0.046,0.001,0.079,0.001c0.069,0,0.142-0.005,0.215-0.01c0.084-0.005,0.169-0.011,0.248-0.011
					c0.109,0,0.398,0,0.551,0.22c0.222,0.848,0.222,2.289,0.038,3.052l-0.026,0.107l-0.096,0.053
					C31.048,39.645,30.273,39.671,29.961,39.671z M30.18,37.976v-0.449l-0.556-0.001v0.45H30.18z M5.158,37.976v-0.449l-0.555-0.001
					v0.45H5.158z M18.672,27.523v-2.562h-2.562v2.562H18.672z M31.028,26.021c-0.117,0-0.225,0.061-0.282,0.158
					c-0.032,0.055-0.073,0.167,0.006,0.309c-0.008-0.014-0.001-0.018,0.017-0.018c0.027,0,0.08,0.01,0.146,0.01l0,0
					c0.183,0,0.334-0.073,0.361-0.11c-0.009-0.027-0.024-0.063-0.063-0.148c-0.021-0.048-0.048-0.107-0.065-0.18
					C31.108,26.027,31.067,26.021,31.028,26.021z M3.566,26.439c0.048,0,0.167,0.04,0.301,0.04c0.066,0,0.118-0.01,0.156-0.023
					c0.018-0.077,0.045-0.134,0.077-0.177c-0.01-0.054-0.032-0.1-0.066-0.137c-0.058-0.062-0.147-0.099-0.241-0.099
					c-0.086,0-0.161,0.031-0.206,0.086c-0.073,0.089-0.064,0.228-0.044,0.329C3.54,26.444,3.548,26.439,3.566,26.439z"/>
				<path d="M18.052,23.639c0.648,0,1.27,0.026,1.82,0.123c0.225,0.444,0.051,1.286,0.105,1.9c1.146,0.097,2.365,0.123,3.609,0.123
					c1.393,0,2.818-0.032,4.211-0.032c0.495,0,0.986,0.004,1.47,0.015c0.672-0.458,0.627-0.927,1.267-1.056
					c0.142-0.029,0.276-0.042,0.404-0.042c1.972,0,2.245,3.214,0.052,3.214c-0.045,0-0.092-0.001-0.139-0.004
					c-0.772-0.046-0.967-0.558-1.479-1.056c-2.217,0-4.434,0-6.651,0c3.777,1.818,6.387,4.803,7.496,9.29
					c0.06,0.097,0.194,0.12,0.352,0.12c0.147,0,0.316-0.021,0.463-0.021c0.152,0,0.283,0.022,0.346,0.112
					c0.174,0.722,0.174,2.13,0,2.851c-0.306,0.168-0.857,0.245-1.419,0.245c-0.598,0-1.207-0.087-1.537-0.245
					c-0.214-0.701-0.058-1.771-0.105-2.64c0.06-0.327,0.518-0.256,0.739-0.423c-1.246-4.735-4.203-7.76-8.974-8.973
					c-0.294,0.304,0.077,1.273-0.211,1.583c-0.607,0.172-1.544,0.258-2.481,0.258s-1.874-0.086-2.481-0.258
					c-0.216-0.347-0.057-1.068-0.105-1.583c-4.859,1.124-7.744,4.221-9.08,8.869c0.04,0.383,0.727,0.118,0.739,0.527
					c-0.047,0.868,0.108,1.938-0.106,2.64c-0.33,0.158-0.939,0.245-1.537,0.245c-0.561,0-1.113-0.077-1.419-0.245
					c-0.173-0.721-0.173-2.129,0-2.851c0.107-0.093,0.286-0.113,0.485-0.113c0.166,0,0.346,0.014,0.512,0.014
					c0.057,0,0.112-0.001,0.165-0.006c1.089-4.506,3.581-7.611,7.496-9.291c-0.78-0.097-1.631-0.123-2.508-0.123
					c-0.991,0-2.014,0.033-3.004,0.033c-0.35,0-0.695-0.004-1.033-0.015c-0.652,0.369-0.724,0.977-1.478,1.056
					c-0.086,0.009-0.168,0.013-0.248,0.013c-2.167,0-1.917-3.205,0.051-3.205c0.097,0,0.197,0.008,0.302,0.024
					c0.652,0.101,0.752,0.454,1.267,1.056c3.098,0,6.194,0,9.292,0c0.346-0.499-0.236-1.926,0.422-2.112
					c0.243,0.011,0.492,0.015,0.745,0.015C16.585,23.671,17.334,23.639,18.052,23.639 M15.861,27.773c1.021,0,2.041,0,3.062,0
					c0-1.02,0-2.041,0-3.062c-1.021,0-2.041,0-3.062,0C15.861,25.733,15.861,26.753,15.861,27.773 M30.916,26.729
					c0.235,0,0.483-0.09,0.57-0.222c0.077-0.323-0.107-0.385-0.105-0.633c-0.12-0.072-0.24-0.103-0.352-0.103
					c-0.417,0-0.722,0.433-0.493,0.842C30.629,26.694,30.77,26.729,30.916,26.729 M3.867,26.729c0.146,0,0.287-0.035,0.38-0.117
					c0.024-0.082,0.003-0.208,0.106-0.211c0.031-0.396-0.27-0.608-0.561-0.608c-0.301,0-0.591,0.227-0.495,0.714
					C3.384,26.639,3.632,26.729,3.867,26.729 M29.374,38.226c0.352,0,0.704,0,1.056,0c0-0.316,0-0.634,0-0.949
					c-0.235,0-0.469-0.001-0.704-0.001c-0.117,0-0.235,0-0.352,0.001C29.374,37.592,29.374,37.909,29.374,38.226 M4.353,38.226
					c0.352,0,0.704,0,1.055,0c0-0.316,0-0.634,0-0.949c-0.234,0-0.469-0.001-0.703-0.001c-0.117,0-0.235,0-0.352,0.001
					C4.353,37.592,4.353,37.909,4.353,38.226 M18.052,23.139c-0.362,0-0.733,0.008-1.104,0.016
					c-0.363,0.008-0.726,0.016-1.082,0.016c-0.246,0-0.488-0.004-0.724-0.014l-0.08-0.003l-0.078,0.022
					c-0.762,0.215-0.713,1.073-0.681,1.641c0.007,0.128,0.018,0.307,0.014,0.452H5.644c-0.051-0.064-0.097-0.125-0.141-0.181
					c-0.314-0.408-0.585-0.761-1.285-0.869c-0.132-0.021-0.258-0.03-0.379-0.03c-1.35,0-2.079,1.128-2.079,2.189
					c0,0.528,0.177,1.018,0.499,1.379c0.258,0.291,0.733,0.636,1.529,0.636c0.096,0,0.196-0.005,0.3-0.016
					c0.64-0.067,0.954-0.419,1.207-0.703c0.117-0.131,0.221-0.249,0.357-0.346c0.294,0.008,0.593,0.011,0.896,0.011
					c0.498,0,1.004-0.008,1.51-0.017c0.5-0.008,1.001-0.016,1.494-0.016c0.231,0,0.449,0.001,0.655,0.005
					c-3.006,1.794-5.031,4.613-6.032,8.408c-0.003,0-0.007,0-0.01-0.001c-0.094-0.004-0.188-0.007-0.277-0.007
					c-0.251,0-0.57,0.026-0.812,0.235l-0.122,0.104l-0.038,0.156c-0.19,0.794-0.19,2.293,0,3.085l0.052,0.214l0.193,0.107
					c0.485,0.267,1.249,0.307,1.66,0.307c0.712,0,1.367-0.109,1.752-0.294l0.199-0.095l0.064-0.211
					c0.162-0.53,0.145-1.188,0.128-1.824c-0.009-0.332-0.017-0.646-0.001-0.934c-0.015-0.542-0.411-0.708-0.653-0.769
					c1.322-4.264,3.942-6.892,7.991-8.012c-0.018,0.429-0.026,0.866,0.185,1.205l0.102,0.164l0.186,0.053
					c0.622,0.176,1.576,0.276,2.617,0.276s1.996-0.101,2.617-0.276l0.135-0.038l0.096-0.104c0.289-0.312,0.261-0.762,0.235-1.16
					c-0.002-0.042-0.005-0.09-0.008-0.141c4.135,1.198,6.753,3.833,7.983,8.035c-0.239,0.077-0.549,0.238-0.624,0.649l-0.011,0.059
					l0.003,0.059c0.016,0.288,0.007,0.602-0.001,0.934c-0.017,0.637-0.034,1.294,0.128,1.824l0.064,0.211l0.199,0.095
					c0.385,0.185,1.041,0.294,1.752,0.294c0.412,0,1.175-0.04,1.66-0.308l0.193-0.106l0.052-0.214c0.19-0.792,0.19-2.292,0-3.085
					l-0.022-0.091L31.79,36.04c-0.227-0.327-0.625-0.327-0.756-0.327c-0.084,0-0.174,0.006-0.264,0.012
					c-0.044,0.003-0.089,0.006-0.132,0.008c-0.961-3.649-2.973-6.469-5.993-8.409h4.517c0.062,0.067,0.119,0.133,0.174,0.197
					c0.327,0.38,0.698,0.811,1.487,0.857c0.058,0.003,0.114,0.005,0.169,0.005c0.8,0,1.277-0.345,1.537-0.634
					c0.323-0.361,0.502-0.851,0.502-1.38c0-1.067-0.733-2.2-2.09-2.2c-0.164,0-0.333,0.018-0.503,0.052
					c-0.544,0.11-0.785,0.418-0.979,0.666c-0.101,0.129-0.198,0.253-0.35,0.377c-0.432-0.008-0.869-0.012-1.31-0.012
					c-0.698,0-1.405,0.008-2.111,0.016c-0.703,0.008-1.405,0.016-2.1,0.016c-1.259,0-2.244-0.027-3.118-0.087
					c0.002-0.08,0.005-0.162,0.009-0.246c0.021-0.5,0.042-1.017-0.16-1.416l-0.113-0.224l-0.247-0.043
					C19.449,23.179,18.86,23.139,18.052,23.139L18.052,23.139z M16.361,25.212h2.062v2.062h-2.062V25.212L16.361,25.212z"/>
			</g>
			<g>
				<path fill-rule="evenodd" clip-rule="evenodd" fill="#FFFFFF" d="M21.556,53.161c-0.194,0-0.365-0.073-0.495-0.212
					c-0.415-0.441-0.35-1.478-0.28-2.575c0.032-0.51,0.063-0.996,0.034-1.341h-6.793c-0.119,0.395-0.064,1.081-0.016,1.696
					c0.072,0.914,0.14,1.777-0.237,2.188c-0.138,0.15-0.326,0.23-0.546,0.232c0,0,0,0,0,0c-0.214,0-0.396-0.077-0.53-0.223
					c-0.416-0.448-0.337-1.495-0.253-2.603c0.054-0.717,0.11-1.458,0.01-1.911l-0.02-0.091l0.044-0.082
					c0.219-0.406,0.593-0.62,0.955-0.827l0.057-0.032c-0.06-0.729,0.078-1.326,0.417-1.82c-0.452-1.858-1.561-3.03-2.733-4.27
					l-0.354-0.376l0.066-0.151c1.111-2.529,2.398-4.936,3.643-7.263c0.624-1.167,1.248-2.333,1.853-3.519
					c0.153-0.337,0.723-0.374,0.96-0.374c0.16,0,0.557,0.018,0.781,0.179c1.128,1.609,2.044,3.445,3.014,5.388
					c0.451,0.904,0.908,1.82,1.389,2.721c0.083,0.155,0.216,0.373,0.368,0.619c0.613,0.999,1.079,1.8,1.033,2.269
					c-0.044,0.446-0.584,0.995-1.286,1.665c-0.24,0.229-0.467,0.446-0.555,0.567c-0.628,0.87-0.855,1.492-1.204,2.491
					c0.041,0.102,0.086,0.198,0.132,0.295c0.183,0.388,0.388,0.825,0.287,1.548c0.086,0.103,0.218,0.18,0.367,0.266
					c0.25,0.146,0.533,0.311,0.661,0.657l0.026,0.069l-0.016,0.072c-0.113,0.502-0.049,1.268,0.013,2.008
					c0.11,1.322,0.215,2.57-0.635,2.724C21.657,53.156,21.605,53.161,21.556,53.161z M19.728,47.372v-0.45h-4.673v0.45H19.728z
					 M19.252,45.366c0.514-2.074,1.694-3.492,2.855-4.853c-0.391-0.753-0.779-1.51-1.167-2.267
					c-0.878-1.714-1.781-3.478-2.719-5.182v4.073c0.509,0.331,1.045,0.813,1.056,1.61c0.008,0.543-0.158,1.004-0.481,1.331
					c-0.322,0.327-0.783,0.508-1.298,0.508c-0.586,0-1.159-0.238-1.533-0.637c-0.334-0.356-0.493-0.813-0.46-1.319
					c0.039-0.603,0.355-0.896,0.72-1.235c0.104-0.097,0.215-0.2,0.331-0.321c-0.021-0.604-0.008-1.241,0.005-1.879
					c0.016-0.74,0.032-1.497-0.011-2.19c-0.549,1.128-1.133,2.228-1.701,3.297c-0.736,1.387-1.496,2.817-2.174,4.296
					c1.469,1.468,2.38,2.991,2.851,4.768H19.252z M17.164,38.997c0.029,0,0.119,0.034,0.213,0.034l0,0
					c0.1,0,0.187-0.037,0.233-0.099c0.066-0.089,0.045-0.223,0.016-0.319c-0.001,0.002-0.004,0.002-0.008,0.002
					c-0.028,0-0.118-0.034-0.213-0.034c-0.1,0-0.187,0.037-0.233,0.099c-0.066,0.089-0.045,0.223-0.017,0.319
					C17.157,38.998,17.16,38.997,17.164,38.997z"/>
				<path d="M17.337,29.859c0.26,0,0.516,0.047,0.634,0.132c1.562,2.262,2.831,5.217,4.329,8.023
					c0.328,0.614,1.428,2.176,1.373,2.745c-0.057,0.583-1.488,1.688-1.794,2.11c-0.664,0.918-0.894,1.571-1.268,2.641
					c0.204,0.569,0.585,0.963,0.422,1.899c0.245,0.424,0.875,0.462,1.056,0.95c-0.31,1.383,0.604,4.355-0.422,4.54
					c-0.039,0.007-0.076,0.011-0.111,0.011c-1.043,0-0.304-3.05-0.522-4.128c-2.393,0-4.786,0-7.179,0
					c-0.528,1.007,0.572,4.107-0.633,4.117c-0.001,0-0.003,0-0.005,0c-1.142,0-0.231-3.215-0.522-4.54
					c0.222-0.411,0.661-0.606,1.056-0.844c-0.104-0.879,0.087-1.462,0.422-1.9c-0.48-2.124-1.8-3.409-3.062-4.751
					c1.654-3.767,3.659-7.181,5.49-10.769C16.674,29.934,17.009,29.859,17.337,29.859 M17.499,40.338
					c-0.885,0-1.813-0.616-1.744-1.689c0.045-0.689,0.517-0.889,1.056-1.479c-0.07-1.654,0.141-3.59-0.105-5.067
					c-1.363,2.931-2.99,5.597-4.329,8.552c1.336,1.304,2.438,2.842,2.957,4.962c1.372,0,2.745,0,4.117,0
					c0.488-2.187,1.725-3.625,2.957-5.068c-1.469-2.824-2.886-5.701-4.435-8.445c0,1.724,0,3.448,0,5.174
					c0.571,0.352,1.046,0.787,1.056,1.477C19.044,39.848,18.288,40.338,17.499,40.338 M17.377,39.281
					c0.323,0,0.637-0.244,0.489-0.739c-0.109-0.14-0.287-0.211-0.46-0.211c-0.324,0-0.637,0.244-0.49,0.739
					C17.026,39.21,17.203,39.281,17.377,39.281 M14.805,47.622c1.724,0,3.449,0,5.173,0c0-0.316,0-0.634,0-0.95
					c-1.724,0-3.449,0-5.173,0C14.805,46.988,14.805,47.306,14.805,47.622 M17.337,29.359L17.337,29.359
					c-0.355,0-0.982,0.069-1.192,0.529c-0.594,1.163-1.229,2.349-1.842,3.495c-1.247,2.331-2.537,4.742-3.651,7.28l-0.133,0.303
					l0.227,0.241l0.242,0.256c1.126,1.19,2.192,2.317,2.645,4.053c-0.304,0.485-0.438,1.054-0.408,1.726
					c-0.353,0.204-0.736,0.444-0.972,0.881l-0.088,0.163l0.04,0.182c0.092,0.417,0.037,1.14-0.016,1.838
					c-0.091,1.215-0.17,2.264,0.319,2.792c0.184,0.198,0.428,0.303,0.707,0.303c0.3-0.002,0.552-0.11,0.737-0.313
					c0.451-0.491,0.379-1.407,0.302-2.377c-0.038-0.483-0.083-1.057-0.032-1.427h6.353c0.004,0.308-0.021,0.696-0.044,1.075
					c-0.073,1.153-0.141,2.241,0.348,2.762c0.178,0.19,0.412,0.291,0.677,0.291c0.063,0,0.129-0.006,0.199-0.019
					c1.074-0.193,0.956-1.615,0.84-2.991c-0.06-0.721-0.123-1.467-0.019-1.932l0.032-0.144l-0.051-0.139
					c-0.16-0.432-0.513-0.638-0.771-0.787c-0.085-0.05-0.167-0.098-0.229-0.145c0.07-0.722-0.146-1.182-0.324-1.56
					c-0.03-0.064-0.062-0.13-0.09-0.196c0.324-0.925,0.55-1.522,1.139-2.337c0.075-0.103,0.303-0.321,0.524-0.533
					c0.765-0.73,1.31-1.288,1.362-1.821c0.053-0.548-0.41-1.35-1.069-2.424c-0.148-0.241-0.279-0.453-0.36-0.605
					c-0.479-0.896-0.94-1.821-1.386-2.715c-0.974-1.951-1.894-3.794-2.973-5.357l-0.049-0.071l-0.07-0.05
					C17.992,29.389,17.566,29.359,17.337,29.359L17.337,29.359z M12.976,40.546c0.656-1.416,1.387-2.792,2.095-4.126
					c0.417-0.785,0.843-1.587,1.258-2.404c0,0.388-0.008,0.784-0.017,1.175c-0.012,0.594-0.025,1.204-0.008,1.786
					c-0.086,0.087-0.17,0.164-0.249,0.236c-0.371,0.345-0.753,0.701-0.799,1.403c-0.038,0.577,0.145,1.098,0.527,1.506
					c0.42,0.448,1.062,0.716,1.716,0.716c0.582,0,1.106-0.207,1.476-0.582c0.372-0.377,0.563-0.899,0.554-1.511
					c-0.012-0.854-0.555-1.391-1.056-1.739v-2.958c0.77,1.431,1.517,2.889,2.247,4.313c0.362,0.707,0.724,1.414,1.089,2.118
					c-1.121,1.317-2.22,2.687-2.749,4.637h-3.341C15.236,43.425,14.355,41.957,12.976,40.546L12.976,40.546z"/>
			</g>
		</g>
	</g>
</g>
</svg>
