<?xml version="1.0" encoding="utf-8"?>
<!-- Generator: Adobe Illustrator 15.1.0, SVG Export Plug-In . SVG Version: 6.00 Build 0)  -->
<!DOCTYPE svg PUBLIC "-//W3C//DTD SVG 1.1//EN" "http://www.w3.org/Graphics/SVG/1.1/DTD/svg11.dtd">
<svg version="1.1" id="Layer_1" xmlns="http://www.w3.org/2000/svg" xmlns:xlink="http://www.w3.org/1999/xlink" x="0px" y="0px"
	 width="60px" height="55px" viewBox="0 0 60 55" enable-background="new 0 0 60 55" xml:space="preserve">
<g>
	<g>
		<path fill="#231F20" d="M5.563,54c-0.839,0-1.63-0.14-2.162-0.627c-0.421-0.385-0.624-0.941-0.602-1.654
			c0.006-0.434,0.149-0.782,0.427-1.028c0.642-0.568,1.801-0.442,3.031-0.311c0.705,0.076,1.43,0.155,1.96,0.072V6.703h12.709
			c0.279-0.382,0.215-1.259,0.159-2.041c-0.043-0.608-0.087-1.236,0.002-1.75l0.047-0.272h20.245v16.932h10.836v30.67
			c0.396,0.317,1.384,0.222,2.26,0.137c1.338-0.128,2.854-0.275,3.147,0.935c0.14,0.848-0.01,1.494-0.436,1.943
			c-0.913,0.96-2.846,0.744-4.253,0.585c-0.425-0.048-0.791-0.089-1.049-0.089H8.545c-0.283,0-0.67,0.046-1.117,0.1
			C6.839,53.922,6.188,54,5.563,54z M4.755,50.928c-0.473,0-0.875,0.062-1.092,0.254c-0.136,0.121-0.203,0.302-0.206,0.553
			c-0.017,0.524,0.111,0.899,0.388,1.154c0.705,0.646,2.323,0.452,3.504,0.31c0.468-0.056,0.873-0.104,1.195-0.104h43.34
			c0.294,0,0.678,0.043,1.121,0.094c1.2,0.134,3.015,0.339,3.703-0.386c0.282-0.296,0.369-0.74,0.269-1.358
			c-0.144-0.586-1.06-0.543-2.438-0.41c-1.156,0.111-2.354,0.227-2.909-0.447l-0.073-0.092V20.229H40.721V3.297H21.704
			c-0.028,0.392,0.005,0.861,0.038,1.318c0.075,1.045,0.152,2.125-0.453,2.662L21.195,7.36H8.875v43.601l-0.235,0.07
			c-0.66,0.195-1.572,0.098-2.453,0.002C5.709,50.983,5.2,50.928,4.755,50.928z M44.088,51.045h-6.076v-9.802h6.076V51.045z
			 M38.669,50.388h4.761V41.9h-4.761V50.388z M24.449,51.045H13.63v-8.447h10.819V51.045z M14.289,50.388h9.502v-7.132h-9.502
			V50.388z M50.183,45.966h-4.72v-4.723h4.72V45.966z M46.121,45.309h3.404V41.9h-3.404V45.309z M36.64,45.966h-4.723v-4.723h4.723
			V45.966z M32.575,45.309h3.405V41.9h-3.405V45.309z M21.065,40.549h-4.048v-4.721h4.048V40.549z M17.675,39.892h2.731v-3.406
			h-2.731V39.892z M14.97,40.549h-4.044v-4.721h4.044V40.549z M11.583,39.892h2.729v-3.406h-2.729V39.892z M23.771,40.219h-0.658
			v-4.391h4.394v0.657h-3.736V40.219z M50.183,39.872h-4.72v-4.723h4.72V39.872z M46.121,39.213h3.404v-3.405h-3.404V39.213z
			 M43.409,39.872H38.69v-4.723h4.719V39.872z M39.348,39.213h3.404v-3.405h-3.404V39.213z M36.64,39.872h-4.723v-4.723h4.723
			V39.872z M32.575,39.213h3.405v-3.405h-3.405V39.213z M21.065,35.127h-4.048v-4.044h4.048V35.127z M17.675,34.469h2.731v-2.727
			h-2.731V34.469z M14.97,35.127h-4.044v-4.044h4.044V35.127z M11.583,34.469h2.729v-2.727h-2.729V34.469z M23.771,34.798h-0.658
			v-3.715h4.394v0.659h-3.736V34.798z M50.183,34.454h-4.72v-4.721h4.72V34.454z M46.121,33.796h3.404v-3.405h-3.404V33.796z
			 M43.409,34.454H38.69v-4.721h4.719V34.454z M39.348,33.796h3.404v-3.405h-3.404V33.796z M36.64,34.454h-4.723v-4.721h4.723
			V34.454z M32.575,33.796h3.405v-3.405h-3.405V33.796z M21.065,30.391h-4.048v-4.725h4.048V30.391z M17.675,29.733h2.731v-3.409
			h-2.731V29.733z M14.97,30.391h-4.044v-4.725h4.044V30.391z M11.583,29.733h2.729v-3.409h-2.729V29.733z M23.771,30.062h-0.658
			v-4.396h4.394v0.658h-3.736V30.062z M50.183,28.356h-4.72v-4.722h4.72V28.356z M46.121,27.699h3.404v-3.408h-3.404V27.699z
			 M43.409,28.356H38.69v-4.722h4.719V28.356z M39.348,27.699h3.404v-3.408h-3.404V27.699z M36.64,28.356h-4.723v-4.722h4.723
			V28.356z M32.575,27.699h3.405v-3.408h-3.405V27.699z M21.065,24.97h-4.048v-4.724h4.048V24.97z M17.675,24.313h2.731v-3.409
			h-2.731V24.313z M14.97,24.97h-4.044v-4.724h4.044V24.97z M11.583,24.313h2.729v-3.409h-2.729V24.313z M23.771,24.641h-0.658
			v-4.395h4.394v0.658h-3.736V24.641z M21.065,19.551h-4.048v-4.719h4.048V19.551z M17.675,18.893h2.731v-3.404h-2.731V18.893z
			 M14.97,19.551h-4.044v-4.719h4.044V19.551z M11.583,18.893h2.729v-3.404h-2.729V18.893z M23.771,19.222h-0.658v-4.391h4.394
			v0.658h-3.736V19.222z M21.065,14.133h-4.048v-4.042h4.048V14.133z M17.675,13.476h2.731v-2.727h-2.731V13.476z M14.97,14.133
			h-4.044v-4.042h4.044V14.133z M11.583,13.476h2.729v-2.727h-2.729V13.476z M23.771,13.805h-0.658v-3.714h4.394v0.658h-3.736
			V13.805z"/>
	</g>
</g>
</svg>
