<?xml version="1.0" encoding="utf-8"?>
<!-- Generator: Adobe Illustrator 15.1.0, SVG Export Plug-In . SVG Version: 6.00 Build 0)  -->
<!DOCTYPE svg PUBLIC "-//W3C//DTD SVG 1.1//EN" "http://www.w3.org/Graphics/SVG/1.1/DTD/svg11.dtd">
<svg version="1.1" id="Layer_1" xmlns="http://www.w3.org/2000/svg" xmlns:xlink="http://www.w3.org/1999/xlink" x="0px" y="0px"
	 width="60px" height="55px" viewBox="58.5 41 60 55" enable-background="new 58.5 41 60 55" xml:space="preserve">
<g>
	<g>
		<g>
			<path fill="#231F20" d="M78.59,79.465c-0.161,0-0.294-0.015-0.431-0.024c-0.151-0.015-0.315-0.031-0.543-0.031
				c-9.708,0-17.605-7.896-17.605-17.603c0-9.708,7.897-17.606,17.605-17.606c9.707,0,17.604,7.898,17.604,17.606
				c0,2.401-0.474,4.729-1.411,6.917l-0.392-0.168c0.915-2.135,1.377-4.406,1.377-6.75c0-9.473-7.706-17.18-17.179-17.18
				c-9.473,0-17.179,7.707-17.179,17.18c0,9.471,7.707,17.178,17.179,17.178c0.244,0,0.419,0.016,0.582,0.032
				c0.214,0.02,0.399,0.037,0.705,0.005l0.042,0.426C78.809,79.46,78.693,79.465,78.59,79.465z"/>
		</g>
		<g>
			<rect x="60.224" y="61.592" fill="#231F20" width="34.784" height="0.427"/>
		</g>
		<g>
			<path fill="#231F20" d="M77.993,54.242c-5.051,0-9.703-1.824-12.444-4.881l0.317-0.284c2.662,2.967,7.196,4.739,12.127,4.739
				c4.797,0,9.261-1.698,11.945-4.542l0.311,0.293C87.486,52.495,82.905,54.242,77.993,54.242z"/>
		</g>
		<g>
			<path fill="#231F20" d="M66.451,75.252l-0.346-0.25c2.416-3.368,6.517-5.382,10.968-5.382c0.495,0,1.794,0.069,2.237,0.111
				l-0.041,0.425c-0.474-0.047-1.747-0.11-2.196-0.11C72.758,70.046,68.787,71.992,66.451,75.252z"/>
		</g>
		<g>
			<path fill="#231F20" d="M77.839,79.311c-4.476-4.581-7.042-11.1-7.042-17.881c0-6.474,2.254-12.561,6.348-17.14l0.317,0.284
				c-4.023,4.501-6.24,10.487-6.24,16.856c0,6.67,2.522,13.08,6.921,17.585L77.839,79.311z"/>
		</g>
		<g>
			<path fill="#231F20" d="M83.92,68.737l-0.399-0.149c4.419-11.787-4.973-23.838-5.068-23.958l0.334-0.265
				C78.884,44.487,88.425,56.723,83.92,68.737z"/>
		</g>
	</g>
	<g>
		<path fill="#231F20" d="M110.006,77.618H80.393l-1.684-1.686v-5.535l1.781-1.782h29.021l1.732,1.733v5.87L110.006,77.618z
			 M80.569,77.19h29.246l1.004-1.134v-5.531l-1.483-1.482H80.666l-1.531,1.53v5.184L80.569,77.19z"/>
	</g>
	<g>
		<path fill="#231F20" d="M110.006,86.192H80.393l-1.684-1.684v-5.535l1.781-1.783h29.021l1.732,1.733v5.871L110.006,86.192z
			 M80.569,85.767h29.246l1.004-1.134v-5.532l-1.483-1.482H80.666l-1.531,1.531v5.184L80.569,85.767z"/>
	</g>
	<g>
		<path fill="#231F20" d="M110.006,94.769H80.393l-1.684-1.684v-5.538l1.781-1.78h29.021l1.732,1.734v5.868L110.006,94.769z
			 M80.569,94.343h29.246l1.004-1.136v-5.53l-1.483-1.484H80.666l-1.531,1.531v5.186L80.569,94.343z"/>
	</g>
	<g>
		<rect x="82.139" y="73.098" fill="#231F20" width="13.351" height="0.426"/>
	</g>
	<g>
		<rect x="82.139" y="81.771" fill="#231F20" width="13.351" height="0.426"/>
	</g>
	<g>
		<rect x="82.139" y="90.444" fill="#231F20" width="13.351" height="0.427"/>
	</g>
	<g>
		<g>
			<rect x="96.755" y="54.504" fill="#231F20" width="0.78" height="0.779"/>
			<path fill="#231F20" d="M97.749,55.496h-1.206v-1.205h1.206V55.496z M96.968,55.07h0.355v-0.354h-0.355V55.07z"/>
		</g>
		<g>
			<rect x="100.458" y="54.504" fill="#231F20" width="0.78" height="0.779"/>
			<path fill="#231F20" d="M101.451,55.496h-1.206v-1.205h1.206V55.496z M100.672,55.07h0.353v-0.354h-0.353V55.07z"/>
		</g>
		<g>
			<rect x="104.16" y="54.504" fill="#231F20" width="0.78" height="0.779"/>
			<path fill="#231F20" d="M105.154,55.496h-1.207v-1.205h1.207V55.496z M104.374,55.07h0.354v-0.354h-0.354V55.07z"/>
		</g>
		<g>
			<rect x="107.864" y="54.504" fill="#231F20" width="0.777" height="0.779"/>
			<path fill="#231F20" d="M108.855,55.496h-1.205v-1.205h1.205V55.496z M108.076,55.07h0.353v-0.354h-0.353V55.07z"/>
		</g>
		<g>
			<rect x="107.864" y="57.818" fill="#231F20" width="0.777" height="0.779"/>
			<path fill="#231F20" d="M108.855,58.81h-1.205v-1.205h1.205V58.81z M108.076,58.384h0.353v-0.353h-0.353V58.384z"/>
		</g>
		<g>
			<rect x="107.864" y="61.131" fill="#231F20" width="0.777" height="0.779"/>
			<path fill="#231F20" d="M108.855,62.123h-1.205v-1.205h1.205V62.123z M108.076,61.697h0.353v-0.354h-0.353V61.697z"/>
		</g>
		<g>
			<rect x="107.864" y="64.445" fill="#231F20" width="0.777" height="0.779"/>
			<path fill="#231F20" d="M108.855,65.436h-1.205V64.23h1.205V65.436z M108.076,65.01h0.353v-0.353h-0.353V65.01z"/>
		</g>
	</g>
	<g>
		<g>
			<rect x="74.858" y="90.123" fill="#231F20" width="0.779" height="0.78"/>
			<path fill="#231F20" d="M75.851,91.117h-1.206v-1.205h1.206V91.117z M75.07,90.692h0.354v-0.354H75.07V90.692z"/>
		</g>
		<g>
			<rect x="71.154" y="90.123" fill="#231F20" width="0.78" height="0.78"/>
			<path fill="#231F20" d="M72.148,91.117h-1.207v-1.205h1.207V91.117z M71.367,90.692h0.355v-0.354h-0.355V90.692z"/>
		</g>
		<g>
			<rect x="67.452" y="90.123" fill="#231F20" width="0.779" height="0.78"/>
			<path fill="#231F20" d="M68.444,91.117h-1.206v-1.205h1.206V91.117z M67.665,90.692h0.354v-0.354h-0.354V90.692z"/>
		</g>
		<g>
			<rect x="63.749" y="90.123" fill="#231F20" width="0.78" height="0.78"/>
			<path fill="#231F20" d="M64.742,91.117h-1.207v-1.205h1.207V91.117z M63.961,90.692h0.354v-0.354h-0.354V90.692z"/>
		</g>
		<g>
			<rect x="63.749" y="86.813" fill="#231F20" width="0.78" height="0.778"/>
			<path fill="#231F20" d="M64.742,87.804h-1.207v-1.205h1.207V87.804z M63.961,87.377h0.354v-0.353h-0.354V87.377z"/>
		</g>
		<g>
			<rect x="63.749" y="83.497" fill="#231F20" width="0.78" height="0.78"/>
			<path fill="#231F20" d="M64.742,84.489h-1.207v-1.204h1.207V84.489z M63.961,84.064h0.354v-0.354h-0.354V84.064z"/>
		</g>
		<g>
			<rect x="63.749" y="80.186" fill="#231F20" width="0.78" height="0.78"/>
			<path fill="#231F20" d="M64.742,81.178h-1.207v-1.206h1.207V81.178z M63.961,80.752h0.354v-0.354h-0.354V80.752z"/>
		</g>
	</g>
	<g>
		<rect x="107.555" y="72.728" fill="#231F20" width="0.427" height="0.877"/>
	</g>
	<g>
		<rect x="107.555" y="81.462" fill="#231F20" width="0.427" height="0.879"/>
	</g>
	<g>
		<rect x="107.555" y="90.231" fill="#231F20" width="0.427" height="0.877"/>
	</g>
</g>
</svg>
