<?xml version="1.0" encoding="utf-8"?>
<!-- Generator: Adobe Illustrator 15.1.0, SVG Export Plug-In . SVG Version: 6.00 Build 0)  -->
<!DOCTYPE svg PUBLIC "-//W3C//DTD SVG 1.1//EN" "http://www.w3.org/Graphics/SVG/1.1/DTD/svg11.dtd">
<svg version="1.1" id="Layer_1" xmlns="http://www.w3.org/2000/svg" xmlns:xlink="http://www.w3.org/1999/xlink" x="0px" y="0px"
	 width="60px" height="55px" viewBox="0 0 60 55" enable-background="new 0 0 60 55" xml:space="preserve">
<g>
	<g>
		<path fill="#231F20" d="M7.941,53c-2.119,0-4.398-1.263-5.542-3.069l-0.121-0.189l0.176-0.143
			c2.404-1.944,5.098-4.498,6.844-8.682c0.416-0.998,1.189-2.857,1.077-3.938c-0.03-0.299-0.185-0.582-0.349-0.882
			c-0.211-0.387-0.451-0.826-0.42-1.354c0.063-1.09,0.722-1.913,1.815-2.275c0.373-0.996,0.914-1.826,1.447-2.625
			c-0.674-0.222-1.331-0.409-2.021-0.605c-0.637-0.181-1.306-0.372-2.052-0.607c-1.002-0.313-6.259-1.995-6.259-1.995l-0.76-0.243
			l0.761-0.239c0,0,6.203-1.951,8.016-2.505l3.439-1.061c5.436-1.679,11.057-3.415,15.78-4.76c0.608-0.174,1.876,0.243,2.973,0.617
			c0.286,0.098,0.557,0.19,0.793,0.264c5.269,1.629,9.945,3.061,16.138,4.939c1.436,0.435,6.971,2.267,7.027,2.285l0.644,0.213
			l-0.626,0.262c-0.219,0.09-5.364,2.233-7.154,2.775c-2.775,0.838-5.594,1.715-8.318,2.562c-2.558,0.795-5.124,1.592-7.712,2.379
			c-0.364,0.108-0.766,0.262-1.156,0.409c-0.787,0.297-1.529,0.577-2.094,0.591c0,0-0.001,0-0.001,0
			c-0.645,0-1.314-0.271-1.962-0.532c-0.323-0.131-0.657-0.266-0.968-0.359c-2.827-0.852-5.707-1.701-8.562-2.522l-0.527-0.152
			l0.458-0.303c2.414-1.596,5.49-2.69,9.975-3.552c0.226-0.043,0.455-0.081,0.681-0.117c1.264-0.205,2.036-0.378,2.076-1.078
			c0.016-0.275-0.044-0.483-0.186-0.634c-0.216-0.229-0.632-0.345-1.24-0.345c-1.087,0-2.518,0.371-3.562,0.643
			c-0.23,0.061-0.442,0.114-0.626,0.16c-2.605,0.637-5.961,1.618-8.809,3.586c-1.289,0.889-2.669,2.335-2.75,3.217
			c-0.015,0.166,0.096,0.401,0.212,0.65c0.163,0.349,0.348,0.743,0.338,1.2c-0.013,0.775-0.292,1.124-0.679,1.607
			c-0.124,0.154-0.262,0.328-0.412,0.541c0.218,3.224,0.389,10.867-2.478,14.363C10.456,52.479,9.307,53,7.941,53z M2.95,49.847
			c1.081,1.545,3.141,2.647,4.991,2.647c0.842,0,2.036-0.229,2.93-1.321c1.928-2.349,2.81-7.62,2.358-14.094l-0.006-0.089
			l0.05-0.072c0.177-0.259,0.34-0.463,0.483-0.643c0.36-0.449,0.559-0.697,0.568-1.301c0.007-0.341-0.144-0.664-0.29-0.978
			c-0.146-0.312-0.284-0.606-0.258-0.908c0.11-1.209,1.834-2.809,2.966-3.589c2.917-2.016,6.33-3.016,8.978-3.662
			c0.183-0.044,0.391-0.098,0.619-0.157c1.071-0.279,2.537-0.66,3.689-0.66c0.762,0,1.289,0.166,1.608,0.503
			c0.238,0.254,0.348,0.593,0.322,1.012c-0.066,1.155-1.304,1.355-2.5,1.548c-0.222,0.036-0.446,0.072-0.666,0.114
			c-4.128,0.792-7.036,1.781-9.321,3.179c2.68,0.773,5.378,1.57,8.028,2.37c0.333,0.1,0.678,0.239,1.012,0.374
			c0.604,0.243,1.227,0.494,1.733,0.494c0.508-0.01,1.243-0.289,1.955-0.558c0.398-0.15,0.811-0.306,1.188-0.421
			c2.588-0.785,5.152-1.582,7.709-2.378c2.727-0.847,5.545-1.724,8.321-2.563c1.4-0.423,5.015-1.896,6.478-2.497
			c-1.512-0.5-5.232-1.723-6.368-2.067c-6.193-1.881-10.869-3.312-16.141-4.941c-0.24-0.075-0.516-0.169-0.807-0.268
			c-0.827-0.282-1.856-0.634-2.444-0.634c-0.092,0-0.167,0.008-0.226,0.025c-4.718,1.343-10.336,3.078-15.77,4.756l-3.44,1.061
			c-1.421,0.434-5.538,1.726-7.251,2.265c1.494,0.478,4.732,1.513,5.496,1.752c0.742,0.234,1.407,0.423,2.039,0.604
			c0.803,0.228,1.562,0.444,2.359,0.718l0.311,0.106l-0.297,0.445c-0.584,0.875-1.136,1.702-1.503,2.736l-0.043,0.123l-0.125,0.036
			c-0.949,0.276-1.524,0.953-1.576,1.856c-0.022,0.384,0.163,0.724,0.359,1.082c0.181,0.33,0.368,0.673,0.408,1.073
			c0.116,1.114-0.514,2.743-1.114,4.184C8.019,45.295,5.358,47.88,2.95,49.847z"/>
	</g>
	<g>
		<path fill="#231F20" d="M30.005,47.814c-3.22,0-6.242-0.752-8.738-2.176c-2.143-1.224-4.509-3.32-4.722-5.536
			c-0.155-1.644,0.437-3.127,1.009-4.563c0.213-0.533,0.433-1.086,0.606-1.63l0.075-0.234l0.235,0.074
			c1.376,0.438,2.743,0.856,4.148,1.287l1.726,0.529c0.522,0.161,1.046,0.35,1.602,0.551c1.42,0.514,2.889,1.045,4.268,1.045
			l0.147-0.001c1.328-0.04,2.677-0.555,3.98-1.051c0.604-0.23,1.228-0.469,1.833-0.651c0.907-0.272,1.792-0.523,2.669-0.772
			c1.049-0.297,2.132-0.604,3.21-0.938l0.276-0.085l0.041,0.286c0.11,0.78,0.392,1.506,0.689,2.276
			c0.505,1.308,1.027,2.659,0.695,4.329c-0.378,1.915-2.893,3.936-4.931,5.084C36.33,47.043,33.198,47.814,30.005,47.814z
			 M18.553,34.294c-0.164,0.481-0.355,0.962-0.542,1.429c-0.55,1.38-1.12,2.809-0.976,4.334c0.195,2.027,2.44,3.992,4.476,5.154
			c2.387,1.361,5.404,2.111,8.494,2.111c3.11,0,6.157-0.75,8.579-2.112c2.101-1.184,4.364-3.111,4.688-4.751
			c0.305-1.529-0.192-2.813-0.672-4.056c-0.261-0.675-0.53-1.369-0.67-2.1c-0.994,0.303-1.988,0.584-2.953,0.857
			c-0.874,0.248-1.756,0.498-2.661,0.77c-0.588,0.177-1.177,0.402-1.8,0.64c-1.342,0.512-2.729,1.04-4.141,1.083l-0.162,0.002
			c-1.465,0-2.975-0.546-4.436-1.074c-0.55-0.199-1.069-0.387-1.579-0.545l-1.726-0.529C21.146,35.101,19.852,34.704,18.553,34.294z
			"/>
	</g>
</g>
</svg>
