<?xml version="1.0" encoding="utf-8"?>
<!-- Generator: Adobe Illustrator 15.1.0, SVG Export Plug-In . SVG Version: 6.00 Build 0)  -->
<!DOCTYPE svg PUBLIC "-//W3C//DTD SVG 1.1//EN" "http://www.w3.org/Graphics/SVG/1.1/DTD/svg11.dtd">
<svg version="1.1" id="Layer_1" xmlns="http://www.w3.org/2000/svg" xmlns:xlink="http://www.w3.org/1999/xlink" x="0px" y="0px"
	 width="60px" height="55px" viewBox="0 0 60 55" enable-background="new 0 0 60 55" xml:space="preserve">
<g>
	<g>
		<g>
			<path fill="none" stroke="#000000" stroke-width="0.5" stroke-miterlimit="10" d="M38.466,40.646H6.542
				c0,0-4.282-0.194-4.282-4.574c0-4.381,0-25.306,0-25.306s0.779-4.087,4.769-4.087c3.991,0,35.414,0,35.414,0
				s4.281,0.681,4.281,4.574c0,3.894,0,9.636,0,9.636"/>
			<path fill="none" stroke="#000000" stroke-width="0.5" stroke-miterlimit="10" d="M38.271,33.54H6.835
				c0,0-2.336,0.39-2.336-2.043c0-2.434,0-20.147,0-20.147S4.402,9.306,6.835,9.306c2.433,0,35.232,0,35.232,0
				s2.434,0.195,2.434,2.433s0,9.148,0,9.148"/>
			<path fill="none" stroke="#000000" stroke-width="0.5" stroke-miterlimit="10" d="M20.071,41.035v2.627
				c0,0,0.098,2.142-3.017,2.142H31.75c0,0-3.114-0.584-3.114-2.433c0-1.85,0-2.434,0-2.434"/>
			<line fill="none" stroke="#000000" stroke-width="0.5" stroke-miterlimit="10" x1="4.693" y1="12.712" x2="44.403" y2="12.712"/>
			<polygon fill="none" stroke="#000000" stroke-width="0.5" stroke-miterlimit="10" points="7.516,23.71 7.516,31.107 
				14.913,31.107 14.913,23.687 			"/>
			<polygon fill="none" stroke="#000000" stroke-width="0.5" stroke-miterlimit="10" points="7.516,15.399 7.516,20.968 
				22.517,20.968 22.517,15.381 			"/>
			<polygon fill="none" stroke="#000000" stroke-width="0.5" stroke-miterlimit="10" points="17.601,23.71 17.601,31.107 
				24.998,31.107 24.998,23.687 			"/>
			<polygon fill="none" stroke="#000000" stroke-width="0.5" stroke-miterlimit="10" points="27.632,23.71 27.632,31.107 
				35.028,31.107 35.028,23.687 			"/>
			
				<line fill="none" stroke="#000000" stroke-width="0.5" stroke-miterlimit="10" x1="24.802" y1="15.759" x2="37.259" y2="15.759"/>
			<line fill="none" stroke="#000000" stroke-width="0.5" stroke-miterlimit="10" x1="24.802" y1="17.7" x2="39.309" y2="17.7"/>
			
				<line fill="none" stroke="#000000" stroke-width="0.5" stroke-miterlimit="10" x1="24.802" y1="19.641" x2="37.259" y2="19.641"/>
			<circle fill="none" stroke="#000000" stroke-width="0.5" stroke-miterlimit="10" cx="24.478" cy="37.384" r="1.51"/>
			<circle fill="none" stroke="#000000" stroke-width="0.5" stroke-miterlimit="10" cx="48.854" cy="46.498" r="0.917"/>
			<path fill="none" stroke="#000000" stroke-width="0.5" stroke-miterlimit="10" d="M38.229,47.199V22.5
				c0,0-0.27-1.672,1.888-1.672c2.156,0,16.377,0,16.377,0s1.888-0.054,1.888,2.103c0,2.157,0,23.945,0,23.945
				s-0.271,1.888-1.834,1.888s-16.485,0-16.485,0S38.229,48.817,38.229,47.199z"/>
			<path fill="none" stroke="#000000" stroke-width="0.5" stroke-miterlimit="10" d="M40.01,43.37V23.686
				c0,0,0.053-1.133,1.348-1.133c1.294,0,13.859,0,13.859,0s1.321,0.27,1.321,1.321s0,19.333,0,19.333s0.027,1.241-1.375,1.241
				s-13.914,0-13.914,0S40.01,44.233,40.01,43.37z"/>
			
				<rect x="41.842" y="24.603" fill="none" stroke="#000000" stroke-width="0.5" stroke-miterlimit="10" width="12.782" height="10.409"/>
			<line fill="none" stroke="#000000" stroke-width="0.5" stroke-miterlimit="10" x1="42.22" y1="37.978" x2="52.251" y2="37.978"/>
			
				<line fill="none" stroke="#000000" stroke-width="0.5" stroke-miterlimit="10" x1="42.329" y1="39.757" x2="50.579" y2="39.757"/>
			
				<line fill="none" stroke="#000000" stroke-width="0.5" stroke-miterlimit="10" x1="52.198" y1="14.356" x2="52.198" y2="17.053"/>
			
				<line fill="none" stroke="#000000" stroke-width="0.5" stroke-miterlimit="10" x1="50.903" y1="15.705" x2="53.492" y2="15.705"/>
			<line fill="none" stroke="#000000" stroke-width="0.5" stroke-miterlimit="10" x1="56.351" y1="5.35" x2="56.351" y2="10.042"/>
			<line fill="none" stroke="#000000" stroke-width="0.5" stroke-miterlimit="10" x1="54.139" y1="7.561" x2="58.508" y2="7.561"/>
		</g>
	</g>
</g>
</svg>
