<?xml version="1.0" encoding="utf-8"?>
<!-- Generator: Adobe Illustrator 23.0.6, SVG Export Plug-In . SVG Version: 6.00 Build 0)  -->
<svg version="1.1" id="Layer_1" xmlns="http://www.w3.org/2000/svg" xmlns:xlink="http://www.w3.org/1999/xlink" x="0px" y="0px"
	 viewBox="0 0 44.7 53.6" style="enable-background:new 0 0 44.7 53.6;" xml:space="preserve">
<style type="text/css">
	.st0{fill:#030303;}
</style>
<path class="st0" d="M30.9,18.3H29v3.1h-1.4v-3.8c0-0.2,0.1-0.4,0.2-0.5c0.1-0.1,0.3-0.2,0.5-0.2H31c0.3-0.8,1-1.3,1.9-1.3
	c1.1,0,2,0.9,2,2s-0.9,2-2,2C32,19.7,31.2,19.1,30.9,18.3z M20.4,33.2c0.1-0.1,0.4-0.1,0.5,0c0.1,0.1,0.1,0.4,0,0.5
	c-0.1,0.1-0.4,0.1-0.5,0C20.2,33.5,20.2,33.3,20.4,33.2z M19.5,35.1c0-0.2,0.2-0.4,0.4-0.4c0.2,0,0.4,0.2,0.4,0.4s-0.2,0.4-0.4,0.4
	C19.7,35.5,19.5,35.3,19.5,35.1z M20.4,37.1c-0.1-0.1-0.1-0.4,0-0.5c0.1-0.1,0.4-0.1,0.5,0c0.1,0.1,0.1,0.4,0,0.5
	C20.8,37.3,20.5,37.3,20.4,37.1C20.4,37.1,20.4,37.1,20.4,37.1z M22.4,37.9c-0.2,0-0.4-0.2-0.4-0.4c0-0.2,0.2-0.4,0.4-0.4
	c0.2,0,0.4,0.2,0.4,0.4C22.7,37.8,22.6,37.9,22.4,37.9z M24.3,37.1c-0.1,0.1-0.4,0.1-0.5,0c-0.1-0.1-0.1-0.4,0-0.5
	c0.1-0.1,0.4-0.1,0.5,0C24.5,36.7,24.5,37,24.3,37.1z M25.2,35.1c0,0.2-0.2,0.4-0.4,0.4c0,0,0,0,0,0c-0.2,0-0.4-0.2-0.4-0.4
	c0-0.2,0.2-0.4,0.4-0.4C25,34.8,25.2,34.9,25.2,35.1z M24.3,33.1c0.1,0.1,0.1,0.4,0,0.5c-0.1,0.1-0.4,0.1-0.5,0
	c-0.1-0.1-0.1-0.4,0-0.5C24,33,24.2,33,24.3,33.1z M22.4,32.3c0.2,0,0.4,0.2,0.4,0.4c0,0.2-0.2,0.4-0.4,0.4S22,32.9,22,32.7
	C22,32.5,22.1,32.3,22.4,32.3z M22.4,33.7c0.8,0,1.4,0.6,1.4,1.4c0,0.8-0.6,1.4-1.4,1.4c-0.8,0-1.4-0.6-1.4-1.4
	C20.9,34.3,21.6,33.7,22.4,33.7z M22.4,30.7c1.2,0,2.3,0.5,3.1,1.3c0.8,0.8,1.3,1.9,1.3,3.1c0,1.2-0.5,2.3-1.3,3.1
	c-0.8,0.8-1.9,1.3-3.1,1.3c-1.2,0-2.3-0.5-3.1-1.3c-0.8-0.8-1.3-1.9-1.3-3.1c0-1.2,0.5-2.3,1.3-3.1S21.1,30.7,22.4,30.7z M25,32.4
	c-0.7-0.7-1.6-1.1-2.7-1.1c-1.1,0-2,0.4-2.7,1.1c-0.7,0.7-1.1,1.6-1.1,2.7c0,1.1,0.4,2,1.1,2.7c0.7,0.7,1.6,1.1,2.7,1.1
	c1.1,0,2-0.4,2.7-1.1c0.7-0.7,1.1-1.6,1.1-2.7C26.2,34.1,25.7,33.1,25,32.4z M34.3,29.4c-0.2,3.4-1.4,6.6-3.4,9
	c-2,2.4-4.9,3.9-8.5,3.9s-6.4-1.5-8.5-3.9c-2.1-2.4-3.3-5.7-3.4-9c-0.6-0.3-1-0.9-1-1.6v-4.8h25.9v4.8
	C35.3,28.5,34.9,29.1,34.3,29.4z M30,37.7c1.9-2.2,3-5.1,3.2-8.2H11.5c0.2,3.1,1.3,6,3.2,8.2c1.8,2.1,4.4,3.6,7.7,3.6
	S28.2,39.9,30,37.7z M16.7,18.8v2.6h-1.4v-1.9h-1.6c-0.3,0.8-1,1.4-1.9,1.4c-1.1,0-2-0.9-2-2c0-1.1,0.9-2,2-2c0.9,0,1.6,0.5,1.9,1.3
	H16c0.2,0,0.4,0.1,0.5,0.2C16.7,18.5,16.7,18.6,16.7,18.8z M13.2,11.3c-1.1,0-2,0.9-2,2c0,1.1,0.9,2,2,2c0.8,0,1.5-0.5,1.9-1.2h4
	v7.3h1.4v-8c0-0.2-0.1-0.4-0.2-0.5c-0.1-0.1-0.3-0.2-0.5-0.2h-4.6C14.9,11.9,14.1,11.3,13.2,11.3z M24.4,11.3c-1.1,0-2,0.9-2,2
	c0,0.9,0.6,1.6,1.3,1.9v6.2h1.4v-6.2c0.8-0.3,1.3-1,1.3-1.9C26.4,12.2,25.5,11.3,24.4,11.3z"/>
</svg>
