<?xml version="1.0" encoding="utf-8"?>
<!-- Generator: Adobe Illustrator 15.1.0, SVG Export Plug-In . SVG Version: 6.00 Build 0)  -->
<!DOCTYPE svg PUBLIC "-//W3C//DTD SVG 1.1//EN" "http://www.w3.org/Graphics/SVG/1.1/DTD/svg11.dtd">
<svg version="1.1" id="Layer_1" xmlns="http://www.w3.org/2000/svg" xmlns:xlink="http://www.w3.org/1999/xlink" x="0px" y="0px"
	 width="60px" height="55px" viewBox="0 0 60 55" enable-background="new 0 0 60 55" xml:space="preserve">
<g>
	<g>
		<g>
			<path fill="#231F20" d="M2.225,52.457H1.818v-4.576c0.011-0.078,0.809-4.051,5.335-3.861l0.124,0.005l2.193,4.753h1.389
				l2.188-4.742l0.112-0.015c0.063-0.009,1.569-0.181,2.902,0.962l-0.265,0.309c-0.998-0.855-2.129-0.889-2.479-0.875l-2.2,4.769
				H9.211l-2.197-4.763c-4.057-0.088-4.766,3.351-4.793,3.498L2.225,52.457z"/>
		</g>
		<g>
			<path fill="#231F20" d="M35.857,53.373V47.7c-0.348-3.821-2.242-4.748-2.262-4.757l-3.133-1.74l-3.619,6.333h-1.892l-2.896-5.974
				l-5.285,2.466c-1.885,1.597-1.196,9.065-1.188,9.142l-0.404,0.039c-0.03-0.317-0.719-7.813,1.354-9.51l0.043-0.027l5.672-2.646
				l2.959,6.104h1.402l3.701-6.478l3.47,1.929c0.071,0.03,2.108,1.004,2.481,5.1l0.002,5.681L35.857,53.373z"/>
		</g>
		<g>
			<path fill="#231F20" d="M49.217,53.555v-5.49c0-3.254-3.828-3.747-4.608-3.813l-2.19,5.114h-1.539l-2.545-4.907l-2.772,0.691
				l-0.099-0.395l3.084-0.771l2.578,4.976h1.023l2.197-5.131l0.141,0.006c0.053,0.002,5.137,0.235,5.137,4.229v5.48L49.217,53.555z"
				/>
		</g>
		<g>
			<rect x="4.93" y="50.444" fill="#231F20" width="0.406" height="2.745"/>
		</g>
		<g>
			<rect x="46.471" y="50.444" fill="#231F20" width="0.406" height="2.745"/>
		</g>
		<g>
			<rect x="18.655" y="48.494" fill="#231F20" width="0.406" height="4.633"/>
		</g>
		<g>
			<rect x="32.198" y="48.494" fill="#231F20" width="0.405" height="4.633"/>
		</g>
		<g>
			<path fill="#231F20" d="M10.073,43.144c-2.332,0-4.229-1.897-4.229-4.229s1.897-4.229,4.229-4.229s4.229,1.896,4.229,4.229
				S12.405,43.144,10.073,43.144z M10.073,35.09c-2.108,0-3.823,1.716-3.823,3.824c0,2.106,1.715,3.822,3.823,3.822
				c2.109,0,3.823-1.716,3.823-3.822C13.897,36.806,12.183,35.09,10.073,35.09z"/>
		</g>
		<g>
			<path fill="#231F20" d="M41.734,43.144c-2.332,0-4.229-1.897-4.229-4.229s1.896-4.229,4.229-4.229
				c2.331,0,4.229,1.896,4.229,4.229S44.065,43.144,41.734,43.144z M41.734,35.09c-2.107,0-3.824,1.716-3.824,3.824
				c0,2.106,1.717,3.822,3.824,3.822s3.823-1.716,3.823-3.822C45.558,36.806,43.842,35.09,41.734,35.09z"/>
		</g>
		<g>
			<path fill="#231F20" d="M25.813,39.666c-2.836,0-5.145-2.308-5.145-5.144c0-2.837,2.309-5.144,5.145-5.144
				s5.145,2.307,5.145,5.144C30.957,37.358,28.648,39.666,25.813,39.666z M25.813,29.784c-2.613,0-4.738,2.126-4.738,4.738
				s2.125,4.737,4.738,4.737c2.611,0,4.738-2.125,4.738-4.737S28.424,29.784,25.813,29.784z"/>
		</g>
		<g>
			<path fill="#231F20" d="M8.313,35.401C5.98,31.947,4.746,27.91,4.746,23.726c0-11.515,9.368-20.884,20.883-20.884
				c11.516,0,20.883,9.369,20.883,20.884c0,4.019-1.145,7.922-3.31,11.286l-0.39-0.152c2.123-3.298,3.293-7.193,3.293-11.134
				c0-11.292-9.186-20.478-20.477-20.478S5.151,12.434,5.151,23.726c0,4.104,1.209,8.063,3.497,11.448L8.313,35.401z"/>
		</g>
		<g>
			<path fill="#231F20" d="M37.926,38.149c-2.06-2.028-4.61-3.506-7.379-4.272l0.107-0.392c2.734,0.758,5.261,2.192,7.329,4.155
				c0.076,0.072,0.051-0.074,0.126,0L37.926,38.149z"/>
		</g>
		<g>
			<path fill="#231F20" d="M13.975,38.239l-0.193-0.364c0.049-0.05,0.005-0.021,0.055-0.07c2.041-1.99,4.552-3.461,7.277-4.256
				l-0.082,0.326c-0.059,0.018,0.078,0.099,0.019,0.116C18.391,34.798,15.948,36.265,13.975,38.239z"/>
		</g>
		<g>
			<path fill="#231F20" d="M17.219,35.641c-0.006-0.01-0.037,0.056-0.105-0.076c-1.024-1.976-8.169-17.194,5.661-32.561l0.302,0.271
				C9.65,18.193,16.246,32.95,17.415,35.264c0.098,0.193,0.148,0.161,0.155,0.174L17.219,35.641z"/>
		</g>
		<g>
			<path fill="#231F20" d="M34.416,35.152l-0.371-0.162c4.508-10.333,2.813-18.376,0.599-23.305
				c-2.404-5.346-5.923-8.287-5.958-8.314l0.258-0.313C29.086,3.174,43.168,15.092,34.416,35.152z"/>
		</g>
		<g>
			<path fill="#231F20" d="M26.692,14.082c-8.485,0-15.187-5.49-15.285-5.574l0.261-0.311c0.145,0.122,14.666,12.01,27.918,0.369
				l0.269,0.305C35.416,12.77,30.84,14.082,26.692,14.082z"/>
		</g>
		<g>
			<rect x="4.949" y="23.521" fill="#231F20" width="41.36" height="0.406"/>
		</g>
		<g>
			<rect x="25.426" y="3.045" fill="#231F20" width="0.406" height="26.537"/>
		</g>
	</g>
</g>
</svg>
