<?xml version="1.0" encoding="utf-8"?>
<!-- Generator: Adobe Illustrator 15.1.0, SVG Export Plug-In . SVG Version: 6.00 Build 0)  -->
<!DOCTYPE svg PUBLIC "-//W3C//DTD SVG 1.1//EN" "http://www.w3.org/Graphics/SVG/1.1/DTD/svg11.dtd">
<svg version="1.1" id="Layer_1" xmlns="http://www.w3.org/2000/svg" xmlns:xlink="http://www.w3.org/1999/xlink" x="0px" y="0px"
	 width="60px" height="55px" viewBox="0 0 60 55" enable-background="new 0 0 60 55" xml:space="preserve">
<g>
	<g>
		<g>
			<path fill="#231F20" d="M38.116,45.361H5.701c-0.055-0.002-4.551-0.259-4.551-4.848V14.75c0.013-0.078,0.875-4.352,5.047-4.352
				h36.057c0.074,0.01,4.548,0.769,4.548,4.847v9.812h-0.38v-9.812c0-3.759-4.156-4.463-4.197-4.47L6.197,10.777
				c-3.861,0-4.662,3.968-4.67,4.009l0.004,25.728c0,4.229,4.008,4.461,4.179,4.469l32.391-0.001L38.116,45.361L38.116,45.361z"/>
		</g>
		<g>
			<path fill="#231F20" d="M5.641,38.153c-0.387,0-1.016-0.076-1.508-0.493c-0.467-0.396-0.703-1.002-0.703-1.803V15.346
				c-0.001-0.028-0.035-0.898,0.596-1.561c0.451-0.472,1.113-0.71,1.973-0.71h35.873c0.04,0.002,2.666,0.241,2.666,2.667v9.314
				h-0.381v-9.314c0-2.074-2.209-2.279-2.303-2.289H5.998c-0.751,0-1.323,0.2-1.698,0.594c-0.521,0.545-0.491,1.281-0.491,1.289
				v20.521c0,0.683,0.19,1.189,0.567,1.511c0.626,0.533,1.582,0.384,1.59,0.384l32.039-0.004v0.381H5.998
				C5.993,38.129,5.854,38.153,5.641,38.153z"/>
		</g>
		<g>
			<path fill="#231F20" d="M31.365,50.613H16.402v-0.379c1.088,0,1.89-0.26,2.381-0.773c0.525-0.552,0.503-1.201,0.503-1.209v-3.097
				h0.379v3.089c0.001,0.023,0.03,0.813-0.606,1.479c-0.199,0.207-0.436,0.377-0.712,0.513h11.735
				c-0.944-0.381-2.076-1.086-2.076-2.287v-2.892h0.379v2.891c0,1.705,2.986,2.285,3.018,2.29L31.365,50.613z"/>
		</g>
		<g>
			<rect x="3.818" y="16.543" fill="#231F20" width="40.43" height="0.379"/>
		</g>
		<g>
			<path fill="#231F20" d="M14.413,35.65H6.502v-7.909l7.911-0.026V35.65z M6.882,35.271h7.151v-7.178l-7.151,0.024V35.271z"/>
		</g>
		<g>
			<path fill="#231F20" d="M22.154,25.328H6.502v-6.05l15.652-0.021V25.328z"/>
		</g>
		<g>
			<path fill="#231F20" d="M24.681,35.65h-7.909v-7.909l7.909-0.026V35.65z M17.15,35.271h7.15v-7.178l-7.15,0.024V35.271z"/>
		</g>
		<g>
			<path fill="#231F20" d="M34.893,35.65h-7.91v-7.909l7.91-0.026V35.65L34.893,35.65z M27.361,35.271h7.154v-7.178l-7.154,0.024
				V35.271z"/>
		</g>
		<g>
			<rect x="24.292" y="19.645" fill="#231F20" width="12.685" height="0.379"/>
		</g>
		<g>
			<rect x="24.292" y="21.62" fill="#231F20" width="14.771" height="0.38"/>
		</g>
		<g>
			<rect x="24.292" y="23.598" fill="#231F20" width="12.685" height="0.379"/>
		</g>
		<g>
			<path fill="#231F20" d="M23.961,43.578c-0.952,0-1.727-0.773-1.727-1.727s0.774-1.728,1.727-1.728s1.727,0.773,1.727,1.728
				C25.688,42.803,24.913,43.578,23.961,43.578z M23.961,40.504c-0.743,0-1.348,0.604-1.348,1.349c0,0.741,0.604,1.347,1.348,1.347
				s1.348-0.604,1.348-1.347C25.309,41.108,24.704,40.504,23.961,40.504z"/>
		</g>
		<g>
			<path fill="#231F20" d="M48.781,52.254c-0.62,0-1.125-0.504-1.125-1.123c0-0.617,0.505-1.121,1.125-1.121
				c0.619,0,1.123,0.504,1.123,1.121C49.904,51.75,49.4,52.254,48.781,52.254z M48.781,50.387c-0.41,0-0.744,0.334-0.744,0.744
				c0,0.409,0.334,0.743,0.744,0.743c0.408,0,0.742-0.334,0.742-0.743C49.523,50.721,49.191,50.387,48.781,50.387z"/>
		</g>
		<g>
			<path fill="#231F20" d="M39.809,53.629c-0.209,0-2.035-0.052-2.035-1.783V26.697l0,0c-0.002,0-0.106-0.698,0.363-1.253
				c0.362-0.424,0.949-0.64,1.748-0.64h16.674h0.002c0.791,0,2.109,0.492,2.109,2.33v24.381c-0.104,0.746-0.667,2.111-2.057,2.111
				H39.809V53.629z M56.57,25.184H39.885c-0.682,0-1.174,0.171-1.459,0.507c-0.359,0.423-0.275,0.971-0.275,0.976l0.002,25.178
				c0,1.336,1.379,1.403,1.656,1.403v0.189l0.016-0.19h16.789c1.412,0,1.678-1.74,1.68-1.759l-0.001-24.353
				C58.291,25.239,56.748,25.184,56.57,25.184z"/>
		</g>
		<g>
			<path fill="#231F20" d="M55.204,49.233H41.037c-0.09-0.013-1.452-0.261-1.452-1.288v-20.04c0-0.021,0.08-1.343,1.563-1.343
				l14.147,0.003c0.519,0.106,1.497,0.563,1.497,1.53v19.686c0,0.02,0.009,0.596-0.407,1.02
				C56.105,49.088,55.708,49.233,55.204,49.233z M41.148,26.941c-1.098,0-1.179,0.874-1.185,0.975l0.001,20.029
				c0,0.713,1.094,0.909,1.104,0.911l14.136-0.002c0.396,0,0.702-0.106,0.909-0.315c0.303-0.309,0.301-0.75,0.301-0.755V28.096
				c0-0.85-1.023-1.119-1.178-1.154H41.148z"/>
		</g>
		<g>
			<path fill="#231F20" d="M54.845,39.625H41.451V28.649h13.394V39.625z M41.831,39.246h12.635V29.027H41.831V39.246z"/>
		</g>
		<g>
			<rect x="42.025" y="42.266" fill="#231F20" width="10.213" height="0.379"/>
		</g>
		<g>
			<rect x="42.135" y="44.077" fill="#231F20" width="8.401" height="0.38"/>
		</g>
		<g>
			<rect x="51.995" y="18.406" fill="#231F20" width="0.379" height="2.746"/>
		</g>
		<g>
			<rect x="50.865" y="19.59" fill="#231F20" width="2.637" height="0.379"/>
		</g>
		<g>
			<rect x="56.223" y="9.237" fill="#231F20" width="0.379" height="4.776"/>
		</g>
		<g>
			<rect x="54.16" y="11.299" fill="#231F20" width="4.447" height="0.377"/>
		</g>
	</g>
</g>
</svg>
