<?xml version="1.0" encoding="utf-8"?>
<!-- Generator: Adobe Illustrator 23.0.6, SVG Export Plug-In . SVG Version: 6.00 Build 0)  -->
<svg version="1.1" id="Layer_1" xmlns="http://www.w3.org/2000/svg" xmlns:xlink="http://www.w3.org/1999/xlink" x="0px" y="0px"
	width="60px" height="55px" viewBox="0 0 60 55" style="enable-background:new 0 0 60 55;" xml:space="preserve">
<style type="text/css">
	.st0{fill:#6FA8A8;}
	.st1{fill:#FFFFFF;}
</style>
<path class="st0" d="M44.5,13.2h-3.3v5.2h-2.3V12c0-0.3,0.1-0.6,0.3-0.8s0.5-0.3,0.8-0.3h4.5c0.5-1.3,1.7-2.2,3.2-2.2
	c1.9,0,3.4,1.5,3.4,3.4s-1.5,3.4-3.4,3.4C46.2,15.5,45,14.6,44.5,13.2z M26.6,38.3c0.2-0.2,0.7-0.2,0.9,0c0.2,0.2,0.2,0.7,0,0.9
	s-0.7,0.2-0.9,0C26.4,38.9,26.4,38.5,26.6,38.3z M25.2,41.6c0-0.4,0.3-0.6,0.6-0.6s0.6,0.3,0.6,0.6c0,0.4-0.3,0.6-0.6,0.6
	S25.2,42,25.2,41.6z M26.6,45c-0.2-0.2-0.2-0.7,0-0.9s0.7-0.2,0.9,0c0.2,0.2,0.2,0.7,0,0.9S26.9,45.2,26.6,45L26.6,45z M30,46.4
	c-0.4,0-0.6-0.3-0.6-0.6s0.3-0.6,0.6-0.6s0.6,0.3,0.6,0.6S30.4,46.4,30,46.4z M33.4,45c-0.2,0.2-0.7,0.2-0.9,0s-0.2-0.7,0-0.9
	s0.7-0.2,0.9,0C33.6,44.3,33.6,44.7,33.4,45z M34.8,41.6c0,0.4-0.3,0.6-0.6,0.6l0,0c-0.4,0-0.6-0.3-0.6-0.6s0.3-0.6,0.6-0.6
	S34.8,41.3,34.8,41.6z M33.4,38.3c0.2,0.2,0.2,0.7,0,0.9s-0.7,0.2-0.9,0s-0.2-0.7,0-0.9C32.7,38,33.1,38,33.4,38.3z M30,36.9
	c0.4,0,0.6,0.3,0.6,0.6s-0.3,0.6-0.6,0.6s-0.6-0.3-0.6-0.6S29.6,36.9,30,36.9z M30,39.2c1.4,0,2.4,1.1,2.4,2.4
	c0,1.4-1.1,2.4-2.4,2.4s-2.4-1.1-2.4-2.4C27.6,40.3,28.6,39.2,30,39.2z M30,34.1c2.1,0,3.9,0.8,5.3,2.2c1.4,1.4,2.2,3.2,2.2,5.3
	s-0.8,3.9-2.2,5.3c-1.4,1.4-3.2,2.2-5.3,2.2s-3.9-0.8-5.3-2.2s-2.2-3.2-2.2-5.3s0.8-3.9,2.2-5.3C26.1,35,27.9,34.1,30,34.1z
	 M34.6,37.1c-1.2-1.2-2.8-1.9-4.6-1.9s-3.4,0.7-4.6,1.9s-1.9,2.8-1.9,4.6s0.7,3.4,1.9,4.6c1.2,1.2,2.8,1.9,4.6,1.9s3.4-0.7,4.6-1.9
	s1.9-2.8,1.9-4.6S35.7,38.2,34.6,37.1z M50.1,31.9c-0.3,5.7-2.3,11.2-5.8,15.3c-3.4,4-8.3,6.6-14.3,6.6s-10.9-2.6-14.3-6.6
	c-3.5-4.1-5.5-9.6-5.8-15.3c-1-0.5-1.7-1.5-1.7-2.7V21h43.7v8.2C51.9,30.3,51.2,31.4,50.1,31.9z M43,46c3.2-3.7,5-8.7,5.4-13.9H11.7
	C12,37.3,13.9,42.3,17,46c3.1,3.6,7.5,6,13,6S39.9,49.6,43,46z M20.5,14v4.4h-2.3v-3.2h-2.7c-0.5,1.3-1.7,2.3-3.2,2.3
	c-1.9,0-3.4-1.5-3.4-3.4s1.5-3.4,3.4-3.4c1.5,0,2.7,0.9,3.2,2.2h3.9c0.3,0,0.6,0.1,0.8,0.3C20.4,13.4,20.5,13.7,20.5,14z M14.5,1.2
	c-1.9,0-3.4,1.5-3.4,3.4S12.6,8,14.5,8c1.4,0,2.6-0.8,3.1-2h6.8v12.4h2.3V4.9c0-0.3-0.1-0.6-0.3-0.8c-0.2-0.2-0.5-0.3-0.8-0.3h-7.9
	C17.4,2.3,16.1,1.2,14.5,1.2z M33.5,1.3c-1.9,0-3.4,1.5-3.4,3.4c0,1.5,0.9,2.7,2.3,3.2v10.5h2.3V7.9C36,7.4,37,6.2,37,4.7
	C36.9,2.8,35.4,1.3,33.5,1.3z"/>
<rect x="8.9" y="22.1" class="st1" width="42.2" height="7.1"/>
<circle class="st1" cx="14.5" cy="4.5" r="2.5"/>
<circle class="st1" cx="12.2" cy="14.1" r="2.5"/>
<circle class="st1" cx="33.5" cy="4.7" r="2.5"/>
<circle class="st1" cx="47.7" cy="12.1" r="2.5"/>
</svg>
