<?xml version="1.0" encoding="utf-8"?>
<!-- Generator: Adobe Illustrator 15.1.0, SVG Export Plug-In . SVG Version: 6.00 Build 0)  -->
<!DOCTYPE svg PUBLIC "-//W3C//DTD SVG 1.1//EN" "http://www.w3.org/Graphics/SVG/1.1/DTD/svg11.dtd">
<svg version="1.1" id="Layer_1" xmlns="http://www.w3.org/2000/svg" xmlns:xlink="http://www.w3.org/1999/xlink" x="0px" y="0px"
	 width="60px" height="55px" viewBox="0 0 60 55" enable-background="new 0 0 60 55" xml:space="preserve">
<g>
	<g>
		<g>
			<path fill="#231F20" d="M56.563,53.272c-0.033,0-0.058-0.001-0.062-0.001H3.646c-1.957,0-2.084-1.678-2.086-1.695V16.444
				c0-0.028,0.127-1.802,1.99-1.802h21.185l0.341,0.395H3.552c-1.488,0-1.594,1.362-1.598,1.42v35.106
				c0.003,0.043,0.111,1.313,1.691,1.313h52.867c0.021-0.002,0.764,0.031,1.226-0.407c0.247-0.236,0.372-0.571,0.372-1V16.256
				c-0.006-0.035-0.191-1.408-1.69-1.408H37.161v-0.395h19.258c1.854,0,2.081,1.762,2.085,1.779V51.47
				c0,0.541-0.169,0.975-0.495,1.286C57.504,53.235,56.783,53.272,56.563,53.272z"/>
		</g>
		<g>
			<path fill="#231F20" d="M30.929,18.625c-3.961,0-7.184-3.224-7.184-7.185s3.223-7.185,7.184-7.185
				c3.963,0,7.186,3.224,7.186,7.185C38.113,15.401,34.892,18.625,30.929,18.625z M30.929,4.651c-3.744,0-6.789,3.046-6.789,6.79
				c0,3.743,3.045,6.789,6.789,6.789c3.745,0,6.791-3.046,6.791-6.789C37.72,7.697,34.673,4.651,30.929,4.651z"/>
		</g>
		<g>
			<path fill="#231F20" d="M29.82,18.448c-2.127-2.152-3.209-4.493-3.218-6.956c-0.011-3.451,2.069-6.087,2.804-6.911
				c0.139-0.156,0.246-0.124,0.265-0.144l0.263,0.158c-0.029,0.029-2.953,2.963-2.938,6.898c0.008,2.436,1.124,4.752,3.315,6.887"/>
		</g>
		<g>
			<path fill="#231F20" d="M31.961,18.28c2.244-2.006,3.384-4.202,3.379-6.528c-0.004-3.981-3.374-7.024-3.407-7.056l0.263-0.295
				c0.144,0.128,3.534,3.193,3.54,7.351c0.003,2.357-1.099,4.578-3.272,6.604"/>
		</g>
		<g>
			<path fill="#231F20" d="M31.004,8.72c-3.047,0-5.271-1.916-5.303-1.945l0.26-0.296c0.193,0.171,4.8,4.128,9.847-0.004l0.25,0.305
				C34.28,8.233,32.537,8.72,31.004,8.72z"/>
		</g>
		<g>
			<path fill="#231F20" d="M25.965,16.496l-0.267-0.291c0.055-0.05,5.503-4.933,10.65-0.188l-0.267,0.29
				C31.201,11.81,26.177,16.302,25.965,16.496z"/>
		</g>
		<g>
			<rect x="23.942" y="11.244" fill="#231F20" width="13.974" height="0.394"/>
		</g>
		<g>
			<path fill="#231F20" d="M7.327,19.567c-0.993,0-1.803-0.808-1.803-1.801s0.81-1.802,1.803-1.802c0.994,0,1.802,0.809,1.802,1.802
				S8.321,19.567,7.327,19.567z M7.327,16.358c-0.775,0-1.407,0.632-1.407,1.408s0.632,1.407,1.407,1.407s1.408-0.631,1.408-1.407
				S8.103,16.358,7.327,16.358z"/>
		</g>
		<g>
			<path fill="#231F20" d="M13.37,19.567c-0.995,0-1.803-0.808-1.803-1.801s0.809-1.802,1.803-1.802
				c0.992,0,1.801,0.809,1.801,1.802S14.362,19.567,13.37,19.567z M13.37,16.358c-0.777,0-1.407,0.632-1.407,1.408
				s0.63,1.407,1.407,1.407c0.775,0,1.407-0.631,1.407-1.407S14.146,16.358,13.37,16.358z"/>
		</g>
		<g>
			<path fill="#231F20" d="M19.411,19.568c-0.993,0-1.803-0.809-1.803-1.802s0.81-1.802,1.803-1.802
				c0.995,0,1.802,0.809,1.802,1.802S20.405,19.568,19.411,19.568z M19.411,16.358c-0.775,0-1.407,0.631-1.407,1.408
				c0,0.776,0.632,1.407,1.407,1.407s1.409-0.631,1.409-1.407S20.187,16.358,19.411,16.358z"/>
		</g>
		<g>
			<path fill="#231F20" d="M40.843,19.567c-0.992,0-1.802-0.808-1.802-1.801s0.81-1.802,1.802-1.802
				c0.993,0,1.801,0.809,1.801,1.802S41.836,19.567,40.843,19.567z M40.843,16.359c-0.775,0-1.406,0.631-1.406,1.407
				s0.631,1.407,1.406,1.407c0.776,0,1.407-0.631,1.407-1.407S41.619,16.359,40.843,16.359z"/>
		</g>
		<g>
			<path fill="#231F20" d="M46.886,19.567c-0.994,0-1.803-0.808-1.803-1.801s0.809-1.802,1.803-1.802
				c0.992,0,1.799,0.809,1.799,1.802S47.878,19.567,46.886,19.567z M46.886,16.358c-0.777,0-1.408,0.632-1.408,1.408
				s0.631,1.407,1.408,1.407c0.775,0,1.406-0.631,1.406-1.407S47.661,16.358,46.886,16.358z"/>
		</g>
		<g>
			<path fill="#231F20" d="M52.927,19.567c-0.992,0-1.803-0.808-1.803-1.801s0.811-1.802,1.803-1.802s1.801,0.809,1.801,1.802
				S53.919,19.567,52.927,19.567z M52.927,16.358c-0.775,0-1.406,0.632-1.406,1.408s0.631,1.407,1.406,1.407
				c0.773,0,1.406-0.631,1.406-1.407S53.7,16.358,52.927,16.358z"/>
		</g>
		<g>
			<path fill="#231F20" d="M19.703,32.756H5.431v-8.892h14.272V32.756z"/>
		</g>
		<g>
			<path fill="#231F20" d="M55.577,32.756h-14.27v-8.892h14.271L55.577,32.756L55.577,32.756z M41.701,32.361h13.481v-8.103H41.701
				V32.361z"/>
		</g>
		<g>
			<path fill="#231F20" d="M27.72,34.565c-1.464,0-1.875-1.776-1.892-1.854l-1.021-8.342h-3.318v-0.395h3.667l1.059,8.669l0,0
				c0.003,0,0.359,1.524,1.505,1.524h7.363c0.048-0.004,1.443-0.123,1.788-2.192c0.313-1.892,0.633-4.402,0.728-5.152H26.396v-0.395
				h11.647l-0.028,0.221c-0.002,0.031-0.381,3.146-0.754,5.392c-0.399,2.393-2.149,2.521-2.166,2.521L27.72,34.565z"/>
		</g>
		<g>
			<polygon fill="#231F20" points="36.312,37.207 25.056,37.207 26.501,34.002 26.86,34.166 25.664,36.814 36.312,36.814 			"/>
		</g>
		<g>
			<path fill="#231F20" d="M28.19,39.662c-0.784,0-1.424-0.638-1.424-1.424c0-0.785,0.641-1.424,1.424-1.424
				c0.787,0,1.426,0.639,1.426,1.424C29.616,39.024,28.978,39.662,28.19,39.662z M28.19,37.209c-0.566,0-1.028,0.461-1.028,1.028
				s0.462,1.03,1.028,1.03c0.568,0,1.031-0.463,1.031-1.03S28.759,37.209,28.19,37.209z"/>
		</g>
		<g>
			<path fill="#231F20" d="M33.289,39.662c-0.786,0-1.425-0.638-1.425-1.424c0-0.785,0.639-1.424,1.425-1.424
				s1.424,0.639,1.424,1.424C34.713,39.024,34.075,39.662,33.289,39.662z M33.289,37.209c-0.567,0-1.03,0.461-1.03,1.028
				s0.463,1.03,1.03,1.03c0.569,0,1.031-0.463,1.031-1.03S33.858,37.209,33.289,37.209z"/>
		</g>
		<g>
			<path fill="#231F20" d="M36.162,44.77H19.336v-3.254h16.826V44.77z M19.729,44.375h16.037V41.91H19.729V44.375z"/>
		</g>
		<g>
			<path fill="#231F20" d="M36.162,48.752H19.336v-3.254h16.826V48.752z M19.729,48.358h16.037v-2.465H19.729V48.358z"/>
		</g>
		<g>
			<path fill="#231F20" d="M14.626,48.865H5.372V41.35h9.254V48.865z M5.767,48.471h8.465v-6.729H5.767V48.471z"/>
		</g>
		<g>
			<path fill="#231F20" d="M15.58,41.687H4.476v-2.301H15.58V41.687z M4.87,41.291h10.316v-1.512H4.87V41.291z"/>
		</g>
		<g>
			<path fill="#231F20" d="M11.621,39.785L8.29,39.539c-0.1-0.047-2.443-1.143-2.775-2.459c-0.098-0.389-0.02-0.754,0.233-1.092
				c0.029-0.033,0.453-0.492,1.078-0.492c0.562,0,1.08,0.357,1.543,1.064l0.789,1.202l-0.089-2.458l0.054-0.059
				c0.024-0.026,0.608-0.672,1.267-0.672c0.539,0,0.941,0.4,1.198,1.191l0.015,0.043l-0.33,2.189l1.81-2.58l0.081-0.013
				c0.007-0.001,0.166-0.026,0.387-0.026c0.43,0,1.006,0.095,1.324,0.545c0.277,0.394,0.284,0.968,0.021,1.705l-0.022,0.063
				L11.621,39.785z M10.819,39.332l0.699,0.049l3.027-1.944c0.197-0.579,0.199-1.011,0.008-1.283
				c-0.232-0.33-0.728-0.378-1.002-0.378c-0.1,0-0.186,0.006-0.242,0.014L10.819,39.332z M8.424,39.164l2.25,0.158l0.525-3.478
				c-0.196-0.581-0.47-0.875-0.81-0.875c-0.387,0-0.779,0.348-0.92,0.483l0.135,3.707L8.04,36.775
				c-0.385-0.588-0.793-0.885-1.213-0.885c-0.447,0-0.771,0.345-0.775,0.349c-0.166,0.226-0.222,0.474-0.154,0.742
				C6.165,38.043,8.147,39.033,8.424,39.164z"/>
		</g>
		<g>
			<polygon fill="#231F20" points="53.44,48.977 38.171,48.977 38.354,44.095 43.705,44.095 43.705,44.49 38.733,44.49 
				38.581,48.582 53.369,48.582 54.743,48.092 53.302,41.631 47.827,41.631 47.827,48.443 47.431,48.443 47.431,41.235 
				53.618,41.235 55.205,48.346 			"/>
		</g>
		<g>
			<rect x="53.263" y="41.66" fill="#231F20" width="0.396" height="7.118"/>
		</g>
		<g>
			<polygon fill="#231F20" points="43.847,48.619 43.45,48.604 43.793,38.938 50.461,38.938 50.461,41.321 50.065,41.321 
				50.065,39.332 44.177,39.332 			"/>
		</g>
		<g>
			<path fill="#231F20" d="M41.123,45.992c-0.039,0-0.075-0.002-0.112-0.006c-1.017-0.099-1.563-1.508-1.584-1.568l0.367-0.139
				c0.006,0.014,0.48,1.241,1.256,1.313c0.504,0.049,1.067-0.419,1.646-1.349l0.334,0.207
				C42.397,45.476,41.755,45.992,41.123,45.992z"/>
		</g>
		<g>
			<path fill="#231F20" d="M45.414,40.593h-0.394v-2.02c0.004-0.054,0.334-1.711,2.215-1.711c0.029-0.003,0.99-0.05,1.623,0.55
				c0.359,0.336,0.537,0.803,0.537,1.385v1.572h-0.394v-1.572c0-0.469-0.139-0.84-0.412-1.098c-0.514-0.484-1.334-0.443-1.342-0.443
				c-1.562,0-1.827,1.3-1.837,1.354L45.414,40.593z"/>
		</g>
		<g>
			<path fill="#231F20" d="M50.767,43.539c-0.041,0-0.065,0-0.065-0.002c-1.377,0-1.823-1.295-1.867-1.979l0.394-0.025
				c0.004,0.065,0.123,1.609,1.484,1.609c0.021,0,0.627,0.033,1.055-0.368c0.285-0.271,0.435-0.685,0.435-1.229h0.396
				c0,0.66-0.189,1.172-0.563,1.521C51.569,43.5,50.968,43.539,50.767,43.539z"/>
		</g>
		<g>
			
				<rect x="49.79" y="39.947" transform="matrix(-0.6397 -0.7686 0.7686 -0.6397 52.9407 105.1051)" fill="#231F20" width="2.629" height="0.394"/>
		</g>
		<g>
			<rect x="1.815" y="21.104" fill="#231F20" width="56.523" height="0.395"/>
		</g>
	</g>
</g>
<rect x="30.813" y="4.454" fill="#231F20" width="0.436" height="13.956"/>
</svg>
