<?xml version="1.0" encoding="utf-8"?>
<!-- Generator: Adobe Illustrator 19.0.0, SVG Export Plug-In . SVG Version: 6.00 Build 0)  -->
<svg version="1.0" id="Layer_1" xmlns="http://www.w3.org/2000/svg" xmlns:xlink="http://www.w3.org/1999/xlink" x="0px" y="0px"
	 width="60px" height="55px" viewBox="-275 369 60 55" style="enable-background:new -275 369 60 55;" xml:space="preserve">
<style type="text/css">
	.st0{fill:#9272B9;}
	.st1{fill:#FFFFFF;}
</style>
<g>
	<g>
		<g>
			<g>
				<path class="st0" d="M-259.3,417.2l0.6-2.9l0.5,0.1l-0.4,2.1c25.1-7.5,37.3-19.9,38.5-21.2l-7.9-23.8
					c-6.1,8.3-22.3,13-24.1,13.5l-3.7,18l-0.5-0.1l3.8-18.3h0.1c0.2,0,18.2-4.9,24.2-13.7l0.3-0.4l8.3,25l-0.1,0.1
					c-0.1,0.1-12.5,13.7-39.2,21.6H-259.3z"/>
			</g>
			<g>
				<path class="st0" d="M-242.2,413.3l-0.2-0.5c0.2-0.1,19.9-9.6,21.7-14l0.2-0.6l1.9,5.2c0,0.4-6.3,3.4-6.3,3.4
					C-228.5,408.5-234.5,411-242.2,413.3z M-220.5,399.5c-2.3,3.7-13.9,9.8-19.1,12.4c12.1-3.7,19.4-7.9,20.6-8.6L-220.5,399.5z"/>
			</g>
			<g>
				<path class="st0" d="M-243.7,415.8l-0.1-0.5c0.2-0.1,21.7-5.8,24.1-9.2l0.3-0.4l1.6,5.8l-0.2,0.1
					C-218.1,411.7-225.1,414.2-243.7,415.8z M-219.6,406.8c-2.8,2.8-15.5,6.6-21.2,8.3c14.7-1.5,21.2-3.5,22.4-3.8L-219.6,406.8z"/>
			</g>
			<g>
				<path class="st0" d="M-234.2,417.7c-2.8,0-5.7,0-8.7-0.1V417c7.7-0.8,22.7-2.5,24.5-3.6l0.3-0.2l0.9,4h-0.3
					C-217.6,417.2-225,417.7-234.2,417.7z M-239,417c10.3,0.2,19.5-0.3,21.2-0.4l-0.6-2.7C-221,415-232.8,416.5-239,417z"/>
			</g>
			<g>
				<path class="st0" d="M-252.5,399.8l2.2-12.8h0.1c0.2-0.1,17.3-5.2,20.6-10.1l0.3-0.4l3.3,9.9v0.1c-0.2,0.3-4.7,8.6-26.1,13.2
					L-252.5,399.8z M-249.8,387.3l-2.1,11.7c19.7-4.3,24.8-11.9,25.4-12.8l-2.9-8.8C-233.2,382.3-248,386.8-249.8,387.3z"/>
			</g>
			<g>
				<path class="st0" d="M-216.3,421.2l-17.4-0.3c-20.2-1.6-25.1-3.8-25.3-3.8l0.2-0.5c0,0,5.1,2.3,25.1,3.8l17.4,0.3L-216.3,421.2z
					"/>
			</g>
		</g>
		<g>
			<g>
				<g>
					<path class="st1" d="M-245.3,408.7c-0.5,0-1.2-0.1-1.6-0.3h-0.1v-0.1c-0.1-0.5-0.1-1.1-0.1-1.7c0-0.3,0-0.7,0-1
						c0.1-0.4,0.4-0.5,0.6-0.6h0.1c-1.2-4.5-4.1-7.4-8.5-8.5c0,0.1,0,0.3,0,0.5c0,0.4,0,0.7-0.2,1v0.1h-0.1
						c-0.6,0.2-1.5,0.3-2.5,0.3s-1.9-0.1-2.5-0.3h-0.1l-0.1-0.1c-0.2-0.3-0.2-0.7-0.1-1.1c0-0.1,0-0.2,0-0.3
						c-4.4,1.1-7.2,3.9-8.6,8.5h0.1c0.2,0,0.6,0.1,0.6,0.5c0,0.3,0,0.6,0,1c0,0.6,0,1.3-0.1,1.7v0.1h-0.1c-0.4,0.2-1.1,0.3-1.6,0.3
						c-0.3,0-1.1,0-1.5-0.3l-0.1-0.1v-0.1c-0.2-0.8-0.2-2.2,0-3V405l0.1-0.1c0.2-0.2,0.4-0.2,0.6-0.2c0.1,0,0.4,0,0.5,0
						c1-4.1,3.3-7.1,6.8-8.9c-0.5,0-1,0-1.6,0c-0.5,0-1,0-1.5,0s-1,0-1.5,0c-0.3,0-0.7,0-1,0c-0.2,0.1-0.3,0.3-0.5,0.4
						c-0.2,0.3-0.5,0.6-1,0.6c-0.1,0-0.2,0-0.3,0c-0.7,0-1.2-0.3-1.5-0.8c-0.3-0.6-0.3-1.4,0-2c0.3-0.6,0.9-0.9,1.6-0.9
						c0.1,0,0.2,0,0.3,0c0.6,0.1,0.8,0.4,1.1,0.8c0.1,0.1,0.1,0.2,0.2,0.3h9c0-0.2,0-0.5,0-0.7c0-0.5-0.1-1.2,0.5-1.4
						c0.3,0,0.6,0,0.8,0c0.4,0,0.7,0,1.1,0c0.4,0,0.7,0,1.1,0c0.8,0,1.4,0,1.9,0.1h0.1l0.1,0.1c0.2,0.3,0.2,0.8,0.1,1.3
						c0,0.2,0,0.3,0,0.5c0.9,0.1,2,0.1,3.4,0.1c0.7,0,1.4,0,2.1,0c0.7,0,1.4,0,2.1,0c0.5,0,0.9,0,1.4,0c0.2-0.2,0.3-0.3,0.5-0.5
						s0.4-0.5,0.8-0.6c0.2,0,0.3,0,0.5,0c1.2,0,1.8,1,1.8,2c0,0.9-0.6,1.8-1.8,1.8h-0.2c-0.7,0-1-0.4-1.3-0.8
						c-0.1-0.1-0.2-0.2-0.3-0.3h-5.5c3.4,1.9,5.7,4.9,6.7,8.9l0,0c0,0,0,0,0.1,0s0.1,0,0.2,0c0.1,0,0.2,0,0.2,0c0.1,0,0.4,0,0.6,0.2
						c0.2,0.8,0.2,2.3,0,3.1v0.1l-0.1,0.1C-244.3,408.5-245,408.7-245.3,408.7z M-245.1,407v-0.4h-0.6v0.5L-245.1,407L-245.1,407z
						 M-270.1,407v-0.4h-0.6v0.5L-270.1,407L-270.1,407z M-256.6,396.5V394h-2.6v2.6L-256.6,396.5L-256.6,396.5z M-244.3,395
						c-0.1,0-0.2,0.1-0.3,0.2c0,0.1-0.1,0.2,0,0.3l0,0h0.1l0,0c0.2,0,0.3-0.1,0.4-0.1c0,0,0-0.1-0.1-0.1
						C-244.3,395.3-244.3,395.1-244.3,395C-244.2,395-244.2,395-244.3,395z M-271.8,395.3c0,0,0.2,0,0.3,0c0.1,0,0.1,0,0.2,0
						c0-0.1,0-0.1,0.1-0.2c0-0.1,0-0.1-0.1-0.1c-0.1-0.1-0.1-0.1-0.2-0.1c-0.1,0-0.2,0-0.2,0.1
						C-271.8,395.2-271.8,395.3-271.8,395.3C-271.8,395.3-271.8,395.3-271.8,395.3z"/>
				</g>
				<g>
					<path class="st0" d="M-257.3,392.5c0.6,0,1.3,0,1.8,0.1c0.2,0.4,0.1,1.3,0.1,1.9c1.1,0.1,2.4,0.1,3.6,0.1c1.4,0,2.8,0,4.2,0
						c0.5,0,1,0,1.5,0c0.7-0.5,0.6-0.9,1.3-1.1c0.1,0,0.3,0,0.4,0c2,0,2.2,3.2,0.1,3.2h-0.1c-0.8,0-1-0.6-1.5-1.1
						c-2.2,0-4.4,0-6.7,0c3.8,1.8,6.4,4.8,7.5,9.3c0.1,0.1,0.2,0.1,0.4,0.1c0.1,0,0.3,0,0.5,0s0.3,0,0.3,0.1c0.2,0.7,0.2,2.1,0,2.9
						c-0.3,0.2-0.9,0.2-1.4,0.2c-0.6,0-1.2-0.1-1.5-0.2c-0.2-0.7-0.1-1.8-0.1-2.6c0.1-0.3,0.5-0.3,0.7-0.4c-1.2-4.7-4.2-7.8-9-9
						c-0.3,0.3,0.1,1.3-0.2,1.6c-0.6,0.2-1.5,0.3-2.5,0.3c-0.9,0-1.9-0.1-2.5-0.3c-0.2-0.3-0.1-1.1-0.1-1.6
						c-4.9,1.1-7.7,4.2-9.1,8.9c0,0.4,0.7,0.1,0.7,0.5c0,0.9,0.1,1.9-0.1,2.6c-0.3,0.2-0.9,0.2-1.5,0.2c-0.6,0-1.1-0.1-1.4-0.2
						c-0.2-0.7-0.2-2.1,0-2.9c0.1-0.1,0.3-0.1,0.5-0.1s0.3,0,0.5,0c0.1,0,0.1,0,0.2,0c1.1-4.5,3.6-7.6,7.5-9.3
						c-0.8-0.1-1.6-0.1-2.5-0.1c-1,0-2,0-3,0c-0.4,0-0.7,0-1,0c-0.7,0.4-0.7,1-1.5,1.1c-0.1,0-0.2,0-0.2,0c-2.2,0-1.9-3.2,0.1-3.2
						c0.1,0,0.2,0,0.3,0c0.7,0.1,0.8,0.5,1.3,1.1c3.1,0,6.2,0,9.3,0c0.3-0.5-0.2-1.9,0.4-2.1c0.2,0,0.5,0,0.7,0
						C-258.8,392.7-258,392.5-257.3,392.5 M-259.5,396.8c1,0,2,0,3.1,0c0-1,0-2,0-3.1c-1,0-2,0-3.1,0
						C-259.5,394.7-259.5,395.8-259.5,396.8 M-244.4,395.7c0.2,0,0.5-0.1,0.6-0.2c0.1-0.3-0.1-0.4-0.1-0.6c-0.1-0.1-0.2-0.1-0.4-0.1
						c-0.4,0-0.7,0.4-0.5,0.8C-244.7,395.7-244.5,395.7-244.4,395.7 M-271.5,395.7c0.1,0,0.3,0,0.4-0.1c0-0.1,0-0.2,0.1-0.2
						c0-0.4-0.3-0.6-0.6-0.6s-0.6,0.2-0.5,0.7C-272,395.5-271.8,395.7-271.5,395.7 M-245.9,407.2c0.4,0,0.7,0,1.1,0
						c0-0.3,0-0.6,0-0.9c-0.2,0-0.5,0-0.7,0c-0.1,0-0.2,0-0.4,0C-245.9,406.5-245.9,406.8-245.9,407.2 M-271,407.2
						c0.4,0,0.7,0,1.1,0c0-0.3,0-0.6,0-0.9c-0.2,0-0.5,0-0.7,0c-0.1,0-0.2,0-0.4,0C-271,406.5-271,406.8-271,407.2 M-257.3,392
						c-0.4,0-0.7,0-1.1,0c-0.4,0-0.7,0-1.1,0c-0.2,0-0.5,0-0.7,0h-0.1h-0.1c-0.8,0.2-0.7,1.1-0.7,1.6c0,0.1,0,0.3,0,0.5h-8.7
						c-0.1-0.1-0.1-0.1-0.1-0.2c-0.3-0.4-0.6-0.8-1.3-0.9c-0.1,0-0.3,0-0.4,0c-1.3,0-2.1,1.1-2.1,2.2c0,0.5,0.2,1,0.5,1.4
						c0.3,0.3,0.7,0.6,1.5,0.6c0.1,0,0.2,0,0.3,0c0.6-0.1,1-0.4,1.2-0.7c0.1-0.1,0.2-0.2,0.4-0.3c0.3,0,0.6,0,0.9,0c0.5,0,1,0,1.5,0
						s1,0,1.5,0c0.2,0,0.4,0,0.7,0c-3,1.8-5,4.6-6,8.4l0,0c-0.1,0-0.2,0-0.3,0c-0.3,0-0.6,0-0.8,0.2l-0.1,0.1v0.2
						c-0.2,0.8-0.2,2.3,0,3.1l0.1,0.2l0.2,0.1c0.5,0.3,1.2,0.3,1.7,0.3c0.7,0,1.4-0.1,1.8-0.3l0.2-0.1l0.1-0.2
						c0.2-0.5,0.1-1.2,0.1-1.8c0-0.3,0-0.6,0-0.9c0-0.5-0.4-0.7-0.7-0.8c1.3-4.3,3.9-6.9,8-8c0,0.4,0,0.9,0.2,1.2l0.1,0.2l0.2,0.1
						c0.6,0.2,1.6,0.3,2.6,0.3s2-0.1,2.6-0.3h0.1l0.1-0.1c0.3-0.3,0.3-0.8,0.2-1.2v-0.1c4.1,1.2,6.8,3.8,8,8
						c-0.2,0.1-0.5,0.2-0.6,0.6v0.1v0.1c0,0.3,0,0.6,0,0.9c0,0.6,0,1.3,0.1,1.8l0.1,0.2l0.2,0.1c0.4,0.2,1,0.3,1.8,0.3
						c0.4,0,1.2,0,1.7-0.3l0.2-0.1l0.1-0.2c0.2-0.8,0.2-2.3,0-3.1v-0.1l-0.1-0.1c-0.2-0.3-0.6-0.3-0.8-0.3c-0.1,0-0.2,0-0.3,0h-0.1
						c-1-3.6-3-6.5-6-8.4h4.5c0.1,0.1,0.1,0.1,0.2,0.2c0.3,0.4,0.7,0.8,1.5,0.9c0.1,0,0.1,0,0.2,0c0.8,0,1.3-0.3,1.5-0.6
						c0.3-0.4,0.5-0.9,0.5-1.4c0-1.1-0.7-2.2-2.1-2.2c-0.2,0-0.3,0-0.5,0.1c-0.5,0.1-0.8,0.4-1,0.7c-0.1,0.1-0.2,0.3-0.4,0.4
						c-0.4,0-0.9,0-1.3,0c-0.7,0-1.4,0-2.1,0c-0.7,0-1.4,0-2.1,0c-1.3,0-2.2,0-3.1-0.1c0-0.1,0-0.2,0-0.2c0-0.5,0-1-0.2-1.4
						l-0.1-0.2h-0.2C-255.9,392.2-256.5,392-257.3,392L-257.3,392z M-259,394.2h2.1v2.1h-2.1V394.2L-259,394.2z"/>
				</g>
			</g>
			<g>
				<g>
					<path class="st1" d="M-253.7,422.2c-0.2,0-0.4-0.1-0.5-0.2c-0.4-0.4-0.4-1.5-0.3-2.6c0-0.5,0.1-1,0-1.3h-6.8
						c-0.1,0.4-0.1,1.1,0,1.7c0.1,0.9,0.1,1.8-0.2,2.2c-0.1,0.1-0.3,0.2-0.5,0.2l0,0c-0.2,0-0.4-0.1-0.5-0.2
						c-0.4-0.4-0.3-1.5-0.3-2.6c0.1-0.7,0.1-1.5,0-1.9v-0.1v-0.1c0.2-0.4,0.6-0.6,1-0.8h0.1c-0.1-0.7,0.1-1.3,0.4-1.8
						c-0.5-1.9-1.6-3-2.7-4.3l-0.4-0.4l0.1-0.2c1.1-2.5,2.4-4.9,3.6-7.3c0.6-1.2,1.2-2.3,1.9-3.5c0.2-0.3,0.7-0.4,1-0.4
						c0.2,0,0.6,0,0.8,0.2c1.1,1.6,2,3.4,3,5.4c0.5,0.9,0.9,1.8,1.4,2.7c0.1,0.2,0.2,0.4,0.4,0.6c0.6,1,1.1,1.8,1,2.3
						c0,0.4-0.6,1-1.3,1.7c-0.2,0.2-0.5,0.4-0.6,0.6c-0.6,0.9-0.9,1.5-1.2,2.5c0,0.1,0.1,0.2,0.1,0.3c0.2,0.4,0.4,0.8,0.3,1.5
						c0.1,0.1,0.2,0.2,0.4,0.3c0.3,0.1,0.5,0.3,0.7,0.7v0.1v0.1c-0.1,0.5,0,1.3,0,2c0.1,1.3,0.2,2.6-0.6,2.7
						C-253.6,422.2-253.7,422.2-253.7,422.2z M-255.6,416.3v-0.5h-4.7v0.5H-255.6z M-256,414.3c0.5-2.1,1.7-3.5,2.9-4.9
						c-0.4-0.8-0.8-1.5-1.2-2.3c-0.9-1.7-1.8-3.5-2.7-5.2v4.1c0.5,0.3,1,0.8,1.1,1.6c0,0.5-0.2,1-0.5,1.3c-0.3,0.3-0.8,0.5-1.3,0.5
						c-0.6,0-1.2-0.2-1.5-0.6c-0.3-0.4-0.5-0.8-0.5-1.3c0-0.6,0.4-0.9,0.7-1.2c0.1-0.1,0.2-0.2,0.3-0.3c0-0.6,0-1.2,0-1.9
						c0-0.7,0-1.5,0-2.2c-0.5,1.1-1.1,2.2-1.7,3.3c-0.7,1.4-1.5,2.8-2.2,4.3c1.5,1.5,2.4,3,2.9,4.8
						C-259.8,414.3-256,414.3-256,414.3z M-258.1,408c0,0,0.1,0,0.2,0l0,0c0.1,0,0.2,0,0.2-0.1c0.1-0.1,0-0.2,0-0.3l0,0
						c0,0-0.1,0-0.2,0c-0.1,0-0.2,0-0.2,0.1C-258.3,407.8-258.3,407.8-258.1,408L-258.1,408z"/>
				</g>
				<g>
					<path class="st0" d="M-258,398.8c0.3,0,0.5,0,0.6,0.1c1.6,2.3,2.8,5.2,4.3,8c0.3,0.6,1.4,2.2,1.4,2.7c-0.1,0.6-1.5,1.7-1.8,2.1
						c-0.7,0.9-0.9,1.6-1.3,2.6c0.2,0.6,0.6,1,0.4,1.9c0.2,0.4,0.9,0.5,1.1,1c-0.3,1.4,0.6,4.4-0.4,4.5h-0.1c-1,0-0.3-3.1-0.5-4.1
						c-2.4,0-4.8,0-7.2,0c-0.5,1,0.6,4.1-0.6,4.1l0,0c-1.1,0-0.2-3.2-0.5-4.5c0.2-0.4,0.7-0.6,1.1-0.8c-0.1-0.9,0.1-1.5,0.4-1.9
						c-0.5-2.1-1.8-3.4-3.1-4.8c1.7-3.8,3.7-7.2,5.5-10.8C-258.6,398.8-258.3,398.8-258,398.8 M-257.8,409.3c-0.9,0-1.8-0.6-1.7-1.7
						c0-0.7,0.5-0.9,1.1-1.5c-0.1-1.7,0.1-3.6-0.1-5.1c-1.4,2.9-3,5.6-4.3,8.6c1.3,1.3,2.4,2.8,3,5c1.4,0,2.7,0,4.1,0
						c0.5-2.2,1.7-3.6,3-5.1c-1.5-2.8-2.9-5.7-4.4-8.4c0,1.7,0,3.4,0,5.2c0.6,0.4,1,0.8,1.1,1.5C-256.3,408.8-257,409.3-257.8,409.3
						 M-258,408.3c0.3,0,0.6-0.2,0.5-0.7c-0.1-0.1-0.3-0.2-0.5-0.2c-0.3,0-0.6,0.2-0.5,0.7C-258.3,408.2-258.1,408.3-258,408.3
						 M-260.5,416.5c1.7,0,3.4,0,5.2,0c0-0.3,0-0.6,0-1c-1.7,0-3.4,0-5.2,0C-260.5,416-260.5,416.3-260.5,416.5 M-258,398.3
						L-258,398.3c-0.4,0-1,0.1-1.2,0.5c-0.6,1.2-1.2,2.3-1.8,3.5c-1.2,2.3-2.5,4.7-3.7,7.3l-0.1,0.3l0.2,0.2l0.2,0.3
						c1.1,1.2,2.2,2.3,2.6,4.1c-0.3,0.5-0.4,1.1-0.4,1.7c-0.4,0.2-0.7,0.4-1,0.9l-0.1,0.2v0.2c0.1,0.4,0,1.1,0,1.8
						c-0.1,1.2-0.2,2.3,0.3,2.8c0.2,0.2,0.4,0.3,0.7,0.3c0.3,0,0.6-0.1,0.7-0.3c0.5-0.5,0.4-1.4,0.3-2.4c0-0.5-0.1-1.1,0-1.4h6.4
						c0,0.3,0,0.7,0,1.1c-0.1,1.2-0.1,2.2,0.3,2.8c0.2,0.2,0.4,0.3,0.7,0.3c0.1,0,0.1,0,0.2,0c1.1-0.2,1-1.6,0.8-3
						c-0.1-0.7-0.1-1.5,0-1.9v-0.1l-0.1-0.1c-0.2-0.4-0.5-0.6-0.8-0.8c-0.1,0-0.2-0.1-0.2-0.1c0.1-0.7-0.1-1.2-0.3-1.6
						c0-0.1-0.1-0.1-0.1-0.2c0.3-0.9,0.5-1.5,1.1-2.3c0.1-0.1,0.3-0.3,0.5-0.5c0.8-0.7,1.3-1.3,1.4-1.8c0.1-0.5-0.4-1.4-1.1-2.4
						c-0.1-0.2-0.3-0.5-0.4-0.6c-0.5-0.9-0.9-1.8-1.4-2.7c-1-2-1.9-3.8-3-5.4v-0.1l-0.1-0.1C-257.3,398.3-257.8,398.3-258,398.3
						L-258,398.3z M-262.3,409.5c0.7-1.4,1.4-2.8,2.1-4.1c0.4-0.8,0.8-1.6,1.3-2.4c0,0.4,0,0.8,0,1.2c0,0.6,0,1.2,0,1.8
						c-0.1,0.1-0.2,0.2-0.2,0.2c-0.4,0.3-0.8,0.7-0.8,1.4c0,0.6,0.1,1.1,0.5,1.5c0.4,0.4,1.1,0.7,1.7,0.7c0.6,0,1.1-0.2,1.5-0.6
						c0.4-0.4,0.6-0.9,0.6-1.5c0-0.9-0.6-1.4-1.1-1.7v-3c0.8,1.4,1.5,2.9,2.2,4.3c0.4,0.7,0.7,1.4,1.1,2.1c-1.1,1.3-2.2,2.7-2.7,4.6
						h-3.3C-260.1,412.3-261,411-262.3,409.5L-262.3,409.5z"/>
				</g>
			</g>
		</g>
	</g>
</g>
</svg>
